M48
; DRILL file {KiCad 9.0.5} date 2026-07-15T23:27:43+0200
; FORMAT={-:-/ absolute / metric / decimal}
; #@! TF.CreationDate,2026-07-15T23:27:43+02:00
; #@! TF.GenerationSoftware,Kicad,Pcbnew,9.0.5
; #@! TF.FileFunction,Plated,1,2,PTH
FMAT,2
METRIC
; #@! TA.AperFunction,Plated,PTH,ViaDrill
T1C0.250
; #@! TA.AperFunction,Plated,PTH,ComponentDrill
T2C0.500
; #@! TA.AperFunction,Plated,PTH,ComponentDrill
T3C0.750
; #@! TA.AperFunction,Plated,PTH,ComponentDrill
T4C0.800
; #@! TA.AperFunction,Plated,PTH,ComponentDrill
T5C0.950
; #@! TA.AperFunction,Plated,PTH,ComponentDrill
T6C1.000
; #@! TA.AperFunction,Plated,PTH,ComponentDrill
T7C1.300
; #@! TA.AperFunction,Plated,PTH,ComponentDrill
T8C3.500
%
G90
G05
T1
X138.0Y-103.0
X138.0Y-117.0
X140.0Y-106.0
X140.5Y-110.5
X142.0Y-94.5
X142.5Y-124.5
X143.315Y-100.0
X143.5Y-113.5
X145.0Y-102.5
X145.5Y-99.0
X147.0Y-128.0
X150.0Y-132.5
X150.5Y-126.5
X152.0Y-102.5
X153.27Y-93.23
X153.5Y-99.0
X153.5Y-113.0
X153.5Y-127.0
X154.5Y-103.5
X160.0Y-106.5
X175.0Y-93.0
T2
X107.375Y-90.0
X107.375Y-140.0
X108.144Y-88.144
X108.144Y-91.856
X108.144Y-138.144
X108.144Y-141.856
X110.0Y-87.375
X110.0Y-92.625
X110.0Y-137.375
X110.0Y-142.625
X111.856Y-88.144
X111.856Y-91.856
X111.856Y-138.144
X111.856Y-141.856
X112.625Y-90.0
X112.625Y-140.0
X180.875Y-90.0
X180.875Y-140.0
X181.644Y-88.144
X181.644Y-91.856
X181.644Y-138.144
X181.644Y-141.856
X183.5Y-87.375
X183.5Y-92.625
X183.5Y-137.375
X183.5Y-142.625
X185.356Y-88.144
X185.356Y-91.856
X185.356Y-138.144
X185.356Y-141.856
X186.125Y-90.0
X186.125Y-140.0
T3
X183.55Y-122.0
X183.55Y-124.0
X183.55Y-126.0
X183.55Y-128.0
X183.55Y-130.0
T4
X173.5Y-94.69
X173.5Y-102.31
X173.5Y-108.69
X173.5Y-116.31
X173.5Y-122.69
X173.5Y-130.31
X177.0Y-94.69
X177.0Y-102.31
X177.0Y-108.69
X177.0Y-116.31
X177.0Y-122.5
X177.0Y-130.12
T5
X111.032Y-101.5
X111.032Y-104.0
X111.032Y-106.5
X111.032Y-109.0
X111.032Y-111.5
X111.032Y-114.0
X111.032Y-116.5
T6
X119.87Y-89.99
X119.87Y-92.53
X119.87Y-95.07
X119.87Y-97.61
X119.87Y-100.15
X119.87Y-102.69
X119.87Y-105.23
X119.87Y-107.77
X119.87Y-110.31
X119.87Y-112.85
X119.87Y-115.39
X119.87Y-117.93
X119.87Y-120.47
X119.87Y-123.01
X119.87Y-125.55
X135.11Y-89.99
X135.11Y-92.53
X135.11Y-95.07
X135.11Y-97.61
X135.11Y-100.15
X135.11Y-102.69
X135.11Y-105.23
X135.11Y-107.77
X135.11Y-110.31
X135.11Y-112.85
X135.11Y-115.39
X135.11Y-117.93
X135.11Y-120.47
X135.11Y-123.01
X135.11Y-125.55
X153.5Y-135.632
X153.5Y-140.632
X165.0Y-135.632
X165.0Y-140.632
T7
X108.468Y-123.25
X108.468Y-128.25
X185.532Y-103.75
X185.532Y-108.75
X185.532Y-113.75
T8
X110.0Y-90.0
X110.0Y-140.0
X183.5Y-90.0
X183.5Y-140.0
M30
