%TF.GenerationSoftware,KiCad,Pcbnew,9.0.5*%
%TF.CreationDate,2026-07-15T23:27:38+02:00*%
%TF.ProjectId,brushless-driver-v2,62727573-686c-4657-9373-2d6472697665,rev?*%
%TF.SameCoordinates,Original*%
%TF.FileFunction,Legend,Top*%
%TF.FilePolarity,Positive*%
%FSLAX46Y46*%
G04 Gerber Fmt 4.6, Leading zero omitted, Abs format (unit mm)*
G04 Created by KiCad (PCBNEW 9.0.5) date 2026-07-15 23:27:38*
%MOMM*%
%LPD*%
G01*
G04 APERTURE LIST*
%ADD10C,0.125000*%
%ADD11C,0.187500*%
%ADD12C,0.300000*%
%ADD13C,0.150000*%
%ADD14C,0.100000*%
%ADD15C,0.120000*%
%ADD16C,0.254000*%
G04 APERTURE END LIST*
D10*
X112871119Y-130322525D02*
X113871119Y-129989192D01*
X113871119Y-129989192D02*
X112871119Y-129655859D01*
X113823500Y-129370144D02*
X113871119Y-129227287D01*
X113871119Y-129227287D02*
X113871119Y-128989192D01*
X113871119Y-128989192D02*
X113823500Y-128893954D01*
X113823500Y-128893954D02*
X113775880Y-128846335D01*
X113775880Y-128846335D02*
X113680642Y-128798716D01*
X113680642Y-128798716D02*
X113585404Y-128798716D01*
X113585404Y-128798716D02*
X113490166Y-128846335D01*
X113490166Y-128846335D02*
X113442547Y-128893954D01*
X113442547Y-128893954D02*
X113394928Y-128989192D01*
X113394928Y-128989192D02*
X113347309Y-129179668D01*
X113347309Y-129179668D02*
X113299690Y-129274906D01*
X113299690Y-129274906D02*
X113252071Y-129322525D01*
X113252071Y-129322525D02*
X113156833Y-129370144D01*
X113156833Y-129370144D02*
X113061595Y-129370144D01*
X113061595Y-129370144D02*
X112966357Y-129322525D01*
X112966357Y-129322525D02*
X112918738Y-129274906D01*
X112918738Y-129274906D02*
X112871119Y-129179668D01*
X112871119Y-129179668D02*
X112871119Y-128941573D01*
X112871119Y-128941573D02*
X112918738Y-128798716D01*
X180133161Y-121527166D02*
X180037923Y-121479547D01*
X180037923Y-121479547D02*
X179895066Y-121479547D01*
X179895066Y-121479547D02*
X179752209Y-121527166D01*
X179752209Y-121527166D02*
X179656971Y-121622404D01*
X179656971Y-121622404D02*
X179609352Y-121717642D01*
X179609352Y-121717642D02*
X179561733Y-121908118D01*
X179561733Y-121908118D02*
X179561733Y-122050975D01*
X179561733Y-122050975D02*
X179609352Y-122241451D01*
X179609352Y-122241451D02*
X179656971Y-122336689D01*
X179656971Y-122336689D02*
X179752209Y-122431928D01*
X179752209Y-122431928D02*
X179895066Y-122479547D01*
X179895066Y-122479547D02*
X179990304Y-122479547D01*
X179990304Y-122479547D02*
X180133161Y-122431928D01*
X180133161Y-122431928D02*
X180180780Y-122384308D01*
X180180780Y-122384308D02*
X180180780Y-122050975D01*
X180180780Y-122050975D02*
X179990304Y-122050975D01*
X180609352Y-122479547D02*
X180609352Y-121479547D01*
X180609352Y-121479547D02*
X181180780Y-122479547D01*
X181180780Y-122479547D02*
X181180780Y-121479547D01*
X181656971Y-122479547D02*
X181656971Y-121479547D01*
X181656971Y-121479547D02*
X181895066Y-121479547D01*
X181895066Y-121479547D02*
X182037923Y-121527166D01*
X182037923Y-121527166D02*
X182133161Y-121622404D01*
X182133161Y-121622404D02*
X182180780Y-121717642D01*
X182180780Y-121717642D02*
X182228399Y-121908118D01*
X182228399Y-121908118D02*
X182228399Y-122050975D01*
X182228399Y-122050975D02*
X182180780Y-122241451D01*
X182180780Y-122241451D02*
X182133161Y-122336689D01*
X182133161Y-122336689D02*
X182037923Y-122431928D01*
X182037923Y-122431928D02*
X181895066Y-122479547D01*
X181895066Y-122479547D02*
X181656971Y-122479547D01*
X180608240Y-124456119D02*
X180608240Y-123456119D01*
X180608240Y-123932309D02*
X181179668Y-123932309D01*
X181179668Y-124456119D02*
X181179668Y-123456119D01*
X182227287Y-124360880D02*
X182179668Y-124408500D01*
X182179668Y-124408500D02*
X182036811Y-124456119D01*
X182036811Y-124456119D02*
X181941573Y-124456119D01*
X181941573Y-124456119D02*
X181798716Y-124408500D01*
X181798716Y-124408500D02*
X181703478Y-124313261D01*
X181703478Y-124313261D02*
X181655859Y-124218023D01*
X181655859Y-124218023D02*
X181608240Y-124027547D01*
X181608240Y-124027547D02*
X181608240Y-123884690D01*
X181608240Y-123884690D02*
X181655859Y-123694214D01*
X181655859Y-123694214D02*
X181703478Y-123598976D01*
X181703478Y-123598976D02*
X181798716Y-123503738D01*
X181798716Y-123503738D02*
X181941573Y-123456119D01*
X181941573Y-123456119D02*
X182036811Y-123456119D01*
X182036811Y-123456119D02*
X182179668Y-123503738D01*
X182179668Y-123503738D02*
X182227287Y-123551357D01*
X180608240Y-126456119D02*
X180608240Y-125456119D01*
X180608240Y-125932309D02*
X181179668Y-125932309D01*
X181179668Y-126456119D02*
X181179668Y-125456119D01*
X181989192Y-125932309D02*
X182132049Y-125979928D01*
X182132049Y-125979928D02*
X182179668Y-126027547D01*
X182179668Y-126027547D02*
X182227287Y-126122785D01*
X182227287Y-126122785D02*
X182227287Y-126265642D01*
X182227287Y-126265642D02*
X182179668Y-126360880D01*
X182179668Y-126360880D02*
X182132049Y-126408500D01*
X182132049Y-126408500D02*
X182036811Y-126456119D01*
X182036811Y-126456119D02*
X181655859Y-126456119D01*
X181655859Y-126456119D02*
X181655859Y-125456119D01*
X181655859Y-125456119D02*
X181989192Y-125456119D01*
X181989192Y-125456119D02*
X182084430Y-125503738D01*
X182084430Y-125503738D02*
X182132049Y-125551357D01*
X182132049Y-125551357D02*
X182179668Y-125646595D01*
X182179668Y-125646595D02*
X182179668Y-125741833D01*
X182179668Y-125741833D02*
X182132049Y-125837071D01*
X182132049Y-125837071D02*
X182084430Y-125884690D01*
X182084430Y-125884690D02*
X181989192Y-125932309D01*
X181989192Y-125932309D02*
X181655859Y-125932309D01*
X180639055Y-128476734D02*
X180639055Y-127476734D01*
X180639055Y-127952924D02*
X181210483Y-127952924D01*
X181210483Y-128476734D02*
X181210483Y-127476734D01*
X181639055Y-128191019D02*
X182115245Y-128191019D01*
X181543817Y-128476734D02*
X181877150Y-127476734D01*
X181877150Y-127476734D02*
X182210483Y-128476734D01*
X179608240Y-130075166D02*
X180370145Y-130075166D01*
X179989192Y-130456119D02*
X179989192Y-129694214D01*
X181322525Y-129456119D02*
X180846335Y-129456119D01*
X180846335Y-129456119D02*
X180798716Y-129932309D01*
X180798716Y-129932309D02*
X180846335Y-129884690D01*
X180846335Y-129884690D02*
X180941573Y-129837071D01*
X180941573Y-129837071D02*
X181179668Y-129837071D01*
X181179668Y-129837071D02*
X181274906Y-129884690D01*
X181274906Y-129884690D02*
X181322525Y-129932309D01*
X181322525Y-129932309D02*
X181370144Y-130027547D01*
X181370144Y-130027547D02*
X181370144Y-130265642D01*
X181370144Y-130265642D02*
X181322525Y-130360880D01*
X181322525Y-130360880D02*
X181274906Y-130408500D01*
X181274906Y-130408500D02*
X181179668Y-130456119D01*
X181179668Y-130456119D02*
X180941573Y-130456119D01*
X180941573Y-130456119D02*
X180846335Y-130408500D01*
X180846335Y-130408500D02*
X180798716Y-130360880D01*
X181655859Y-129456119D02*
X181989192Y-130456119D01*
X181989192Y-130456119D02*
X182322525Y-129456119D01*
X112820331Y-101490166D02*
X113582236Y-101490166D01*
X113201283Y-101871119D02*
X113201283Y-101109214D01*
X114534616Y-100871119D02*
X114058426Y-100871119D01*
X114058426Y-100871119D02*
X114010807Y-101347309D01*
X114010807Y-101347309D02*
X114058426Y-101299690D01*
X114058426Y-101299690D02*
X114153664Y-101252071D01*
X114153664Y-101252071D02*
X114391759Y-101252071D01*
X114391759Y-101252071D02*
X114486997Y-101299690D01*
X114486997Y-101299690D02*
X114534616Y-101347309D01*
X114534616Y-101347309D02*
X114582235Y-101442547D01*
X114582235Y-101442547D02*
X114582235Y-101680642D01*
X114582235Y-101680642D02*
X114534616Y-101775880D01*
X114534616Y-101775880D02*
X114486997Y-101823500D01*
X114486997Y-101823500D02*
X114391759Y-101871119D01*
X114391759Y-101871119D02*
X114153664Y-101871119D01*
X114153664Y-101871119D02*
X114058426Y-101823500D01*
X114058426Y-101823500D02*
X114010807Y-101775880D01*
X114867950Y-100871119D02*
X115201283Y-101871119D01*
X115201283Y-101871119D02*
X115534616Y-100871119D01*
D11*
X106123355Y-132306678D02*
X105837640Y-132306678D01*
X105837640Y-132306678D02*
X105694783Y-132378107D01*
X105694783Y-132378107D02*
X105623355Y-132449535D01*
X105623355Y-132449535D02*
X105480497Y-132663821D01*
X105480497Y-132663821D02*
X105409069Y-132949535D01*
X105409069Y-132949535D02*
X105409069Y-133520964D01*
X105409069Y-133520964D02*
X105480497Y-133663821D01*
X105480497Y-133663821D02*
X105551926Y-133735250D01*
X105551926Y-133735250D02*
X105694783Y-133806678D01*
X105694783Y-133806678D02*
X105980497Y-133806678D01*
X105980497Y-133806678D02*
X106123355Y-133735250D01*
X106123355Y-133735250D02*
X106194783Y-133663821D01*
X106194783Y-133663821D02*
X106266212Y-133520964D01*
X106266212Y-133520964D02*
X106266212Y-133163821D01*
X106266212Y-133163821D02*
X106194783Y-133020964D01*
X106194783Y-133020964D02*
X106123355Y-132949535D01*
X106123355Y-132949535D02*
X105980497Y-132878107D01*
X105980497Y-132878107D02*
X105694783Y-132878107D01*
X105694783Y-132878107D02*
X105551926Y-132949535D01*
X105551926Y-132949535D02*
X105480497Y-133020964D01*
X105480497Y-133020964D02*
X105409069Y-133163821D01*
X106909068Y-133235250D02*
X108051926Y-133235250D01*
X108623354Y-132306678D02*
X109551926Y-132306678D01*
X109551926Y-132306678D02*
X109051926Y-132878107D01*
X109051926Y-132878107D02*
X109266211Y-132878107D01*
X109266211Y-132878107D02*
X109409069Y-132949535D01*
X109409069Y-132949535D02*
X109480497Y-133020964D01*
X109480497Y-133020964D02*
X109551926Y-133163821D01*
X109551926Y-133163821D02*
X109551926Y-133520964D01*
X109551926Y-133520964D02*
X109480497Y-133663821D01*
X109480497Y-133663821D02*
X109409069Y-133735250D01*
X109409069Y-133735250D02*
X109266211Y-133806678D01*
X109266211Y-133806678D02*
X108837640Y-133806678D01*
X108837640Y-133806678D02*
X108694783Y-133735250D01*
X108694783Y-133735250D02*
X108623354Y-133663821D01*
X110909068Y-132306678D02*
X110194782Y-132306678D01*
X110194782Y-132306678D02*
X110123354Y-133020964D01*
X110123354Y-133020964D02*
X110194782Y-132949535D01*
X110194782Y-132949535D02*
X110337640Y-132878107D01*
X110337640Y-132878107D02*
X110694782Y-132878107D01*
X110694782Y-132878107D02*
X110837640Y-132949535D01*
X110837640Y-132949535D02*
X110909068Y-133020964D01*
X110909068Y-133020964D02*
X110980497Y-133163821D01*
X110980497Y-133163821D02*
X110980497Y-133520964D01*
X110980497Y-133520964D02*
X110909068Y-133663821D01*
X110909068Y-133663821D02*
X110837640Y-133735250D01*
X110837640Y-133735250D02*
X110694782Y-133806678D01*
X110694782Y-133806678D02*
X110337640Y-133806678D01*
X110337640Y-133806678D02*
X110194782Y-133735250D01*
X110194782Y-133735250D02*
X110123354Y-133663821D01*
X111409068Y-132306678D02*
X111909068Y-133806678D01*
X111909068Y-133806678D02*
X112409068Y-132306678D01*
D10*
X112918738Y-124155859D02*
X112871119Y-124251097D01*
X112871119Y-124251097D02*
X112871119Y-124393954D01*
X112871119Y-124393954D02*
X112918738Y-124536811D01*
X112918738Y-124536811D02*
X113013976Y-124632049D01*
X113013976Y-124632049D02*
X113109214Y-124679668D01*
X113109214Y-124679668D02*
X113299690Y-124727287D01*
X113299690Y-124727287D02*
X113442547Y-124727287D01*
X113442547Y-124727287D02*
X113633023Y-124679668D01*
X113633023Y-124679668D02*
X113728261Y-124632049D01*
X113728261Y-124632049D02*
X113823500Y-124536811D01*
X113823500Y-124536811D02*
X113871119Y-124393954D01*
X113871119Y-124393954D02*
X113871119Y-124298716D01*
X113871119Y-124298716D02*
X113823500Y-124155859D01*
X113823500Y-124155859D02*
X113775880Y-124108240D01*
X113775880Y-124108240D02*
X113442547Y-124108240D01*
X113442547Y-124108240D02*
X113442547Y-124298716D01*
X113871119Y-123679668D02*
X112871119Y-123679668D01*
X112871119Y-123679668D02*
X113871119Y-123108240D01*
X113871119Y-123108240D02*
X112871119Y-123108240D01*
X113871119Y-122632049D02*
X112871119Y-122632049D01*
X112871119Y-122632049D02*
X112871119Y-122393954D01*
X112871119Y-122393954D02*
X112918738Y-122251097D01*
X112918738Y-122251097D02*
X113013976Y-122155859D01*
X113013976Y-122155859D02*
X113109214Y-122108240D01*
X113109214Y-122108240D02*
X113299690Y-122060621D01*
X113299690Y-122060621D02*
X113442547Y-122060621D01*
X113442547Y-122060621D02*
X113633023Y-122108240D01*
X113633023Y-122108240D02*
X113728261Y-122155859D01*
X113728261Y-122155859D02*
X113823500Y-122251097D01*
X113823500Y-122251097D02*
X113871119Y-122393954D01*
X113871119Y-122393954D02*
X113871119Y-122632049D01*
X114344140Y-115918738D02*
X114248902Y-115871119D01*
X114248902Y-115871119D02*
X114106045Y-115871119D01*
X114106045Y-115871119D02*
X113963188Y-115918738D01*
X113963188Y-115918738D02*
X113867950Y-116013976D01*
X113867950Y-116013976D02*
X113820331Y-116109214D01*
X113820331Y-116109214D02*
X113772712Y-116299690D01*
X113772712Y-116299690D02*
X113772712Y-116442547D01*
X113772712Y-116442547D02*
X113820331Y-116633023D01*
X113820331Y-116633023D02*
X113867950Y-116728261D01*
X113867950Y-116728261D02*
X113963188Y-116823500D01*
X113963188Y-116823500D02*
X114106045Y-116871119D01*
X114106045Y-116871119D02*
X114201283Y-116871119D01*
X114201283Y-116871119D02*
X114344140Y-116823500D01*
X114344140Y-116823500D02*
X114391759Y-116775880D01*
X114391759Y-116775880D02*
X114391759Y-116442547D01*
X114391759Y-116442547D02*
X114201283Y-116442547D01*
X114820331Y-116871119D02*
X114820331Y-115871119D01*
X114820331Y-115871119D02*
X115391759Y-116871119D01*
X115391759Y-116871119D02*
X115391759Y-115871119D01*
X115867950Y-116871119D02*
X115867950Y-115871119D01*
X115867950Y-115871119D02*
X116106045Y-115871119D01*
X116106045Y-115871119D02*
X116248902Y-115918738D01*
X116248902Y-115918738D02*
X116344140Y-116013976D01*
X116344140Y-116013976D02*
X116391759Y-116109214D01*
X116391759Y-116109214D02*
X116439378Y-116299690D01*
X116439378Y-116299690D02*
X116439378Y-116442547D01*
X116439378Y-116442547D02*
X116391759Y-116633023D01*
X116391759Y-116633023D02*
X116344140Y-116728261D01*
X116344140Y-116728261D02*
X116248902Y-116823500D01*
X116248902Y-116823500D02*
X116106045Y-116871119D01*
X116106045Y-116871119D02*
X115867950Y-116871119D01*
X113391759Y-114371119D02*
X113058426Y-113894928D01*
X112820331Y-114371119D02*
X112820331Y-113371119D01*
X112820331Y-113371119D02*
X113201283Y-113371119D01*
X113201283Y-113371119D02*
X113296521Y-113418738D01*
X113296521Y-113418738D02*
X113344140Y-113466357D01*
X113344140Y-113466357D02*
X113391759Y-113561595D01*
X113391759Y-113561595D02*
X113391759Y-113704452D01*
X113391759Y-113704452D02*
X113344140Y-113799690D01*
X113344140Y-113799690D02*
X113296521Y-113847309D01*
X113296521Y-113847309D02*
X113201283Y-113894928D01*
X113201283Y-113894928D02*
X112820331Y-113894928D01*
X113725093Y-113371119D02*
X114391759Y-114371119D01*
X114391759Y-113371119D02*
X113725093Y-114371119D01*
X112677474Y-110871119D02*
X113248902Y-110871119D01*
X112963188Y-111871119D02*
X112963188Y-110871119D01*
X113486998Y-110871119D02*
X114153664Y-111871119D01*
X114153664Y-110871119D02*
X113486998Y-111871119D01*
X112820331Y-108847309D02*
X113153664Y-108847309D01*
X113296521Y-109371119D02*
X112820331Y-109371119D01*
X112820331Y-109371119D02*
X112820331Y-108371119D01*
X112820331Y-108371119D02*
X113296521Y-108371119D01*
X113725093Y-109371119D02*
X113725093Y-108371119D01*
X113725093Y-108371119D02*
X114296521Y-109371119D01*
X114296521Y-109371119D02*
X114296521Y-108371119D01*
X112820331Y-106871119D02*
X112820331Y-105871119D01*
X112820331Y-105871119D02*
X113058426Y-105871119D01*
X113058426Y-105871119D02*
X113201283Y-105918738D01*
X113201283Y-105918738D02*
X113296521Y-106013976D01*
X113296521Y-106013976D02*
X113344140Y-106109214D01*
X113344140Y-106109214D02*
X113391759Y-106299690D01*
X113391759Y-106299690D02*
X113391759Y-106442547D01*
X113391759Y-106442547D02*
X113344140Y-106633023D01*
X113344140Y-106633023D02*
X113296521Y-106728261D01*
X113296521Y-106728261D02*
X113201283Y-106823500D01*
X113201283Y-106823500D02*
X113058426Y-106871119D01*
X113058426Y-106871119D02*
X112820331Y-106871119D01*
X113820331Y-106871119D02*
X113820331Y-105871119D01*
X114867949Y-106871119D02*
X114534616Y-106394928D01*
X114296521Y-106871119D02*
X114296521Y-105871119D01*
X114296521Y-105871119D02*
X114677473Y-105871119D01*
X114677473Y-105871119D02*
X114772711Y-105918738D01*
X114772711Y-105918738D02*
X114820330Y-105966357D01*
X114820330Y-105966357D02*
X114867949Y-106061595D01*
X114867949Y-106061595D02*
X114867949Y-106204452D01*
X114867949Y-106204452D02*
X114820330Y-106299690D01*
X114820330Y-106299690D02*
X114772711Y-106347309D01*
X114772711Y-106347309D02*
X114677473Y-106394928D01*
X114677473Y-106394928D02*
X114296521Y-106394928D01*
X112677474Y-103371119D02*
X113248902Y-103371119D01*
X112963188Y-104371119D02*
X112963188Y-103371119D01*
X113582236Y-104371119D02*
X113582236Y-103371119D01*
X113582236Y-103847309D02*
X114153664Y-103847309D01*
X114153664Y-104371119D02*
X114153664Y-103371119D01*
X115201283Y-104371119D02*
X114867950Y-103894928D01*
X114629855Y-104371119D02*
X114629855Y-103371119D01*
X114629855Y-103371119D02*
X115010807Y-103371119D01*
X115010807Y-103371119D02*
X115106045Y-103418738D01*
X115106045Y-103418738D02*
X115153664Y-103466357D01*
X115153664Y-103466357D02*
X115201283Y-103561595D01*
X115201283Y-103561595D02*
X115201283Y-103704452D01*
X115201283Y-103704452D02*
X115153664Y-103799690D01*
X115153664Y-103799690D02*
X115106045Y-103847309D01*
X115106045Y-103847309D02*
X115010807Y-103894928D01*
X115010807Y-103894928D02*
X114629855Y-103894928D01*
D12*
X181157971Y-114088346D02*
X181229400Y-114159774D01*
X181229400Y-114159774D02*
X181300828Y-114374060D01*
X181300828Y-114374060D02*
X181300828Y-114516917D01*
X181300828Y-114516917D02*
X181229400Y-114731203D01*
X181229400Y-114731203D02*
X181086542Y-114874060D01*
X181086542Y-114874060D02*
X180943685Y-114945489D01*
X180943685Y-114945489D02*
X180657971Y-115016917D01*
X180657971Y-115016917D02*
X180443685Y-115016917D01*
X180443685Y-115016917D02*
X180157971Y-114945489D01*
X180157971Y-114945489D02*
X180015114Y-114874060D01*
X180015114Y-114874060D02*
X179872257Y-114731203D01*
X179872257Y-114731203D02*
X179800828Y-114516917D01*
X179800828Y-114516917D02*
X179800828Y-114374060D01*
X179800828Y-114374060D02*
X179872257Y-114159774D01*
X179872257Y-114159774D02*
X179943685Y-114088346D01*
X180515114Y-108945489D02*
X180586542Y-108731203D01*
X180586542Y-108731203D02*
X180657971Y-108659774D01*
X180657971Y-108659774D02*
X180800828Y-108588346D01*
X180800828Y-108588346D02*
X181015114Y-108588346D01*
X181015114Y-108588346D02*
X181157971Y-108659774D01*
X181157971Y-108659774D02*
X181229400Y-108731203D01*
X181229400Y-108731203D02*
X181300828Y-108874060D01*
X181300828Y-108874060D02*
X181300828Y-109445489D01*
X181300828Y-109445489D02*
X179800828Y-109445489D01*
X179800828Y-109445489D02*
X179800828Y-108945489D01*
X179800828Y-108945489D02*
X179872257Y-108802632D01*
X179872257Y-108802632D02*
X179943685Y-108731203D01*
X179943685Y-108731203D02*
X180086542Y-108659774D01*
X180086542Y-108659774D02*
X180229400Y-108659774D01*
X180229400Y-108659774D02*
X180372257Y-108731203D01*
X180372257Y-108731203D02*
X180443685Y-108802632D01*
X180443685Y-108802632D02*
X180515114Y-108945489D01*
X180515114Y-108945489D02*
X180515114Y-109445489D01*
X180872257Y-102516917D02*
X180872257Y-101802632D01*
X181300828Y-102659774D02*
X179800828Y-102159774D01*
X179800828Y-102159774D02*
X181300828Y-101659774D01*
D13*
X114622493Y-141869819D02*
X114622493Y-142584104D01*
X114622493Y-142584104D02*
X114574874Y-142726961D01*
X114574874Y-142726961D02*
X114479636Y-142822200D01*
X114479636Y-142822200D02*
X114336779Y-142869819D01*
X114336779Y-142869819D02*
X114241541Y-142869819D01*
X115098684Y-142869819D02*
X115098684Y-141869819D01*
X115098684Y-141869819D02*
X115432017Y-142584104D01*
X115432017Y-142584104D02*
X115765350Y-141869819D01*
X115765350Y-141869819D02*
X115765350Y-142869819D01*
X116670112Y-142203152D02*
X116670112Y-142869819D01*
X116241541Y-142203152D02*
X116241541Y-142726961D01*
X116241541Y-142726961D02*
X116289160Y-142822200D01*
X116289160Y-142822200D02*
X116384398Y-142869819D01*
X116384398Y-142869819D02*
X116527255Y-142869819D01*
X116527255Y-142869819D02*
X116622493Y-142822200D01*
X116622493Y-142822200D02*
X116670112Y-142774580D01*
X116289160Y-141869819D02*
X116336779Y-141917438D01*
X116336779Y-141917438D02*
X116289160Y-141965057D01*
X116289160Y-141965057D02*
X116241541Y-141917438D01*
X116241541Y-141917438D02*
X116289160Y-141869819D01*
X116289160Y-141869819D02*
X116289160Y-141965057D01*
X116670112Y-141869819D02*
X116717731Y-141917438D01*
X116717731Y-141917438D02*
X116670112Y-141965057D01*
X116670112Y-141965057D02*
X116622493Y-141917438D01*
X116622493Y-141917438D02*
X116670112Y-141869819D01*
X116670112Y-141869819D02*
X116670112Y-141965057D01*
X117193922Y-142822200D02*
X117193922Y-142869819D01*
X117193922Y-142869819D02*
X117146303Y-142965057D01*
X117146303Y-142965057D02*
X117098684Y-143012676D01*
X117574874Y-141965057D02*
X117622493Y-141917438D01*
X117622493Y-141917438D02*
X117717731Y-141869819D01*
X117717731Y-141869819D02*
X117955826Y-141869819D01*
X117955826Y-141869819D02*
X118051064Y-141917438D01*
X118051064Y-141917438D02*
X118098683Y-141965057D01*
X118098683Y-141965057D02*
X118146302Y-142060295D01*
X118146302Y-142060295D02*
X118146302Y-142155533D01*
X118146302Y-142155533D02*
X118098683Y-142298390D01*
X118098683Y-142298390D02*
X117527255Y-142869819D01*
X117527255Y-142869819D02*
X118146302Y-142869819D01*
X119003445Y-141869819D02*
X118812969Y-141869819D01*
X118812969Y-141869819D02*
X118717731Y-141917438D01*
X118717731Y-141917438D02*
X118670112Y-141965057D01*
X118670112Y-141965057D02*
X118574874Y-142107914D01*
X118574874Y-142107914D02*
X118527255Y-142298390D01*
X118527255Y-142298390D02*
X118527255Y-142679342D01*
X118527255Y-142679342D02*
X118574874Y-142774580D01*
X118574874Y-142774580D02*
X118622493Y-142822200D01*
X118622493Y-142822200D02*
X118717731Y-142869819D01*
X118717731Y-142869819D02*
X118908207Y-142869819D01*
X118908207Y-142869819D02*
X119003445Y-142822200D01*
X119003445Y-142822200D02*
X119051064Y-142774580D01*
X119051064Y-142774580D02*
X119098683Y-142679342D01*
X119098683Y-142679342D02*
X119098683Y-142441247D01*
X119098683Y-142441247D02*
X119051064Y-142346009D01*
X119051064Y-142346009D02*
X119003445Y-142298390D01*
X119003445Y-142298390D02*
X118908207Y-142250771D01*
X118908207Y-142250771D02*
X118717731Y-142250771D01*
X118717731Y-142250771D02*
X118622493Y-142298390D01*
X118622493Y-142298390D02*
X118574874Y-142346009D01*
X118574874Y-142346009D02*
X118527255Y-142441247D01*
X114241541Y-144203152D02*
X114479636Y-144869819D01*
X114479636Y-144869819D02*
X114717731Y-144203152D01*
X115003446Y-143869819D02*
X115622493Y-143869819D01*
X115622493Y-143869819D02*
X115289160Y-144250771D01*
X115289160Y-144250771D02*
X115432017Y-144250771D01*
X115432017Y-144250771D02*
X115527255Y-144298390D01*
X115527255Y-144298390D02*
X115574874Y-144346009D01*
X115574874Y-144346009D02*
X115622493Y-144441247D01*
X115622493Y-144441247D02*
X115622493Y-144679342D01*
X115622493Y-144679342D02*
X115574874Y-144774580D01*
X115574874Y-144774580D02*
X115527255Y-144822200D01*
X115527255Y-144822200D02*
X115432017Y-144869819D01*
X115432017Y-144869819D02*
X115146303Y-144869819D01*
X115146303Y-144869819D02*
X115051065Y-144822200D01*
X115051065Y-144822200D02*
X115003446Y-144774580D01*
D14*
X131875312Y-123372419D02*
X131541979Y-122896228D01*
X131303884Y-123372419D02*
X131303884Y-122372419D01*
X131303884Y-122372419D02*
X131684836Y-122372419D01*
X131684836Y-122372419D02*
X131780074Y-122420038D01*
X131780074Y-122420038D02*
X131827693Y-122467657D01*
X131827693Y-122467657D02*
X131875312Y-122562895D01*
X131875312Y-122562895D02*
X131875312Y-122705752D01*
X131875312Y-122705752D02*
X131827693Y-122800990D01*
X131827693Y-122800990D02*
X131780074Y-122848609D01*
X131780074Y-122848609D02*
X131684836Y-122896228D01*
X131684836Y-122896228D02*
X131303884Y-122896228D01*
X132208646Y-122372419D02*
X132875312Y-123372419D01*
X132875312Y-122372419D02*
X132208646Y-123372419D01*
X133446741Y-122372419D02*
X133541979Y-122372419D01*
X133541979Y-122372419D02*
X133637217Y-122420038D01*
X133637217Y-122420038D02*
X133684836Y-122467657D01*
X133684836Y-122467657D02*
X133732455Y-122562895D01*
X133732455Y-122562895D02*
X133780074Y-122753371D01*
X133780074Y-122753371D02*
X133780074Y-122991466D01*
X133780074Y-122991466D02*
X133732455Y-123181942D01*
X133732455Y-123181942D02*
X133684836Y-123277180D01*
X133684836Y-123277180D02*
X133637217Y-123324800D01*
X133637217Y-123324800D02*
X133541979Y-123372419D01*
X133541979Y-123372419D02*
X133446741Y-123372419D01*
X133446741Y-123372419D02*
X133351503Y-123324800D01*
X133351503Y-123324800D02*
X133303884Y-123277180D01*
X133303884Y-123277180D02*
X133256265Y-123181942D01*
X133256265Y-123181942D02*
X133208646Y-122991466D01*
X133208646Y-122991466D02*
X133208646Y-122753371D01*
X133208646Y-122753371D02*
X133256265Y-122562895D01*
X133256265Y-122562895D02*
X133303884Y-122467657D01*
X133303884Y-122467657D02*
X133351503Y-122420038D01*
X133351503Y-122420038D02*
X133446741Y-122372419D01*
X131827693Y-117420038D02*
X131732455Y-117372419D01*
X131732455Y-117372419D02*
X131589598Y-117372419D01*
X131589598Y-117372419D02*
X131446741Y-117420038D01*
X131446741Y-117420038D02*
X131351503Y-117515276D01*
X131351503Y-117515276D02*
X131303884Y-117610514D01*
X131303884Y-117610514D02*
X131256265Y-117800990D01*
X131256265Y-117800990D02*
X131256265Y-117943847D01*
X131256265Y-117943847D02*
X131303884Y-118134323D01*
X131303884Y-118134323D02*
X131351503Y-118229561D01*
X131351503Y-118229561D02*
X131446741Y-118324800D01*
X131446741Y-118324800D02*
X131589598Y-118372419D01*
X131589598Y-118372419D02*
X131684836Y-118372419D01*
X131684836Y-118372419D02*
X131827693Y-118324800D01*
X131827693Y-118324800D02*
X131875312Y-118277180D01*
X131875312Y-118277180D02*
X131875312Y-117943847D01*
X131875312Y-117943847D02*
X131684836Y-117943847D01*
X132303884Y-118372419D02*
X132303884Y-117372419D01*
X132303884Y-117372419D02*
X132875312Y-118372419D01*
X132875312Y-118372419D02*
X132875312Y-117372419D01*
X133351503Y-118372419D02*
X133351503Y-117372419D01*
X133351503Y-117372419D02*
X133589598Y-117372419D01*
X133589598Y-117372419D02*
X133732455Y-117420038D01*
X133732455Y-117420038D02*
X133827693Y-117515276D01*
X133827693Y-117515276D02*
X133875312Y-117610514D01*
X133875312Y-117610514D02*
X133922931Y-117800990D01*
X133922931Y-117800990D02*
X133922931Y-117943847D01*
X133922931Y-117943847D02*
X133875312Y-118134323D01*
X133875312Y-118134323D02*
X133827693Y-118229561D01*
X133827693Y-118229561D02*
X133732455Y-118324800D01*
X133732455Y-118324800D02*
X133589598Y-118372419D01*
X133589598Y-118372419D02*
X133351503Y-118372419D01*
X121398333Y-92135120D02*
X122017380Y-92135120D01*
X122017380Y-92135120D02*
X121684047Y-92516072D01*
X121684047Y-92516072D02*
X121826904Y-92516072D01*
X121826904Y-92516072D02*
X121922142Y-92563691D01*
X121922142Y-92563691D02*
X121969761Y-92611310D01*
X121969761Y-92611310D02*
X122017380Y-92706548D01*
X122017380Y-92706548D02*
X122017380Y-92944643D01*
X122017380Y-92944643D02*
X121969761Y-93039881D01*
X121969761Y-93039881D02*
X121922142Y-93087501D01*
X121922142Y-93087501D02*
X121826904Y-93135120D01*
X121826904Y-93135120D02*
X121541190Y-93135120D01*
X121541190Y-93135120D02*
X121445952Y-93087501D01*
X121445952Y-93087501D02*
X121398333Y-93039881D01*
X122303095Y-92135120D02*
X122636428Y-93135120D01*
X122636428Y-93135120D02*
X122969761Y-92135120D01*
X123207857Y-92135120D02*
X123826904Y-92135120D01*
X123826904Y-92135120D02*
X123493571Y-92516072D01*
X123493571Y-92516072D02*
X123636428Y-92516072D01*
X123636428Y-92516072D02*
X123731666Y-92563691D01*
X123731666Y-92563691D02*
X123779285Y-92611310D01*
X123779285Y-92611310D02*
X123826904Y-92706548D01*
X123826904Y-92706548D02*
X123826904Y-92944643D01*
X123826904Y-92944643D02*
X123779285Y-93039881D01*
X123779285Y-93039881D02*
X123731666Y-93087501D01*
X123731666Y-93087501D02*
X123636428Y-93135120D01*
X123636428Y-93135120D02*
X123350714Y-93135120D01*
X123350714Y-93135120D02*
X123255476Y-93087501D01*
X123255476Y-93087501D02*
X123207857Y-93039881D01*
X121315163Y-115586704D02*
X121791353Y-115586704D01*
X121219925Y-115872419D02*
X121553258Y-114872419D01*
X121553258Y-114872419D02*
X121886591Y-115872419D01*
X122124687Y-114872419D02*
X122791353Y-114872419D01*
X122791353Y-114872419D02*
X122362782Y-115872419D01*
X121995018Y-95631089D02*
X121661685Y-95154898D01*
X121423590Y-95631089D02*
X121423590Y-94631089D01*
X121423590Y-94631089D02*
X121804542Y-94631089D01*
X121804542Y-94631089D02*
X121899780Y-94678708D01*
X121899780Y-94678708D02*
X121947399Y-94726327D01*
X121947399Y-94726327D02*
X121995018Y-94821565D01*
X121995018Y-94821565D02*
X121995018Y-94964422D01*
X121995018Y-94964422D02*
X121947399Y-95059660D01*
X121947399Y-95059660D02*
X121899780Y-95107279D01*
X121899780Y-95107279D02*
X121804542Y-95154898D01*
X121804542Y-95154898D02*
X121423590Y-95154898D01*
X122423590Y-95107279D02*
X122756923Y-95107279D01*
X122899780Y-95631089D02*
X122423590Y-95631089D01*
X122423590Y-95631089D02*
X122423590Y-94631089D01*
X122423590Y-94631089D02*
X122899780Y-94631089D01*
X123661685Y-95107279D02*
X123328352Y-95107279D01*
X123328352Y-95631089D02*
X123328352Y-94631089D01*
X123328352Y-94631089D02*
X123804542Y-94631089D01*
X131803884Y-113372419D02*
X131803884Y-112372419D01*
X131803884Y-112372419D02*
X132041979Y-112372419D01*
X132041979Y-112372419D02*
X132184836Y-112420038D01*
X132184836Y-112420038D02*
X132280074Y-112515276D01*
X132280074Y-112515276D02*
X132327693Y-112610514D01*
X132327693Y-112610514D02*
X132375312Y-112800990D01*
X132375312Y-112800990D02*
X132375312Y-112943847D01*
X132375312Y-112943847D02*
X132327693Y-113134323D01*
X132327693Y-113134323D02*
X132280074Y-113229561D01*
X132280074Y-113229561D02*
X132184836Y-113324800D01*
X132184836Y-113324800D02*
X132041979Y-113372419D01*
X132041979Y-113372419D02*
X131803884Y-113372419D01*
X132708646Y-112372419D02*
X133327693Y-112372419D01*
X133327693Y-112372419D02*
X132994360Y-112753371D01*
X132994360Y-112753371D02*
X133137217Y-112753371D01*
X133137217Y-112753371D02*
X133232455Y-112800990D01*
X133232455Y-112800990D02*
X133280074Y-112848609D01*
X133280074Y-112848609D02*
X133327693Y-112943847D01*
X133327693Y-112943847D02*
X133327693Y-113181942D01*
X133327693Y-113181942D02*
X133280074Y-113277180D01*
X133280074Y-113277180D02*
X133232455Y-113324800D01*
X133232455Y-113324800D02*
X133137217Y-113372419D01*
X133137217Y-113372419D02*
X132851503Y-113372419D01*
X132851503Y-113372419D02*
X132756265Y-113324800D01*
X132756265Y-113324800D02*
X132708646Y-113277180D01*
X131875312Y-120872419D02*
X131541979Y-120396228D01*
X131303884Y-120872419D02*
X131303884Y-119872419D01*
X131303884Y-119872419D02*
X131684836Y-119872419D01*
X131684836Y-119872419D02*
X131780074Y-119920038D01*
X131780074Y-119920038D02*
X131827693Y-119967657D01*
X131827693Y-119967657D02*
X131875312Y-120062895D01*
X131875312Y-120062895D02*
X131875312Y-120205752D01*
X131875312Y-120205752D02*
X131827693Y-120300990D01*
X131827693Y-120300990D02*
X131780074Y-120348609D01*
X131780074Y-120348609D02*
X131684836Y-120396228D01*
X131684836Y-120396228D02*
X131303884Y-120396228D01*
X132256265Y-120824800D02*
X132399122Y-120872419D01*
X132399122Y-120872419D02*
X132637217Y-120872419D01*
X132637217Y-120872419D02*
X132732455Y-120824800D01*
X132732455Y-120824800D02*
X132780074Y-120777180D01*
X132780074Y-120777180D02*
X132827693Y-120681942D01*
X132827693Y-120681942D02*
X132827693Y-120586704D01*
X132827693Y-120586704D02*
X132780074Y-120491466D01*
X132780074Y-120491466D02*
X132732455Y-120443847D01*
X132732455Y-120443847D02*
X132637217Y-120396228D01*
X132637217Y-120396228D02*
X132446741Y-120348609D01*
X132446741Y-120348609D02*
X132351503Y-120300990D01*
X132351503Y-120300990D02*
X132303884Y-120253371D01*
X132303884Y-120253371D02*
X132256265Y-120158133D01*
X132256265Y-120158133D02*
X132256265Y-120062895D01*
X132256265Y-120062895D02*
X132303884Y-119967657D01*
X132303884Y-119967657D02*
X132351503Y-119920038D01*
X132351503Y-119920038D02*
X132446741Y-119872419D01*
X132446741Y-119872419D02*
X132684836Y-119872419D01*
X132684836Y-119872419D02*
X132827693Y-119920038D01*
X133113408Y-119872419D02*
X133684836Y-119872419D01*
X133399122Y-120872419D02*
X133399122Y-119872419D01*
X121460595Y-105375905D02*
X121936785Y-105375905D01*
X121365357Y-105661620D02*
X121698690Y-104661620D01*
X121698690Y-104661620D02*
X122032023Y-105661620D01*
X122270119Y-104661620D02*
X122889166Y-104661620D01*
X122889166Y-104661620D02*
X122555833Y-105042572D01*
X122555833Y-105042572D02*
X122698690Y-105042572D01*
X122698690Y-105042572D02*
X122793928Y-105090191D01*
X122793928Y-105090191D02*
X122841547Y-105137810D01*
X122841547Y-105137810D02*
X122889166Y-105233048D01*
X122889166Y-105233048D02*
X122889166Y-105471143D01*
X122889166Y-105471143D02*
X122841547Y-105566381D01*
X122841547Y-105566381D02*
X122793928Y-105614001D01*
X122793928Y-105614001D02*
X122698690Y-105661620D01*
X122698690Y-105661620D02*
X122412976Y-105661620D01*
X122412976Y-105661620D02*
X122317738Y-105614001D01*
X122317738Y-105614001D02*
X122270119Y-105566381D01*
X131803884Y-115872419D02*
X131803884Y-114872419D01*
X131803884Y-114872419D02*
X132041979Y-114872419D01*
X132041979Y-114872419D02*
X132184836Y-114920038D01*
X132184836Y-114920038D02*
X132280074Y-115015276D01*
X132280074Y-115015276D02*
X132327693Y-115110514D01*
X132327693Y-115110514D02*
X132375312Y-115300990D01*
X132375312Y-115300990D02*
X132375312Y-115443847D01*
X132375312Y-115443847D02*
X132327693Y-115634323D01*
X132327693Y-115634323D02*
X132280074Y-115729561D01*
X132280074Y-115729561D02*
X132184836Y-115824800D01*
X132184836Y-115824800D02*
X132041979Y-115872419D01*
X132041979Y-115872419D02*
X131803884Y-115872419D01*
X132756265Y-114967657D02*
X132803884Y-114920038D01*
X132803884Y-114920038D02*
X132899122Y-114872419D01*
X132899122Y-114872419D02*
X133137217Y-114872419D01*
X133137217Y-114872419D02*
X133232455Y-114920038D01*
X133232455Y-114920038D02*
X133280074Y-114967657D01*
X133280074Y-114967657D02*
X133327693Y-115062895D01*
X133327693Y-115062895D02*
X133327693Y-115158133D01*
X133327693Y-115158133D02*
X133280074Y-115300990D01*
X133280074Y-115300990D02*
X132708646Y-115872419D01*
X132708646Y-115872419D02*
X133327693Y-115872419D01*
X121315163Y-110586704D02*
X121791353Y-110586704D01*
X121219925Y-110872419D02*
X121553258Y-109872419D01*
X121553258Y-109872419D02*
X121886591Y-110872419D01*
X122696115Y-109872419D02*
X122219925Y-109872419D01*
X122219925Y-109872419D02*
X122172306Y-110348609D01*
X122172306Y-110348609D02*
X122219925Y-110300990D01*
X122219925Y-110300990D02*
X122315163Y-110253371D01*
X122315163Y-110253371D02*
X122553258Y-110253371D01*
X122553258Y-110253371D02*
X122648496Y-110300990D01*
X122648496Y-110300990D02*
X122696115Y-110348609D01*
X122696115Y-110348609D02*
X122743734Y-110443847D01*
X122743734Y-110443847D02*
X122743734Y-110681942D01*
X122743734Y-110681942D02*
X122696115Y-110777180D01*
X122696115Y-110777180D02*
X122648496Y-110824800D01*
X122648496Y-110824800D02*
X122553258Y-110872419D01*
X122553258Y-110872419D02*
X122315163Y-110872419D01*
X122315163Y-110872419D02*
X122219925Y-110824800D01*
X122219925Y-110824800D02*
X122172306Y-110777180D01*
X122029448Y-120872419D02*
X121696115Y-120396228D01*
X121458020Y-120872419D02*
X121458020Y-119872419D01*
X121458020Y-119872419D02*
X121838972Y-119872419D01*
X121838972Y-119872419D02*
X121934210Y-119920038D01*
X121934210Y-119920038D02*
X121981829Y-119967657D01*
X121981829Y-119967657D02*
X122029448Y-120062895D01*
X122029448Y-120062895D02*
X122029448Y-120205752D01*
X122029448Y-120205752D02*
X121981829Y-120300990D01*
X121981829Y-120300990D02*
X121934210Y-120348609D01*
X121934210Y-120348609D02*
X121838972Y-120396228D01*
X121838972Y-120396228D02*
X121458020Y-120396228D01*
X122410401Y-120824800D02*
X122553258Y-120872419D01*
X122553258Y-120872419D02*
X122791353Y-120872419D01*
X122791353Y-120872419D02*
X122886591Y-120824800D01*
X122886591Y-120824800D02*
X122934210Y-120777180D01*
X122934210Y-120777180D02*
X122981829Y-120681942D01*
X122981829Y-120681942D02*
X122981829Y-120586704D01*
X122981829Y-120586704D02*
X122934210Y-120491466D01*
X122934210Y-120491466D02*
X122886591Y-120443847D01*
X122886591Y-120443847D02*
X122791353Y-120396228D01*
X122791353Y-120396228D02*
X122600877Y-120348609D01*
X122600877Y-120348609D02*
X122505639Y-120300990D01*
X122505639Y-120300990D02*
X122458020Y-120253371D01*
X122458020Y-120253371D02*
X122410401Y-120158133D01*
X122410401Y-120158133D02*
X122410401Y-120062895D01*
X122410401Y-120062895D02*
X122458020Y-119967657D01*
X122458020Y-119967657D02*
X122505639Y-119920038D01*
X122505639Y-119920038D02*
X122600877Y-119872419D01*
X122600877Y-119872419D02*
X122838972Y-119872419D01*
X122838972Y-119872419D02*
X122981829Y-119920038D01*
X123267544Y-119872419D02*
X123838972Y-119872419D01*
X123553258Y-120872419D02*
X123553258Y-119872419D01*
X121460595Y-107965181D02*
X121936785Y-107965181D01*
X121365357Y-108250896D02*
X121698690Y-107250896D01*
X121698690Y-107250896D02*
X122032023Y-108250896D01*
X122793928Y-107584229D02*
X122793928Y-108250896D01*
X122555833Y-107203277D02*
X122317738Y-107917562D01*
X122317738Y-107917562D02*
X122936785Y-107917562D01*
X121838972Y-117372419D02*
X121362782Y-117372419D01*
X121362782Y-117372419D02*
X121315163Y-117848609D01*
X121315163Y-117848609D02*
X121362782Y-117800990D01*
X121362782Y-117800990D02*
X121458020Y-117753371D01*
X121458020Y-117753371D02*
X121696115Y-117753371D01*
X121696115Y-117753371D02*
X121791353Y-117800990D01*
X121791353Y-117800990D02*
X121838972Y-117848609D01*
X121838972Y-117848609D02*
X121886591Y-117943847D01*
X121886591Y-117943847D02*
X121886591Y-118181942D01*
X121886591Y-118181942D02*
X121838972Y-118277180D01*
X121838972Y-118277180D02*
X121791353Y-118324800D01*
X121791353Y-118324800D02*
X121696115Y-118372419D01*
X121696115Y-118372419D02*
X121458020Y-118372419D01*
X121458020Y-118372419D02*
X121362782Y-118324800D01*
X121362782Y-118324800D02*
X121315163Y-118277180D01*
X122172306Y-117372419D02*
X122505639Y-118372419D01*
X122505639Y-118372419D02*
X122838972Y-117372419D01*
X131161027Y-124872419D02*
X131732455Y-124872419D01*
X131446741Y-125872419D02*
X131446741Y-124872419D01*
X131970551Y-124872419D02*
X132637217Y-125872419D01*
X132637217Y-124872419D02*
X131970551Y-125872419D01*
X133541979Y-125872419D02*
X132970551Y-125872419D01*
X133256265Y-125872419D02*
X133256265Y-124872419D01*
X133256265Y-124872419D02*
X133161027Y-125015276D01*
X133161027Y-125015276D02*
X133065789Y-125110514D01*
X133065789Y-125110514D02*
X132970551Y-125158133D01*
X131803884Y-105872419D02*
X131803884Y-104872419D01*
X131803884Y-104872419D02*
X132041979Y-104872419D01*
X132041979Y-104872419D02*
X132184836Y-104920038D01*
X132184836Y-104920038D02*
X132280074Y-105015276D01*
X132280074Y-105015276D02*
X132327693Y-105110514D01*
X132327693Y-105110514D02*
X132375312Y-105300990D01*
X132375312Y-105300990D02*
X132375312Y-105443847D01*
X132375312Y-105443847D02*
X132327693Y-105634323D01*
X132327693Y-105634323D02*
X132280074Y-105729561D01*
X132280074Y-105729561D02*
X132184836Y-105824800D01*
X132184836Y-105824800D02*
X132041979Y-105872419D01*
X132041979Y-105872419D02*
X131803884Y-105872419D01*
X133232455Y-104872419D02*
X133041979Y-104872419D01*
X133041979Y-104872419D02*
X132946741Y-104920038D01*
X132946741Y-104920038D02*
X132899122Y-104967657D01*
X132899122Y-104967657D02*
X132803884Y-105110514D01*
X132803884Y-105110514D02*
X132756265Y-105300990D01*
X132756265Y-105300990D02*
X132756265Y-105681942D01*
X132756265Y-105681942D02*
X132803884Y-105777180D01*
X132803884Y-105777180D02*
X132851503Y-105824800D01*
X132851503Y-105824800D02*
X132946741Y-105872419D01*
X132946741Y-105872419D02*
X133137217Y-105872419D01*
X133137217Y-105872419D02*
X133232455Y-105824800D01*
X133232455Y-105824800D02*
X133280074Y-105777180D01*
X133280074Y-105777180D02*
X133327693Y-105681942D01*
X133327693Y-105681942D02*
X133327693Y-105443847D01*
X133327693Y-105443847D02*
X133280074Y-105348609D01*
X133280074Y-105348609D02*
X133232455Y-105300990D01*
X133232455Y-105300990D02*
X133137217Y-105253371D01*
X133137217Y-105253371D02*
X132946741Y-105253371D01*
X132946741Y-105253371D02*
X132851503Y-105300990D01*
X132851503Y-105300990D02*
X132803884Y-105348609D01*
X132803884Y-105348609D02*
X132756265Y-105443847D01*
X121315163Y-113086704D02*
X121791353Y-113086704D01*
X121219925Y-113372419D02*
X121553258Y-112372419D01*
X121553258Y-112372419D02*
X121886591Y-113372419D01*
X122648496Y-112372419D02*
X122458020Y-112372419D01*
X122458020Y-112372419D02*
X122362782Y-112420038D01*
X122362782Y-112420038D02*
X122315163Y-112467657D01*
X122315163Y-112467657D02*
X122219925Y-112610514D01*
X122219925Y-112610514D02*
X122172306Y-112800990D01*
X122172306Y-112800990D02*
X122172306Y-113181942D01*
X122172306Y-113181942D02*
X122219925Y-113277180D01*
X122219925Y-113277180D02*
X122267544Y-113324800D01*
X122267544Y-113324800D02*
X122362782Y-113372419D01*
X122362782Y-113372419D02*
X122553258Y-113372419D01*
X122553258Y-113372419D02*
X122648496Y-113324800D01*
X122648496Y-113324800D02*
X122696115Y-113277180D01*
X122696115Y-113277180D02*
X122743734Y-113181942D01*
X122743734Y-113181942D02*
X122743734Y-112943847D01*
X122743734Y-112943847D02*
X122696115Y-112848609D01*
X122696115Y-112848609D02*
X122648496Y-112800990D01*
X122648496Y-112800990D02*
X122553258Y-112753371D01*
X122553258Y-112753371D02*
X122362782Y-112753371D01*
X122362782Y-112753371D02*
X122267544Y-112800990D01*
X122267544Y-112800990D02*
X122219925Y-112848609D01*
X122219925Y-112848609D02*
X122172306Y-112943847D01*
X131803884Y-108372419D02*
X131803884Y-107372419D01*
X131803884Y-107372419D02*
X132041979Y-107372419D01*
X132041979Y-107372419D02*
X132184836Y-107420038D01*
X132184836Y-107420038D02*
X132280074Y-107515276D01*
X132280074Y-107515276D02*
X132327693Y-107610514D01*
X132327693Y-107610514D02*
X132375312Y-107800990D01*
X132375312Y-107800990D02*
X132375312Y-107943847D01*
X132375312Y-107943847D02*
X132327693Y-108134323D01*
X132327693Y-108134323D02*
X132280074Y-108229561D01*
X132280074Y-108229561D02*
X132184836Y-108324800D01*
X132184836Y-108324800D02*
X132041979Y-108372419D01*
X132041979Y-108372419D02*
X131803884Y-108372419D01*
X133280074Y-107372419D02*
X132803884Y-107372419D01*
X132803884Y-107372419D02*
X132756265Y-107848609D01*
X132756265Y-107848609D02*
X132803884Y-107800990D01*
X132803884Y-107800990D02*
X132899122Y-107753371D01*
X132899122Y-107753371D02*
X133137217Y-107753371D01*
X133137217Y-107753371D02*
X133232455Y-107800990D01*
X133232455Y-107800990D02*
X133280074Y-107848609D01*
X133280074Y-107848609D02*
X133327693Y-107943847D01*
X133327693Y-107943847D02*
X133327693Y-108181942D01*
X133327693Y-108181942D02*
X133280074Y-108277180D01*
X133280074Y-108277180D02*
X133232455Y-108324800D01*
X133232455Y-108324800D02*
X133137217Y-108372419D01*
X133137217Y-108372419D02*
X132899122Y-108372419D01*
X132899122Y-108372419D02*
X132803884Y-108324800D01*
X132803884Y-108324800D02*
X132756265Y-108277180D01*
X131803884Y-110872419D02*
X131803884Y-109872419D01*
X131803884Y-109872419D02*
X132041979Y-109872419D01*
X132041979Y-109872419D02*
X132184836Y-109920038D01*
X132184836Y-109920038D02*
X132280074Y-110015276D01*
X132280074Y-110015276D02*
X132327693Y-110110514D01*
X132327693Y-110110514D02*
X132375312Y-110300990D01*
X132375312Y-110300990D02*
X132375312Y-110443847D01*
X132375312Y-110443847D02*
X132327693Y-110634323D01*
X132327693Y-110634323D02*
X132280074Y-110729561D01*
X132280074Y-110729561D02*
X132184836Y-110824800D01*
X132184836Y-110824800D02*
X132041979Y-110872419D01*
X132041979Y-110872419D02*
X131803884Y-110872419D01*
X133232455Y-110205752D02*
X133232455Y-110872419D01*
X132994360Y-109824800D02*
X132756265Y-110539085D01*
X132756265Y-110539085D02*
X133375312Y-110539085D01*
X131171468Y-90436062D02*
X131171468Y-89436062D01*
X131171468Y-89436062D02*
X131409563Y-89436062D01*
X131409563Y-89436062D02*
X131552420Y-89483681D01*
X131552420Y-89483681D02*
X131647658Y-89578919D01*
X131647658Y-89578919D02*
X131695277Y-89674157D01*
X131695277Y-89674157D02*
X131742896Y-89864633D01*
X131742896Y-89864633D02*
X131742896Y-90007490D01*
X131742896Y-90007490D02*
X131695277Y-90197966D01*
X131695277Y-90197966D02*
X131647658Y-90293204D01*
X131647658Y-90293204D02*
X131552420Y-90388443D01*
X131552420Y-90388443D02*
X131409563Y-90436062D01*
X131409563Y-90436062D02*
X131171468Y-90436062D01*
X132695277Y-90436062D02*
X132123849Y-90436062D01*
X132409563Y-90436062D02*
X132409563Y-89436062D01*
X132409563Y-89436062D02*
X132314325Y-89578919D01*
X132314325Y-89578919D02*
X132219087Y-89674157D01*
X132219087Y-89674157D02*
X132123849Y-89721776D01*
X133076230Y-89531300D02*
X133123849Y-89483681D01*
X133123849Y-89483681D02*
X133219087Y-89436062D01*
X133219087Y-89436062D02*
X133457182Y-89436062D01*
X133457182Y-89436062D02*
X133552420Y-89483681D01*
X133552420Y-89483681D02*
X133600039Y-89531300D01*
X133600039Y-89531300D02*
X133647658Y-89626538D01*
X133647658Y-89626538D02*
X133647658Y-89721776D01*
X133647658Y-89721776D02*
X133600039Y-89864633D01*
X133600039Y-89864633D02*
X133028611Y-90436062D01*
X133028611Y-90436062D02*
X133647658Y-90436062D01*
X131129998Y-93214545D02*
X131129998Y-92214545D01*
X131129998Y-92214545D02*
X131368093Y-92214545D01*
X131368093Y-92214545D02*
X131510950Y-92262164D01*
X131510950Y-92262164D02*
X131606188Y-92357402D01*
X131606188Y-92357402D02*
X131653807Y-92452640D01*
X131653807Y-92452640D02*
X131701426Y-92643116D01*
X131701426Y-92643116D02*
X131701426Y-92785973D01*
X131701426Y-92785973D02*
X131653807Y-92976449D01*
X131653807Y-92976449D02*
X131606188Y-93071687D01*
X131606188Y-93071687D02*
X131510950Y-93166926D01*
X131510950Y-93166926D02*
X131368093Y-93214545D01*
X131368093Y-93214545D02*
X131129998Y-93214545D01*
X132653807Y-93214545D02*
X132082379Y-93214545D01*
X132368093Y-93214545D02*
X132368093Y-92214545D01*
X132368093Y-92214545D02*
X132272855Y-92357402D01*
X132272855Y-92357402D02*
X132177617Y-92452640D01*
X132177617Y-92452640D02*
X132082379Y-92500259D01*
X133606188Y-93214545D02*
X133034760Y-93214545D01*
X133320474Y-93214545D02*
X133320474Y-92214545D01*
X133320474Y-92214545D02*
X133225236Y-92357402D01*
X133225236Y-92357402D02*
X133129998Y-92452640D01*
X133129998Y-92452640D02*
X133034760Y-92500259D01*
X121430270Y-97566430D02*
X121906460Y-97566430D01*
X121335032Y-97852145D02*
X121668365Y-96852145D01*
X121668365Y-96852145D02*
X122001698Y-97852145D01*
X122525508Y-96852145D02*
X122620746Y-96852145D01*
X122620746Y-96852145D02*
X122715984Y-96899764D01*
X122715984Y-96899764D02*
X122763603Y-96947383D01*
X122763603Y-96947383D02*
X122811222Y-97042621D01*
X122811222Y-97042621D02*
X122858841Y-97233097D01*
X122858841Y-97233097D02*
X122858841Y-97471192D01*
X122858841Y-97471192D02*
X122811222Y-97661668D01*
X122811222Y-97661668D02*
X122763603Y-97756906D01*
X122763603Y-97756906D02*
X122715984Y-97804526D01*
X122715984Y-97804526D02*
X122620746Y-97852145D01*
X122620746Y-97852145D02*
X122525508Y-97852145D01*
X122525508Y-97852145D02*
X122430270Y-97804526D01*
X122430270Y-97804526D02*
X122382651Y-97756906D01*
X122382651Y-97756906D02*
X122335032Y-97661668D01*
X122335032Y-97661668D02*
X122287413Y-97471192D01*
X122287413Y-97471192D02*
X122287413Y-97233097D01*
X122287413Y-97233097D02*
X122335032Y-97042621D01*
X122335032Y-97042621D02*
X122382651Y-96947383D01*
X122382651Y-96947383D02*
X122430270Y-96899764D01*
X122430270Y-96899764D02*
X122525508Y-96852145D01*
X121420694Y-90452536D02*
X121420694Y-89452536D01*
X121420694Y-89452536D02*
X121658789Y-89452536D01*
X121658789Y-89452536D02*
X121801646Y-89500155D01*
X121801646Y-89500155D02*
X121896884Y-89595393D01*
X121896884Y-89595393D02*
X121944503Y-89690631D01*
X121944503Y-89690631D02*
X121992122Y-89881107D01*
X121992122Y-89881107D02*
X121992122Y-90023964D01*
X121992122Y-90023964D02*
X121944503Y-90214440D01*
X121944503Y-90214440D02*
X121896884Y-90309678D01*
X121896884Y-90309678D02*
X121801646Y-90404917D01*
X121801646Y-90404917D02*
X121658789Y-90452536D01*
X121658789Y-90452536D02*
X121420694Y-90452536D01*
X122944503Y-90452536D02*
X122373075Y-90452536D01*
X122658789Y-90452536D02*
X122658789Y-89452536D01*
X122658789Y-89452536D02*
X122563551Y-89595393D01*
X122563551Y-89595393D02*
X122468313Y-89690631D01*
X122468313Y-89690631D02*
X122373075Y-89738250D01*
X123277837Y-89452536D02*
X123896884Y-89452536D01*
X123896884Y-89452536D02*
X123563551Y-89833488D01*
X123563551Y-89833488D02*
X123706408Y-89833488D01*
X123706408Y-89833488D02*
X123801646Y-89881107D01*
X123801646Y-89881107D02*
X123849265Y-89928726D01*
X123849265Y-89928726D02*
X123896884Y-90023964D01*
X123896884Y-90023964D02*
X123896884Y-90262059D01*
X123896884Y-90262059D02*
X123849265Y-90357297D01*
X123849265Y-90357297D02*
X123801646Y-90404917D01*
X123801646Y-90404917D02*
X123706408Y-90452536D01*
X123706408Y-90452536D02*
X123420694Y-90452536D01*
X123420694Y-90452536D02*
X123325456Y-90404917D01*
X123325456Y-90404917D02*
X123277837Y-90357297D01*
X121437268Y-102903262D02*
X121913458Y-102903262D01*
X121342030Y-103188977D02*
X121675363Y-102188977D01*
X121675363Y-102188977D02*
X122008696Y-103188977D01*
X122294411Y-102284215D02*
X122342030Y-102236596D01*
X122342030Y-102236596D02*
X122437268Y-102188977D01*
X122437268Y-102188977D02*
X122675363Y-102188977D01*
X122675363Y-102188977D02*
X122770601Y-102236596D01*
X122770601Y-102236596D02*
X122818220Y-102284215D01*
X122818220Y-102284215D02*
X122865839Y-102379453D01*
X122865839Y-102379453D02*
X122865839Y-102474691D01*
X122865839Y-102474691D02*
X122818220Y-102617548D01*
X122818220Y-102617548D02*
X122246792Y-103188977D01*
X122246792Y-103188977D02*
X122865839Y-103188977D01*
X131078160Y-95723474D02*
X131078160Y-94723474D01*
X131078160Y-94723474D02*
X131316255Y-94723474D01*
X131316255Y-94723474D02*
X131459112Y-94771093D01*
X131459112Y-94771093D02*
X131554350Y-94866331D01*
X131554350Y-94866331D02*
X131601969Y-94961569D01*
X131601969Y-94961569D02*
X131649588Y-95152045D01*
X131649588Y-95152045D02*
X131649588Y-95294902D01*
X131649588Y-95294902D02*
X131601969Y-95485378D01*
X131601969Y-95485378D02*
X131554350Y-95580616D01*
X131554350Y-95580616D02*
X131459112Y-95675855D01*
X131459112Y-95675855D02*
X131316255Y-95723474D01*
X131316255Y-95723474D02*
X131078160Y-95723474D01*
X132601969Y-95723474D02*
X132030541Y-95723474D01*
X132316255Y-95723474D02*
X132316255Y-94723474D01*
X132316255Y-94723474D02*
X132221017Y-94866331D01*
X132221017Y-94866331D02*
X132125779Y-94961569D01*
X132125779Y-94961569D02*
X132030541Y-95009188D01*
X133221017Y-94723474D02*
X133316255Y-94723474D01*
X133316255Y-94723474D02*
X133411493Y-94771093D01*
X133411493Y-94771093D02*
X133459112Y-94818712D01*
X133459112Y-94818712D02*
X133506731Y-94913950D01*
X133506731Y-94913950D02*
X133554350Y-95104426D01*
X133554350Y-95104426D02*
X133554350Y-95342521D01*
X133554350Y-95342521D02*
X133506731Y-95532997D01*
X133506731Y-95532997D02*
X133459112Y-95628235D01*
X133459112Y-95628235D02*
X133411493Y-95675855D01*
X133411493Y-95675855D02*
X133316255Y-95723474D01*
X133316255Y-95723474D02*
X133221017Y-95723474D01*
X133221017Y-95723474D02*
X133125779Y-95675855D01*
X133125779Y-95675855D02*
X133078160Y-95628235D01*
X133078160Y-95628235D02*
X133030541Y-95532997D01*
X133030541Y-95532997D02*
X132982922Y-95342521D01*
X132982922Y-95342521D02*
X132982922Y-95104426D01*
X132982922Y-95104426D02*
X133030541Y-94913950D01*
X133030541Y-94913950D02*
X133078160Y-94818712D01*
X133078160Y-94818712D02*
X133125779Y-94771093D01*
X133125779Y-94771093D02*
X133221017Y-94723474D01*
X131803884Y-98372419D02*
X131803884Y-97372419D01*
X131803884Y-97372419D02*
X132041979Y-97372419D01*
X132041979Y-97372419D02*
X132184836Y-97420038D01*
X132184836Y-97420038D02*
X132280074Y-97515276D01*
X132280074Y-97515276D02*
X132327693Y-97610514D01*
X132327693Y-97610514D02*
X132375312Y-97800990D01*
X132375312Y-97800990D02*
X132375312Y-97943847D01*
X132375312Y-97943847D02*
X132327693Y-98134323D01*
X132327693Y-98134323D02*
X132280074Y-98229561D01*
X132280074Y-98229561D02*
X132184836Y-98324800D01*
X132184836Y-98324800D02*
X132041979Y-98372419D01*
X132041979Y-98372419D02*
X131803884Y-98372419D01*
X132851503Y-98372419D02*
X133041979Y-98372419D01*
X133041979Y-98372419D02*
X133137217Y-98324800D01*
X133137217Y-98324800D02*
X133184836Y-98277180D01*
X133184836Y-98277180D02*
X133280074Y-98134323D01*
X133280074Y-98134323D02*
X133327693Y-97943847D01*
X133327693Y-97943847D02*
X133327693Y-97562895D01*
X133327693Y-97562895D02*
X133280074Y-97467657D01*
X133280074Y-97467657D02*
X133232455Y-97420038D01*
X133232455Y-97420038D02*
X133137217Y-97372419D01*
X133137217Y-97372419D02*
X132946741Y-97372419D01*
X132946741Y-97372419D02*
X132851503Y-97420038D01*
X132851503Y-97420038D02*
X132803884Y-97467657D01*
X132803884Y-97467657D02*
X132756265Y-97562895D01*
X132756265Y-97562895D02*
X132756265Y-97800990D01*
X132756265Y-97800990D02*
X132803884Y-97896228D01*
X132803884Y-97896228D02*
X132851503Y-97943847D01*
X132851503Y-97943847D02*
X132946741Y-97991466D01*
X132946741Y-97991466D02*
X133137217Y-97991466D01*
X133137217Y-97991466D02*
X133232455Y-97943847D01*
X133232455Y-97943847D02*
X133280074Y-97896228D01*
X133280074Y-97896228D02*
X133327693Y-97800990D01*
X122148496Y-122420038D02*
X122053258Y-122372419D01*
X122053258Y-122372419D02*
X121910401Y-122372419D01*
X121910401Y-122372419D02*
X121767544Y-122420038D01*
X121767544Y-122420038D02*
X121672306Y-122515276D01*
X121672306Y-122515276D02*
X121624687Y-122610514D01*
X121624687Y-122610514D02*
X121577068Y-122800990D01*
X121577068Y-122800990D02*
X121577068Y-122943847D01*
X121577068Y-122943847D02*
X121624687Y-123134323D01*
X121624687Y-123134323D02*
X121672306Y-123229561D01*
X121672306Y-123229561D02*
X121767544Y-123324800D01*
X121767544Y-123324800D02*
X121910401Y-123372419D01*
X121910401Y-123372419D02*
X122005639Y-123372419D01*
X122005639Y-123372419D02*
X122148496Y-123324800D01*
X122148496Y-123324800D02*
X122196115Y-123277180D01*
X122196115Y-123277180D02*
X122196115Y-122943847D01*
X122196115Y-122943847D02*
X122005639Y-122943847D01*
X122624687Y-123372419D02*
X122624687Y-122372419D01*
X122624687Y-122372419D02*
X123196115Y-123372419D01*
X123196115Y-123372419D02*
X123196115Y-122372419D01*
X123672306Y-123372419D02*
X123672306Y-122372419D01*
X123672306Y-122372419D02*
X123910401Y-122372419D01*
X123910401Y-122372419D02*
X124053258Y-122420038D01*
X124053258Y-122420038D02*
X124148496Y-122515276D01*
X124148496Y-122515276D02*
X124196115Y-122610514D01*
X124196115Y-122610514D02*
X124243734Y-122800990D01*
X124243734Y-122800990D02*
X124243734Y-122943847D01*
X124243734Y-122943847D02*
X124196115Y-123134323D01*
X124196115Y-123134323D02*
X124148496Y-123229561D01*
X124148496Y-123229561D02*
X124053258Y-123324800D01*
X124053258Y-123324800D02*
X123910401Y-123372419D01*
X123910401Y-123372419D02*
X123672306Y-123372419D01*
X121648497Y-124872419D02*
X121981830Y-125872419D01*
X121981830Y-125872419D02*
X122315163Y-124872419D01*
X122648497Y-125872419D02*
X122648497Y-124872419D01*
X123124687Y-125872419D02*
X123124687Y-124872419D01*
X123124687Y-124872419D02*
X123696115Y-125872419D01*
X123696115Y-125872419D02*
X123696115Y-124872419D01*
X121460595Y-100337312D02*
X121936785Y-100337312D01*
X121365357Y-100623027D02*
X121698690Y-99623027D01*
X121698690Y-99623027D02*
X122032023Y-100623027D01*
X122889166Y-100623027D02*
X122317738Y-100623027D01*
X122603452Y-100623027D02*
X122603452Y-99623027D01*
X122603452Y-99623027D02*
X122508214Y-99765884D01*
X122508214Y-99765884D02*
X122412976Y-99861122D01*
X122412976Y-99861122D02*
X122317738Y-99908741D01*
X131803884Y-103372419D02*
X131803884Y-102372419D01*
X131803884Y-102372419D02*
X132041979Y-102372419D01*
X132041979Y-102372419D02*
X132184836Y-102420038D01*
X132184836Y-102420038D02*
X132280074Y-102515276D01*
X132280074Y-102515276D02*
X132327693Y-102610514D01*
X132327693Y-102610514D02*
X132375312Y-102800990D01*
X132375312Y-102800990D02*
X132375312Y-102943847D01*
X132375312Y-102943847D02*
X132327693Y-103134323D01*
X132327693Y-103134323D02*
X132280074Y-103229561D01*
X132280074Y-103229561D02*
X132184836Y-103324800D01*
X132184836Y-103324800D02*
X132041979Y-103372419D01*
X132041979Y-103372419D02*
X131803884Y-103372419D01*
X132708646Y-102372419D02*
X133375312Y-102372419D01*
X133375312Y-102372419D02*
X132946741Y-103372419D01*
X131803884Y-100872419D02*
X131803884Y-99872419D01*
X131803884Y-99872419D02*
X132041979Y-99872419D01*
X132041979Y-99872419D02*
X132184836Y-99920038D01*
X132184836Y-99920038D02*
X132280074Y-100015276D01*
X132280074Y-100015276D02*
X132327693Y-100110514D01*
X132327693Y-100110514D02*
X132375312Y-100300990D01*
X132375312Y-100300990D02*
X132375312Y-100443847D01*
X132375312Y-100443847D02*
X132327693Y-100634323D01*
X132327693Y-100634323D02*
X132280074Y-100729561D01*
X132280074Y-100729561D02*
X132184836Y-100824800D01*
X132184836Y-100824800D02*
X132041979Y-100872419D01*
X132041979Y-100872419D02*
X131803884Y-100872419D01*
X132946741Y-100300990D02*
X132851503Y-100253371D01*
X132851503Y-100253371D02*
X132803884Y-100205752D01*
X132803884Y-100205752D02*
X132756265Y-100110514D01*
X132756265Y-100110514D02*
X132756265Y-100062895D01*
X132756265Y-100062895D02*
X132803884Y-99967657D01*
X132803884Y-99967657D02*
X132851503Y-99920038D01*
X132851503Y-99920038D02*
X132946741Y-99872419D01*
X132946741Y-99872419D02*
X133137217Y-99872419D01*
X133137217Y-99872419D02*
X133232455Y-99920038D01*
X133232455Y-99920038D02*
X133280074Y-99967657D01*
X133280074Y-99967657D02*
X133327693Y-100062895D01*
X133327693Y-100062895D02*
X133327693Y-100110514D01*
X133327693Y-100110514D02*
X133280074Y-100205752D01*
X133280074Y-100205752D02*
X133232455Y-100253371D01*
X133232455Y-100253371D02*
X133137217Y-100300990D01*
X133137217Y-100300990D02*
X132946741Y-100300990D01*
X132946741Y-100300990D02*
X132851503Y-100348609D01*
X132851503Y-100348609D02*
X132803884Y-100396228D01*
X132803884Y-100396228D02*
X132756265Y-100491466D01*
X132756265Y-100491466D02*
X132756265Y-100681942D01*
X132756265Y-100681942D02*
X132803884Y-100777180D01*
X132803884Y-100777180D02*
X132851503Y-100824800D01*
X132851503Y-100824800D02*
X132946741Y-100872419D01*
X132946741Y-100872419D02*
X133137217Y-100872419D01*
X133137217Y-100872419D02*
X133232455Y-100824800D01*
X133232455Y-100824800D02*
X133280074Y-100777180D01*
X133280074Y-100777180D02*
X133327693Y-100681942D01*
X133327693Y-100681942D02*
X133327693Y-100491466D01*
X133327693Y-100491466D02*
X133280074Y-100396228D01*
X133280074Y-100396228D02*
X133232455Y-100348609D01*
X133232455Y-100348609D02*
X133137217Y-100300990D01*
D13*
X142954819Y-124642857D02*
X142478628Y-124976190D01*
X142954819Y-125214285D02*
X141954819Y-125214285D01*
X141954819Y-125214285D02*
X141954819Y-124833333D01*
X141954819Y-124833333D02*
X142002438Y-124738095D01*
X142002438Y-124738095D02*
X142050057Y-124690476D01*
X142050057Y-124690476D02*
X142145295Y-124642857D01*
X142145295Y-124642857D02*
X142288152Y-124642857D01*
X142288152Y-124642857D02*
X142383390Y-124690476D01*
X142383390Y-124690476D02*
X142431009Y-124738095D01*
X142431009Y-124738095D02*
X142478628Y-124833333D01*
X142478628Y-124833333D02*
X142478628Y-125214285D01*
X142954819Y-123690476D02*
X142954819Y-124261904D01*
X142954819Y-123976190D02*
X141954819Y-123976190D01*
X141954819Y-123976190D02*
X142097676Y-124071428D01*
X142097676Y-124071428D02*
X142192914Y-124166666D01*
X142192914Y-124166666D02*
X142240533Y-124261904D01*
X142954819Y-122738095D02*
X142954819Y-123309523D01*
X142954819Y-123023809D02*
X141954819Y-123023809D01*
X141954819Y-123023809D02*
X142097676Y-123119047D01*
X142097676Y-123119047D02*
X142192914Y-123214285D01*
X142192914Y-123214285D02*
X142240533Y-123309523D01*
X176261905Y-117454819D02*
X176880952Y-117454819D01*
X176880952Y-117454819D02*
X176547619Y-117835771D01*
X176547619Y-117835771D02*
X176690476Y-117835771D01*
X176690476Y-117835771D02*
X176785714Y-117883390D01*
X176785714Y-117883390D02*
X176833333Y-117931009D01*
X176833333Y-117931009D02*
X176880952Y-118026247D01*
X176880952Y-118026247D02*
X176880952Y-118264342D01*
X176880952Y-118264342D02*
X176833333Y-118359580D01*
X176833333Y-118359580D02*
X176785714Y-118407200D01*
X176785714Y-118407200D02*
X176690476Y-118454819D01*
X176690476Y-118454819D02*
X176404762Y-118454819D01*
X176404762Y-118454819D02*
X176309524Y-118407200D01*
X176309524Y-118407200D02*
X176261905Y-118359580D01*
X177214286Y-117454819D02*
X177833333Y-117454819D01*
X177833333Y-117454819D02*
X177500000Y-117835771D01*
X177500000Y-117835771D02*
X177642857Y-117835771D01*
X177642857Y-117835771D02*
X177738095Y-117883390D01*
X177738095Y-117883390D02*
X177785714Y-117931009D01*
X177785714Y-117931009D02*
X177833333Y-118026247D01*
X177833333Y-118026247D02*
X177833333Y-118264342D01*
X177833333Y-118264342D02*
X177785714Y-118359580D01*
X177785714Y-118359580D02*
X177738095Y-118407200D01*
X177738095Y-118407200D02*
X177642857Y-118454819D01*
X177642857Y-118454819D02*
X177357143Y-118454819D01*
X177357143Y-118454819D02*
X177261905Y-118407200D01*
X177261905Y-118407200D02*
X177214286Y-118359580D01*
X178452381Y-117454819D02*
X178547619Y-117454819D01*
X178547619Y-117454819D02*
X178642857Y-117502438D01*
X178642857Y-117502438D02*
X178690476Y-117550057D01*
X178690476Y-117550057D02*
X178738095Y-117645295D01*
X178738095Y-117645295D02*
X178785714Y-117835771D01*
X178785714Y-117835771D02*
X178785714Y-118073866D01*
X178785714Y-118073866D02*
X178738095Y-118264342D01*
X178738095Y-118264342D02*
X178690476Y-118359580D01*
X178690476Y-118359580D02*
X178642857Y-118407200D01*
X178642857Y-118407200D02*
X178547619Y-118454819D01*
X178547619Y-118454819D02*
X178452381Y-118454819D01*
X178452381Y-118454819D02*
X178357143Y-118407200D01*
X178357143Y-118407200D02*
X178309524Y-118359580D01*
X178309524Y-118359580D02*
X178261905Y-118264342D01*
X178261905Y-118264342D02*
X178214286Y-118073866D01*
X178214286Y-118073866D02*
X178214286Y-117835771D01*
X178214286Y-117835771D02*
X178261905Y-117645295D01*
X178261905Y-117645295D02*
X178309524Y-117550057D01*
X178309524Y-117550057D02*
X178357143Y-117502438D01*
X178357143Y-117502438D02*
X178452381Y-117454819D01*
X179214286Y-117788152D02*
X179214286Y-118454819D01*
X179214286Y-117883390D02*
X179261905Y-117835771D01*
X179261905Y-117835771D02*
X179357143Y-117788152D01*
X179357143Y-117788152D02*
X179500000Y-117788152D01*
X179500000Y-117788152D02*
X179595238Y-117835771D01*
X179595238Y-117835771D02*
X179642857Y-117931009D01*
X179642857Y-117931009D02*
X179642857Y-118454819D01*
X176261905Y-103454819D02*
X176880952Y-103454819D01*
X176880952Y-103454819D02*
X176547619Y-103835771D01*
X176547619Y-103835771D02*
X176690476Y-103835771D01*
X176690476Y-103835771D02*
X176785714Y-103883390D01*
X176785714Y-103883390D02*
X176833333Y-103931009D01*
X176833333Y-103931009D02*
X176880952Y-104026247D01*
X176880952Y-104026247D02*
X176880952Y-104264342D01*
X176880952Y-104264342D02*
X176833333Y-104359580D01*
X176833333Y-104359580D02*
X176785714Y-104407200D01*
X176785714Y-104407200D02*
X176690476Y-104454819D01*
X176690476Y-104454819D02*
X176404762Y-104454819D01*
X176404762Y-104454819D02*
X176309524Y-104407200D01*
X176309524Y-104407200D02*
X176261905Y-104359580D01*
X177214286Y-103454819D02*
X177833333Y-103454819D01*
X177833333Y-103454819D02*
X177500000Y-103835771D01*
X177500000Y-103835771D02*
X177642857Y-103835771D01*
X177642857Y-103835771D02*
X177738095Y-103883390D01*
X177738095Y-103883390D02*
X177785714Y-103931009D01*
X177785714Y-103931009D02*
X177833333Y-104026247D01*
X177833333Y-104026247D02*
X177833333Y-104264342D01*
X177833333Y-104264342D02*
X177785714Y-104359580D01*
X177785714Y-104359580D02*
X177738095Y-104407200D01*
X177738095Y-104407200D02*
X177642857Y-104454819D01*
X177642857Y-104454819D02*
X177357143Y-104454819D01*
X177357143Y-104454819D02*
X177261905Y-104407200D01*
X177261905Y-104407200D02*
X177214286Y-104359580D01*
X178452381Y-103454819D02*
X178547619Y-103454819D01*
X178547619Y-103454819D02*
X178642857Y-103502438D01*
X178642857Y-103502438D02*
X178690476Y-103550057D01*
X178690476Y-103550057D02*
X178738095Y-103645295D01*
X178738095Y-103645295D02*
X178785714Y-103835771D01*
X178785714Y-103835771D02*
X178785714Y-104073866D01*
X178785714Y-104073866D02*
X178738095Y-104264342D01*
X178738095Y-104264342D02*
X178690476Y-104359580D01*
X178690476Y-104359580D02*
X178642857Y-104407200D01*
X178642857Y-104407200D02*
X178547619Y-104454819D01*
X178547619Y-104454819D02*
X178452381Y-104454819D01*
X178452381Y-104454819D02*
X178357143Y-104407200D01*
X178357143Y-104407200D02*
X178309524Y-104359580D01*
X178309524Y-104359580D02*
X178261905Y-104264342D01*
X178261905Y-104264342D02*
X178214286Y-104073866D01*
X178214286Y-104073866D02*
X178214286Y-103835771D01*
X178214286Y-103835771D02*
X178261905Y-103645295D01*
X178261905Y-103645295D02*
X178309524Y-103550057D01*
X178309524Y-103550057D02*
X178357143Y-103502438D01*
X178357143Y-103502438D02*
X178452381Y-103454819D01*
X179214286Y-103788152D02*
X179214286Y-104454819D01*
X179214286Y-103883390D02*
X179261905Y-103835771D01*
X179261905Y-103835771D02*
X179357143Y-103788152D01*
X179357143Y-103788152D02*
X179500000Y-103788152D01*
X179500000Y-103788152D02*
X179595238Y-103835771D01*
X179595238Y-103835771D02*
X179642857Y-103931009D01*
X179642857Y-103931009D02*
X179642857Y-104454819D01*
X175761905Y-89454819D02*
X176380952Y-89454819D01*
X176380952Y-89454819D02*
X176047619Y-89835771D01*
X176047619Y-89835771D02*
X176190476Y-89835771D01*
X176190476Y-89835771D02*
X176285714Y-89883390D01*
X176285714Y-89883390D02*
X176333333Y-89931009D01*
X176333333Y-89931009D02*
X176380952Y-90026247D01*
X176380952Y-90026247D02*
X176380952Y-90264342D01*
X176380952Y-90264342D02*
X176333333Y-90359580D01*
X176333333Y-90359580D02*
X176285714Y-90407200D01*
X176285714Y-90407200D02*
X176190476Y-90454819D01*
X176190476Y-90454819D02*
X175904762Y-90454819D01*
X175904762Y-90454819D02*
X175809524Y-90407200D01*
X175809524Y-90407200D02*
X175761905Y-90359580D01*
X176714286Y-89454819D02*
X177333333Y-89454819D01*
X177333333Y-89454819D02*
X177000000Y-89835771D01*
X177000000Y-89835771D02*
X177142857Y-89835771D01*
X177142857Y-89835771D02*
X177238095Y-89883390D01*
X177238095Y-89883390D02*
X177285714Y-89931009D01*
X177285714Y-89931009D02*
X177333333Y-90026247D01*
X177333333Y-90026247D02*
X177333333Y-90264342D01*
X177333333Y-90264342D02*
X177285714Y-90359580D01*
X177285714Y-90359580D02*
X177238095Y-90407200D01*
X177238095Y-90407200D02*
X177142857Y-90454819D01*
X177142857Y-90454819D02*
X176857143Y-90454819D01*
X176857143Y-90454819D02*
X176761905Y-90407200D01*
X176761905Y-90407200D02*
X176714286Y-90359580D01*
X177952381Y-89454819D02*
X178047619Y-89454819D01*
X178047619Y-89454819D02*
X178142857Y-89502438D01*
X178142857Y-89502438D02*
X178190476Y-89550057D01*
X178190476Y-89550057D02*
X178238095Y-89645295D01*
X178238095Y-89645295D02*
X178285714Y-89835771D01*
X178285714Y-89835771D02*
X178285714Y-90073866D01*
X178285714Y-90073866D02*
X178238095Y-90264342D01*
X178238095Y-90264342D02*
X178190476Y-90359580D01*
X178190476Y-90359580D02*
X178142857Y-90407200D01*
X178142857Y-90407200D02*
X178047619Y-90454819D01*
X178047619Y-90454819D02*
X177952381Y-90454819D01*
X177952381Y-90454819D02*
X177857143Y-90407200D01*
X177857143Y-90407200D02*
X177809524Y-90359580D01*
X177809524Y-90359580D02*
X177761905Y-90264342D01*
X177761905Y-90264342D02*
X177714286Y-90073866D01*
X177714286Y-90073866D02*
X177714286Y-89835771D01*
X177714286Y-89835771D02*
X177761905Y-89645295D01*
X177761905Y-89645295D02*
X177809524Y-89550057D01*
X177809524Y-89550057D02*
X177857143Y-89502438D01*
X177857143Y-89502438D02*
X177952381Y-89454819D01*
X178714286Y-89788152D02*
X178714286Y-90454819D01*
X178714286Y-89883390D02*
X178761905Y-89835771D01*
X178761905Y-89835771D02*
X178857143Y-89788152D01*
X178857143Y-89788152D02*
X179000000Y-89788152D01*
X179000000Y-89788152D02*
X179095238Y-89835771D01*
X179095238Y-89835771D02*
X179142857Y-89931009D01*
X179142857Y-89931009D02*
X179142857Y-90454819D01*
X171761905Y-117274819D02*
X172380952Y-117274819D01*
X172380952Y-117274819D02*
X172047619Y-117655771D01*
X172047619Y-117655771D02*
X172190476Y-117655771D01*
X172190476Y-117655771D02*
X172285714Y-117703390D01*
X172285714Y-117703390D02*
X172333333Y-117751009D01*
X172333333Y-117751009D02*
X172380952Y-117846247D01*
X172380952Y-117846247D02*
X172380952Y-118084342D01*
X172380952Y-118084342D02*
X172333333Y-118179580D01*
X172333333Y-118179580D02*
X172285714Y-118227200D01*
X172285714Y-118227200D02*
X172190476Y-118274819D01*
X172190476Y-118274819D02*
X171904762Y-118274819D01*
X171904762Y-118274819D02*
X171809524Y-118227200D01*
X171809524Y-118227200D02*
X171761905Y-118179580D01*
X172714286Y-117274819D02*
X173333333Y-117274819D01*
X173333333Y-117274819D02*
X173000000Y-117655771D01*
X173000000Y-117655771D02*
X173142857Y-117655771D01*
X173142857Y-117655771D02*
X173238095Y-117703390D01*
X173238095Y-117703390D02*
X173285714Y-117751009D01*
X173285714Y-117751009D02*
X173333333Y-117846247D01*
X173333333Y-117846247D02*
X173333333Y-118084342D01*
X173333333Y-118084342D02*
X173285714Y-118179580D01*
X173285714Y-118179580D02*
X173238095Y-118227200D01*
X173238095Y-118227200D02*
X173142857Y-118274819D01*
X173142857Y-118274819D02*
X172857143Y-118274819D01*
X172857143Y-118274819D02*
X172761905Y-118227200D01*
X172761905Y-118227200D02*
X172714286Y-118179580D01*
X173952381Y-117274819D02*
X174047619Y-117274819D01*
X174047619Y-117274819D02*
X174142857Y-117322438D01*
X174142857Y-117322438D02*
X174190476Y-117370057D01*
X174190476Y-117370057D02*
X174238095Y-117465295D01*
X174238095Y-117465295D02*
X174285714Y-117655771D01*
X174285714Y-117655771D02*
X174285714Y-117893866D01*
X174285714Y-117893866D02*
X174238095Y-118084342D01*
X174238095Y-118084342D02*
X174190476Y-118179580D01*
X174190476Y-118179580D02*
X174142857Y-118227200D01*
X174142857Y-118227200D02*
X174047619Y-118274819D01*
X174047619Y-118274819D02*
X173952381Y-118274819D01*
X173952381Y-118274819D02*
X173857143Y-118227200D01*
X173857143Y-118227200D02*
X173809524Y-118179580D01*
X173809524Y-118179580D02*
X173761905Y-118084342D01*
X173761905Y-118084342D02*
X173714286Y-117893866D01*
X173714286Y-117893866D02*
X173714286Y-117655771D01*
X173714286Y-117655771D02*
X173761905Y-117465295D01*
X173761905Y-117465295D02*
X173809524Y-117370057D01*
X173809524Y-117370057D02*
X173857143Y-117322438D01*
X173857143Y-117322438D02*
X173952381Y-117274819D01*
X174714286Y-117608152D02*
X174714286Y-118274819D01*
X174714286Y-117703390D02*
X174761905Y-117655771D01*
X174761905Y-117655771D02*
X174857143Y-117608152D01*
X174857143Y-117608152D02*
X175000000Y-117608152D01*
X175000000Y-117608152D02*
X175095238Y-117655771D01*
X175095238Y-117655771D02*
X175142857Y-117751009D01*
X175142857Y-117751009D02*
X175142857Y-118274819D01*
X171761905Y-103274819D02*
X172380952Y-103274819D01*
X172380952Y-103274819D02*
X172047619Y-103655771D01*
X172047619Y-103655771D02*
X172190476Y-103655771D01*
X172190476Y-103655771D02*
X172285714Y-103703390D01*
X172285714Y-103703390D02*
X172333333Y-103751009D01*
X172333333Y-103751009D02*
X172380952Y-103846247D01*
X172380952Y-103846247D02*
X172380952Y-104084342D01*
X172380952Y-104084342D02*
X172333333Y-104179580D01*
X172333333Y-104179580D02*
X172285714Y-104227200D01*
X172285714Y-104227200D02*
X172190476Y-104274819D01*
X172190476Y-104274819D02*
X171904762Y-104274819D01*
X171904762Y-104274819D02*
X171809524Y-104227200D01*
X171809524Y-104227200D02*
X171761905Y-104179580D01*
X172714286Y-103274819D02*
X173333333Y-103274819D01*
X173333333Y-103274819D02*
X173000000Y-103655771D01*
X173000000Y-103655771D02*
X173142857Y-103655771D01*
X173142857Y-103655771D02*
X173238095Y-103703390D01*
X173238095Y-103703390D02*
X173285714Y-103751009D01*
X173285714Y-103751009D02*
X173333333Y-103846247D01*
X173333333Y-103846247D02*
X173333333Y-104084342D01*
X173333333Y-104084342D02*
X173285714Y-104179580D01*
X173285714Y-104179580D02*
X173238095Y-104227200D01*
X173238095Y-104227200D02*
X173142857Y-104274819D01*
X173142857Y-104274819D02*
X172857143Y-104274819D01*
X172857143Y-104274819D02*
X172761905Y-104227200D01*
X172761905Y-104227200D02*
X172714286Y-104179580D01*
X173952381Y-103274819D02*
X174047619Y-103274819D01*
X174047619Y-103274819D02*
X174142857Y-103322438D01*
X174142857Y-103322438D02*
X174190476Y-103370057D01*
X174190476Y-103370057D02*
X174238095Y-103465295D01*
X174238095Y-103465295D02*
X174285714Y-103655771D01*
X174285714Y-103655771D02*
X174285714Y-103893866D01*
X174285714Y-103893866D02*
X174238095Y-104084342D01*
X174238095Y-104084342D02*
X174190476Y-104179580D01*
X174190476Y-104179580D02*
X174142857Y-104227200D01*
X174142857Y-104227200D02*
X174047619Y-104274819D01*
X174047619Y-104274819D02*
X173952381Y-104274819D01*
X173952381Y-104274819D02*
X173857143Y-104227200D01*
X173857143Y-104227200D02*
X173809524Y-104179580D01*
X173809524Y-104179580D02*
X173761905Y-104084342D01*
X173761905Y-104084342D02*
X173714286Y-103893866D01*
X173714286Y-103893866D02*
X173714286Y-103655771D01*
X173714286Y-103655771D02*
X173761905Y-103465295D01*
X173761905Y-103465295D02*
X173809524Y-103370057D01*
X173809524Y-103370057D02*
X173857143Y-103322438D01*
X173857143Y-103322438D02*
X173952381Y-103274819D01*
X174714286Y-103608152D02*
X174714286Y-104274819D01*
X174714286Y-103703390D02*
X174761905Y-103655771D01*
X174761905Y-103655771D02*
X174857143Y-103608152D01*
X174857143Y-103608152D02*
X175000000Y-103608152D01*
X175000000Y-103608152D02*
X175095238Y-103655771D01*
X175095238Y-103655771D02*
X175142857Y-103751009D01*
X175142857Y-103751009D02*
X175142857Y-104274819D01*
X171761905Y-89274819D02*
X172380952Y-89274819D01*
X172380952Y-89274819D02*
X172047619Y-89655771D01*
X172047619Y-89655771D02*
X172190476Y-89655771D01*
X172190476Y-89655771D02*
X172285714Y-89703390D01*
X172285714Y-89703390D02*
X172333333Y-89751009D01*
X172333333Y-89751009D02*
X172380952Y-89846247D01*
X172380952Y-89846247D02*
X172380952Y-90084342D01*
X172380952Y-90084342D02*
X172333333Y-90179580D01*
X172333333Y-90179580D02*
X172285714Y-90227200D01*
X172285714Y-90227200D02*
X172190476Y-90274819D01*
X172190476Y-90274819D02*
X171904762Y-90274819D01*
X171904762Y-90274819D02*
X171809524Y-90227200D01*
X171809524Y-90227200D02*
X171761905Y-90179580D01*
X172714286Y-89274819D02*
X173333333Y-89274819D01*
X173333333Y-89274819D02*
X173000000Y-89655771D01*
X173000000Y-89655771D02*
X173142857Y-89655771D01*
X173142857Y-89655771D02*
X173238095Y-89703390D01*
X173238095Y-89703390D02*
X173285714Y-89751009D01*
X173285714Y-89751009D02*
X173333333Y-89846247D01*
X173333333Y-89846247D02*
X173333333Y-90084342D01*
X173333333Y-90084342D02*
X173285714Y-90179580D01*
X173285714Y-90179580D02*
X173238095Y-90227200D01*
X173238095Y-90227200D02*
X173142857Y-90274819D01*
X173142857Y-90274819D02*
X172857143Y-90274819D01*
X172857143Y-90274819D02*
X172761905Y-90227200D01*
X172761905Y-90227200D02*
X172714286Y-90179580D01*
X173952381Y-89274819D02*
X174047619Y-89274819D01*
X174047619Y-89274819D02*
X174142857Y-89322438D01*
X174142857Y-89322438D02*
X174190476Y-89370057D01*
X174190476Y-89370057D02*
X174238095Y-89465295D01*
X174238095Y-89465295D02*
X174285714Y-89655771D01*
X174285714Y-89655771D02*
X174285714Y-89893866D01*
X174285714Y-89893866D02*
X174238095Y-90084342D01*
X174238095Y-90084342D02*
X174190476Y-90179580D01*
X174190476Y-90179580D02*
X174142857Y-90227200D01*
X174142857Y-90227200D02*
X174047619Y-90274819D01*
X174047619Y-90274819D02*
X173952381Y-90274819D01*
X173952381Y-90274819D02*
X173857143Y-90227200D01*
X173857143Y-90227200D02*
X173809524Y-90179580D01*
X173809524Y-90179580D02*
X173761905Y-90084342D01*
X173761905Y-90084342D02*
X173714286Y-89893866D01*
X173714286Y-89893866D02*
X173714286Y-89655771D01*
X173714286Y-89655771D02*
X173761905Y-89465295D01*
X173761905Y-89465295D02*
X173809524Y-89370057D01*
X173809524Y-89370057D02*
X173857143Y-89322438D01*
X173857143Y-89322438D02*
X173952381Y-89274819D01*
X174714286Y-89608152D02*
X174714286Y-90274819D01*
X174714286Y-89703390D02*
X174761905Y-89655771D01*
X174761905Y-89655771D02*
X174857143Y-89608152D01*
X174857143Y-89608152D02*
X175000000Y-89608152D01*
X175000000Y-89608152D02*
X175095238Y-89655771D01*
X175095238Y-89655771D02*
X175142857Y-89751009D01*
X175142857Y-89751009D02*
X175142857Y-90274819D01*
X144880952Y-98954819D02*
X144309524Y-98954819D01*
X144595238Y-98954819D02*
X144595238Y-97954819D01*
X144595238Y-97954819D02*
X144500000Y-98097676D01*
X144500000Y-98097676D02*
X144404762Y-98192914D01*
X144404762Y-98192914D02*
X144309524Y-98240533D01*
X145500000Y-97954819D02*
X145595238Y-97954819D01*
X145595238Y-97954819D02*
X145690476Y-98002438D01*
X145690476Y-98002438D02*
X145738095Y-98050057D01*
X145738095Y-98050057D02*
X145785714Y-98145295D01*
X145785714Y-98145295D02*
X145833333Y-98335771D01*
X145833333Y-98335771D02*
X145833333Y-98573866D01*
X145833333Y-98573866D02*
X145785714Y-98764342D01*
X145785714Y-98764342D02*
X145738095Y-98859580D01*
X145738095Y-98859580D02*
X145690476Y-98907200D01*
X145690476Y-98907200D02*
X145595238Y-98954819D01*
X145595238Y-98954819D02*
X145500000Y-98954819D01*
X145500000Y-98954819D02*
X145404762Y-98907200D01*
X145404762Y-98907200D02*
X145357143Y-98859580D01*
X145357143Y-98859580D02*
X145309524Y-98764342D01*
X145309524Y-98764342D02*
X145261905Y-98573866D01*
X145261905Y-98573866D02*
X145261905Y-98335771D01*
X145261905Y-98335771D02*
X145309524Y-98145295D01*
X145309524Y-98145295D02*
X145357143Y-98050057D01*
X145357143Y-98050057D02*
X145404762Y-98002438D01*
X145404762Y-98002438D02*
X145500000Y-97954819D01*
X146452381Y-97954819D02*
X146547619Y-97954819D01*
X146547619Y-97954819D02*
X146642857Y-98002438D01*
X146642857Y-98002438D02*
X146690476Y-98050057D01*
X146690476Y-98050057D02*
X146738095Y-98145295D01*
X146738095Y-98145295D02*
X146785714Y-98335771D01*
X146785714Y-98335771D02*
X146785714Y-98573866D01*
X146785714Y-98573866D02*
X146738095Y-98764342D01*
X146738095Y-98764342D02*
X146690476Y-98859580D01*
X146690476Y-98859580D02*
X146642857Y-98907200D01*
X146642857Y-98907200D02*
X146547619Y-98954819D01*
X146547619Y-98954819D02*
X146452381Y-98954819D01*
X146452381Y-98954819D02*
X146357143Y-98907200D01*
X146357143Y-98907200D02*
X146309524Y-98859580D01*
X146309524Y-98859580D02*
X146261905Y-98764342D01*
X146261905Y-98764342D02*
X146214286Y-98573866D01*
X146214286Y-98573866D02*
X146214286Y-98335771D01*
X146214286Y-98335771D02*
X146261905Y-98145295D01*
X146261905Y-98145295D02*
X146309524Y-98050057D01*
X146309524Y-98050057D02*
X146357143Y-98002438D01*
X146357143Y-98002438D02*
X146452381Y-97954819D01*
X147214286Y-98288152D02*
X147214286Y-98954819D01*
X147214286Y-98383390D02*
X147261905Y-98335771D01*
X147261905Y-98335771D02*
X147357143Y-98288152D01*
X147357143Y-98288152D02*
X147500000Y-98288152D01*
X147500000Y-98288152D02*
X147595238Y-98335771D01*
X147595238Y-98335771D02*
X147642857Y-98431009D01*
X147642857Y-98431009D02*
X147642857Y-98954819D01*
X145380952Y-126954819D02*
X144809524Y-126954819D01*
X145095238Y-126954819D02*
X145095238Y-125954819D01*
X145095238Y-125954819D02*
X145000000Y-126097676D01*
X145000000Y-126097676D02*
X144904762Y-126192914D01*
X144904762Y-126192914D02*
X144809524Y-126240533D01*
X146000000Y-125954819D02*
X146095238Y-125954819D01*
X146095238Y-125954819D02*
X146190476Y-126002438D01*
X146190476Y-126002438D02*
X146238095Y-126050057D01*
X146238095Y-126050057D02*
X146285714Y-126145295D01*
X146285714Y-126145295D02*
X146333333Y-126335771D01*
X146333333Y-126335771D02*
X146333333Y-126573866D01*
X146333333Y-126573866D02*
X146285714Y-126764342D01*
X146285714Y-126764342D02*
X146238095Y-126859580D01*
X146238095Y-126859580D02*
X146190476Y-126907200D01*
X146190476Y-126907200D02*
X146095238Y-126954819D01*
X146095238Y-126954819D02*
X146000000Y-126954819D01*
X146000000Y-126954819D02*
X145904762Y-126907200D01*
X145904762Y-126907200D02*
X145857143Y-126859580D01*
X145857143Y-126859580D02*
X145809524Y-126764342D01*
X145809524Y-126764342D02*
X145761905Y-126573866D01*
X145761905Y-126573866D02*
X145761905Y-126335771D01*
X145761905Y-126335771D02*
X145809524Y-126145295D01*
X145809524Y-126145295D02*
X145857143Y-126050057D01*
X145857143Y-126050057D02*
X145904762Y-126002438D01*
X145904762Y-126002438D02*
X146000000Y-125954819D01*
X146952381Y-125954819D02*
X147047619Y-125954819D01*
X147047619Y-125954819D02*
X147142857Y-126002438D01*
X147142857Y-126002438D02*
X147190476Y-126050057D01*
X147190476Y-126050057D02*
X147238095Y-126145295D01*
X147238095Y-126145295D02*
X147285714Y-126335771D01*
X147285714Y-126335771D02*
X147285714Y-126573866D01*
X147285714Y-126573866D02*
X147238095Y-126764342D01*
X147238095Y-126764342D02*
X147190476Y-126859580D01*
X147190476Y-126859580D02*
X147142857Y-126907200D01*
X147142857Y-126907200D02*
X147047619Y-126954819D01*
X147047619Y-126954819D02*
X146952381Y-126954819D01*
X146952381Y-126954819D02*
X146857143Y-126907200D01*
X146857143Y-126907200D02*
X146809524Y-126859580D01*
X146809524Y-126859580D02*
X146761905Y-126764342D01*
X146761905Y-126764342D02*
X146714286Y-126573866D01*
X146714286Y-126573866D02*
X146714286Y-126335771D01*
X146714286Y-126335771D02*
X146761905Y-126145295D01*
X146761905Y-126145295D02*
X146809524Y-126050057D01*
X146809524Y-126050057D02*
X146857143Y-126002438D01*
X146857143Y-126002438D02*
X146952381Y-125954819D01*
X147714286Y-126288152D02*
X147714286Y-126954819D01*
X147714286Y-126383390D02*
X147761905Y-126335771D01*
X147761905Y-126335771D02*
X147857143Y-126288152D01*
X147857143Y-126288152D02*
X148000000Y-126288152D01*
X148000000Y-126288152D02*
X148095238Y-126335771D01*
X148095238Y-126335771D02*
X148142857Y-126431009D01*
X148142857Y-126431009D02*
X148142857Y-126954819D01*
X145380952Y-112454819D02*
X144809524Y-112454819D01*
X145095238Y-112454819D02*
X145095238Y-111454819D01*
X145095238Y-111454819D02*
X145000000Y-111597676D01*
X145000000Y-111597676D02*
X144904762Y-111692914D01*
X144904762Y-111692914D02*
X144809524Y-111740533D01*
X146000000Y-111454819D02*
X146095238Y-111454819D01*
X146095238Y-111454819D02*
X146190476Y-111502438D01*
X146190476Y-111502438D02*
X146238095Y-111550057D01*
X146238095Y-111550057D02*
X146285714Y-111645295D01*
X146285714Y-111645295D02*
X146333333Y-111835771D01*
X146333333Y-111835771D02*
X146333333Y-112073866D01*
X146333333Y-112073866D02*
X146285714Y-112264342D01*
X146285714Y-112264342D02*
X146238095Y-112359580D01*
X146238095Y-112359580D02*
X146190476Y-112407200D01*
X146190476Y-112407200D02*
X146095238Y-112454819D01*
X146095238Y-112454819D02*
X146000000Y-112454819D01*
X146000000Y-112454819D02*
X145904762Y-112407200D01*
X145904762Y-112407200D02*
X145857143Y-112359580D01*
X145857143Y-112359580D02*
X145809524Y-112264342D01*
X145809524Y-112264342D02*
X145761905Y-112073866D01*
X145761905Y-112073866D02*
X145761905Y-111835771D01*
X145761905Y-111835771D02*
X145809524Y-111645295D01*
X145809524Y-111645295D02*
X145857143Y-111550057D01*
X145857143Y-111550057D02*
X145904762Y-111502438D01*
X145904762Y-111502438D02*
X146000000Y-111454819D01*
X146952381Y-111454819D02*
X147047619Y-111454819D01*
X147047619Y-111454819D02*
X147142857Y-111502438D01*
X147142857Y-111502438D02*
X147190476Y-111550057D01*
X147190476Y-111550057D02*
X147238095Y-111645295D01*
X147238095Y-111645295D02*
X147285714Y-111835771D01*
X147285714Y-111835771D02*
X147285714Y-112073866D01*
X147285714Y-112073866D02*
X147238095Y-112264342D01*
X147238095Y-112264342D02*
X147190476Y-112359580D01*
X147190476Y-112359580D02*
X147142857Y-112407200D01*
X147142857Y-112407200D02*
X147047619Y-112454819D01*
X147047619Y-112454819D02*
X146952381Y-112454819D01*
X146952381Y-112454819D02*
X146857143Y-112407200D01*
X146857143Y-112407200D02*
X146809524Y-112359580D01*
X146809524Y-112359580D02*
X146761905Y-112264342D01*
X146761905Y-112264342D02*
X146714286Y-112073866D01*
X146714286Y-112073866D02*
X146714286Y-111835771D01*
X146714286Y-111835771D02*
X146761905Y-111645295D01*
X146761905Y-111645295D02*
X146809524Y-111550057D01*
X146809524Y-111550057D02*
X146857143Y-111502438D01*
X146857143Y-111502438D02*
X146952381Y-111454819D01*
X147714286Y-111788152D02*
X147714286Y-112454819D01*
X147714286Y-111883390D02*
X147761905Y-111835771D01*
X147761905Y-111835771D02*
X147857143Y-111788152D01*
X147857143Y-111788152D02*
X148000000Y-111788152D01*
X148000000Y-111788152D02*
X148095238Y-111835771D01*
X148095238Y-111835771D02*
X148142857Y-111931009D01*
X148142857Y-111931009D02*
X148142857Y-112454819D01*
X136454819Y-136166666D02*
X136454819Y-136642856D01*
X136454819Y-136642856D02*
X136931009Y-136690475D01*
X136931009Y-136690475D02*
X136883390Y-136642856D01*
X136883390Y-136642856D02*
X136835771Y-136547618D01*
X136835771Y-136547618D02*
X136835771Y-136309523D01*
X136835771Y-136309523D02*
X136883390Y-136214285D01*
X136883390Y-136214285D02*
X136931009Y-136166666D01*
X136931009Y-136166666D02*
X137026247Y-136119047D01*
X137026247Y-136119047D02*
X137264342Y-136119047D01*
X137264342Y-136119047D02*
X137359580Y-136166666D01*
X137359580Y-136166666D02*
X137407200Y-136214285D01*
X137407200Y-136214285D02*
X137454819Y-136309523D01*
X137454819Y-136309523D02*
X137454819Y-136547618D01*
X137454819Y-136547618D02*
X137407200Y-136642856D01*
X137407200Y-136642856D02*
X137359580Y-136690475D01*
X136454819Y-135833332D02*
X137454819Y-135499999D01*
X137454819Y-135499999D02*
X136454819Y-135166666D01*
X136454819Y-134404761D02*
X136454819Y-134595237D01*
X136454819Y-134595237D02*
X136502438Y-134690475D01*
X136502438Y-134690475D02*
X136550057Y-134738094D01*
X136550057Y-134738094D02*
X136692914Y-134833332D01*
X136692914Y-134833332D02*
X136883390Y-134880951D01*
X136883390Y-134880951D02*
X137264342Y-134880951D01*
X137264342Y-134880951D02*
X137359580Y-134833332D01*
X137359580Y-134833332D02*
X137407200Y-134785713D01*
X137407200Y-134785713D02*
X137454819Y-134690475D01*
X137454819Y-134690475D02*
X137454819Y-134499999D01*
X137454819Y-134499999D02*
X137407200Y-134404761D01*
X137407200Y-134404761D02*
X137359580Y-134357142D01*
X137359580Y-134357142D02*
X137264342Y-134309523D01*
X137264342Y-134309523D02*
X137026247Y-134309523D01*
X137026247Y-134309523D02*
X136931009Y-134357142D01*
X136931009Y-134357142D02*
X136883390Y-134404761D01*
X136883390Y-134404761D02*
X136835771Y-134499999D01*
X136835771Y-134499999D02*
X136835771Y-134690475D01*
X136835771Y-134690475D02*
X136883390Y-134785713D01*
X136883390Y-134785713D02*
X136931009Y-134833332D01*
X136931009Y-134833332D02*
X137026247Y-134880951D01*
X123332261Y-130954819D02*
X122856071Y-130954819D01*
X122856071Y-130954819D02*
X122856071Y-129954819D01*
X123570357Y-129954819D02*
X124237023Y-129954819D01*
X124237023Y-129954819D02*
X123808452Y-130954819D01*
X124760833Y-130383390D02*
X124665595Y-130335771D01*
X124665595Y-130335771D02*
X124617976Y-130288152D01*
X124617976Y-130288152D02*
X124570357Y-130192914D01*
X124570357Y-130192914D02*
X124570357Y-130145295D01*
X124570357Y-130145295D02*
X124617976Y-130050057D01*
X124617976Y-130050057D02*
X124665595Y-130002438D01*
X124665595Y-130002438D02*
X124760833Y-129954819D01*
X124760833Y-129954819D02*
X124951309Y-129954819D01*
X124951309Y-129954819D02*
X125046547Y-130002438D01*
X125046547Y-130002438D02*
X125094166Y-130050057D01*
X125094166Y-130050057D02*
X125141785Y-130145295D01*
X125141785Y-130145295D02*
X125141785Y-130192914D01*
X125141785Y-130192914D02*
X125094166Y-130288152D01*
X125094166Y-130288152D02*
X125046547Y-130335771D01*
X125046547Y-130335771D02*
X124951309Y-130383390D01*
X124951309Y-130383390D02*
X124760833Y-130383390D01*
X124760833Y-130383390D02*
X124665595Y-130431009D01*
X124665595Y-130431009D02*
X124617976Y-130478628D01*
X124617976Y-130478628D02*
X124570357Y-130573866D01*
X124570357Y-130573866D02*
X124570357Y-130764342D01*
X124570357Y-130764342D02*
X124617976Y-130859580D01*
X124617976Y-130859580D02*
X124665595Y-130907200D01*
X124665595Y-130907200D02*
X124760833Y-130954819D01*
X124760833Y-130954819D02*
X124951309Y-130954819D01*
X124951309Y-130954819D02*
X125046547Y-130907200D01*
X125046547Y-130907200D02*
X125094166Y-130859580D01*
X125094166Y-130859580D02*
X125141785Y-130764342D01*
X125141785Y-130764342D02*
X125141785Y-130573866D01*
X125141785Y-130573866D02*
X125094166Y-130478628D01*
X125094166Y-130478628D02*
X125046547Y-130431009D01*
X125046547Y-130431009D02*
X124951309Y-130383390D01*
X125760833Y-129954819D02*
X125856071Y-129954819D01*
X125856071Y-129954819D02*
X125951309Y-130002438D01*
X125951309Y-130002438D02*
X125998928Y-130050057D01*
X125998928Y-130050057D02*
X126046547Y-130145295D01*
X126046547Y-130145295D02*
X126094166Y-130335771D01*
X126094166Y-130335771D02*
X126094166Y-130573866D01*
X126094166Y-130573866D02*
X126046547Y-130764342D01*
X126046547Y-130764342D02*
X125998928Y-130859580D01*
X125998928Y-130859580D02*
X125951309Y-130907200D01*
X125951309Y-130907200D02*
X125856071Y-130954819D01*
X125856071Y-130954819D02*
X125760833Y-130954819D01*
X125760833Y-130954819D02*
X125665595Y-130907200D01*
X125665595Y-130907200D02*
X125617976Y-130859580D01*
X125617976Y-130859580D02*
X125570357Y-130764342D01*
X125570357Y-130764342D02*
X125522738Y-130573866D01*
X125522738Y-130573866D02*
X125522738Y-130335771D01*
X125522738Y-130335771D02*
X125570357Y-130145295D01*
X125570357Y-130145295D02*
X125617976Y-130050057D01*
X125617976Y-130050057D02*
X125665595Y-130002438D01*
X125665595Y-130002438D02*
X125760833Y-129954819D01*
X126998928Y-129954819D02*
X126522738Y-129954819D01*
X126522738Y-129954819D02*
X126475119Y-130431009D01*
X126475119Y-130431009D02*
X126522738Y-130383390D01*
X126522738Y-130383390D02*
X126617976Y-130335771D01*
X126617976Y-130335771D02*
X126856071Y-130335771D01*
X126856071Y-130335771D02*
X126951309Y-130383390D01*
X126951309Y-130383390D02*
X126998928Y-130431009D01*
X126998928Y-130431009D02*
X127046547Y-130526247D01*
X127046547Y-130526247D02*
X127046547Y-130764342D01*
X127046547Y-130764342D02*
X126998928Y-130859580D01*
X126998928Y-130859580D02*
X126951309Y-130907200D01*
X126951309Y-130907200D02*
X126856071Y-130954819D01*
X126856071Y-130954819D02*
X126617976Y-130954819D01*
X126617976Y-130954819D02*
X126522738Y-130907200D01*
X126522738Y-130907200D02*
X126475119Y-130859580D01*
X116761905Y-137954819D02*
X117380952Y-137954819D01*
X117380952Y-137954819D02*
X117047619Y-138335771D01*
X117047619Y-138335771D02*
X117190476Y-138335771D01*
X117190476Y-138335771D02*
X117285714Y-138383390D01*
X117285714Y-138383390D02*
X117333333Y-138431009D01*
X117333333Y-138431009D02*
X117380952Y-138526247D01*
X117380952Y-138526247D02*
X117380952Y-138764342D01*
X117380952Y-138764342D02*
X117333333Y-138859580D01*
X117333333Y-138859580D02*
X117285714Y-138907200D01*
X117285714Y-138907200D02*
X117190476Y-138954819D01*
X117190476Y-138954819D02*
X116904762Y-138954819D01*
X116904762Y-138954819D02*
X116809524Y-138907200D01*
X116809524Y-138907200D02*
X116761905Y-138859580D01*
X117714286Y-137954819D02*
X118333333Y-137954819D01*
X118333333Y-137954819D02*
X118000000Y-138335771D01*
X118000000Y-138335771D02*
X118142857Y-138335771D01*
X118142857Y-138335771D02*
X118238095Y-138383390D01*
X118238095Y-138383390D02*
X118285714Y-138431009D01*
X118285714Y-138431009D02*
X118333333Y-138526247D01*
X118333333Y-138526247D02*
X118333333Y-138764342D01*
X118333333Y-138764342D02*
X118285714Y-138859580D01*
X118285714Y-138859580D02*
X118238095Y-138907200D01*
X118238095Y-138907200D02*
X118142857Y-138954819D01*
X118142857Y-138954819D02*
X117857143Y-138954819D01*
X117857143Y-138954819D02*
X117761905Y-138907200D01*
X117761905Y-138907200D02*
X117714286Y-138859580D01*
X118952381Y-137954819D02*
X119047619Y-137954819D01*
X119047619Y-137954819D02*
X119142857Y-138002438D01*
X119142857Y-138002438D02*
X119190476Y-138050057D01*
X119190476Y-138050057D02*
X119238095Y-138145295D01*
X119238095Y-138145295D02*
X119285714Y-138335771D01*
X119285714Y-138335771D02*
X119285714Y-138573866D01*
X119285714Y-138573866D02*
X119238095Y-138764342D01*
X119238095Y-138764342D02*
X119190476Y-138859580D01*
X119190476Y-138859580D02*
X119142857Y-138907200D01*
X119142857Y-138907200D02*
X119047619Y-138954819D01*
X119047619Y-138954819D02*
X118952381Y-138954819D01*
X118952381Y-138954819D02*
X118857143Y-138907200D01*
X118857143Y-138907200D02*
X118809524Y-138859580D01*
X118809524Y-138859580D02*
X118761905Y-138764342D01*
X118761905Y-138764342D02*
X118714286Y-138573866D01*
X118714286Y-138573866D02*
X118714286Y-138335771D01*
X118714286Y-138335771D02*
X118761905Y-138145295D01*
X118761905Y-138145295D02*
X118809524Y-138050057D01*
X118809524Y-138050057D02*
X118857143Y-138002438D01*
X118857143Y-138002438D02*
X118952381Y-137954819D01*
X119714286Y-138288152D02*
X119714286Y-138954819D01*
X119714286Y-138383390D02*
X119761905Y-138335771D01*
X119761905Y-138335771D02*
X119857143Y-138288152D01*
X119857143Y-138288152D02*
X120000000Y-138288152D01*
X120000000Y-138288152D02*
X120095238Y-138335771D01*
X120095238Y-138335771D02*
X120142857Y-138431009D01*
X120142857Y-138431009D02*
X120142857Y-138954819D01*
X116761905Y-132274819D02*
X117380952Y-132274819D01*
X117380952Y-132274819D02*
X117047619Y-132655771D01*
X117047619Y-132655771D02*
X117190476Y-132655771D01*
X117190476Y-132655771D02*
X117285714Y-132703390D01*
X117285714Y-132703390D02*
X117333333Y-132751009D01*
X117333333Y-132751009D02*
X117380952Y-132846247D01*
X117380952Y-132846247D02*
X117380952Y-133084342D01*
X117380952Y-133084342D02*
X117333333Y-133179580D01*
X117333333Y-133179580D02*
X117285714Y-133227200D01*
X117285714Y-133227200D02*
X117190476Y-133274819D01*
X117190476Y-133274819D02*
X116904762Y-133274819D01*
X116904762Y-133274819D02*
X116809524Y-133227200D01*
X116809524Y-133227200D02*
X116761905Y-133179580D01*
X117714286Y-132274819D02*
X118333333Y-132274819D01*
X118333333Y-132274819D02*
X118000000Y-132655771D01*
X118000000Y-132655771D02*
X118142857Y-132655771D01*
X118142857Y-132655771D02*
X118238095Y-132703390D01*
X118238095Y-132703390D02*
X118285714Y-132751009D01*
X118285714Y-132751009D02*
X118333333Y-132846247D01*
X118333333Y-132846247D02*
X118333333Y-133084342D01*
X118333333Y-133084342D02*
X118285714Y-133179580D01*
X118285714Y-133179580D02*
X118238095Y-133227200D01*
X118238095Y-133227200D02*
X118142857Y-133274819D01*
X118142857Y-133274819D02*
X117857143Y-133274819D01*
X117857143Y-133274819D02*
X117761905Y-133227200D01*
X117761905Y-133227200D02*
X117714286Y-133179580D01*
X118952381Y-132274819D02*
X119047619Y-132274819D01*
X119047619Y-132274819D02*
X119142857Y-132322438D01*
X119142857Y-132322438D02*
X119190476Y-132370057D01*
X119190476Y-132370057D02*
X119238095Y-132465295D01*
X119238095Y-132465295D02*
X119285714Y-132655771D01*
X119285714Y-132655771D02*
X119285714Y-132893866D01*
X119285714Y-132893866D02*
X119238095Y-133084342D01*
X119238095Y-133084342D02*
X119190476Y-133179580D01*
X119190476Y-133179580D02*
X119142857Y-133227200D01*
X119142857Y-133227200D02*
X119047619Y-133274819D01*
X119047619Y-133274819D02*
X118952381Y-133274819D01*
X118952381Y-133274819D02*
X118857143Y-133227200D01*
X118857143Y-133227200D02*
X118809524Y-133179580D01*
X118809524Y-133179580D02*
X118761905Y-133084342D01*
X118761905Y-133084342D02*
X118714286Y-132893866D01*
X118714286Y-132893866D02*
X118714286Y-132655771D01*
X118714286Y-132655771D02*
X118761905Y-132465295D01*
X118761905Y-132465295D02*
X118809524Y-132370057D01*
X118809524Y-132370057D02*
X118857143Y-132322438D01*
X118857143Y-132322438D02*
X118952381Y-132274819D01*
X119714286Y-132608152D02*
X119714286Y-133608152D01*
X119714286Y-132655771D02*
X119809524Y-132608152D01*
X119809524Y-132608152D02*
X120000000Y-132608152D01*
X120000000Y-132608152D02*
X120095238Y-132655771D01*
X120095238Y-132655771D02*
X120142857Y-132703390D01*
X120142857Y-132703390D02*
X120190476Y-132798628D01*
X120190476Y-132798628D02*
X120190476Y-133084342D01*
X120190476Y-133084342D02*
X120142857Y-133179580D01*
X120142857Y-133179580D02*
X120095238Y-133227200D01*
X120095238Y-133227200D02*
X120000000Y-133274819D01*
X120000000Y-133274819D02*
X119809524Y-133274819D01*
X119809524Y-133274819D02*
X119714286Y-133227200D01*
X129761905Y-137954819D02*
X130380952Y-137954819D01*
X130380952Y-137954819D02*
X130047619Y-138335771D01*
X130047619Y-138335771D02*
X130190476Y-138335771D01*
X130190476Y-138335771D02*
X130285714Y-138383390D01*
X130285714Y-138383390D02*
X130333333Y-138431009D01*
X130333333Y-138431009D02*
X130380952Y-138526247D01*
X130380952Y-138526247D02*
X130380952Y-138764342D01*
X130380952Y-138764342D02*
X130333333Y-138859580D01*
X130333333Y-138859580D02*
X130285714Y-138907200D01*
X130285714Y-138907200D02*
X130190476Y-138954819D01*
X130190476Y-138954819D02*
X129904762Y-138954819D01*
X129904762Y-138954819D02*
X129809524Y-138907200D01*
X129809524Y-138907200D02*
X129761905Y-138859580D01*
X130714286Y-137954819D02*
X131333333Y-137954819D01*
X131333333Y-137954819D02*
X131000000Y-138335771D01*
X131000000Y-138335771D02*
X131142857Y-138335771D01*
X131142857Y-138335771D02*
X131238095Y-138383390D01*
X131238095Y-138383390D02*
X131285714Y-138431009D01*
X131285714Y-138431009D02*
X131333333Y-138526247D01*
X131333333Y-138526247D02*
X131333333Y-138764342D01*
X131333333Y-138764342D02*
X131285714Y-138859580D01*
X131285714Y-138859580D02*
X131238095Y-138907200D01*
X131238095Y-138907200D02*
X131142857Y-138954819D01*
X131142857Y-138954819D02*
X130857143Y-138954819D01*
X130857143Y-138954819D02*
X130761905Y-138907200D01*
X130761905Y-138907200D02*
X130714286Y-138859580D01*
X131952381Y-137954819D02*
X132047619Y-137954819D01*
X132047619Y-137954819D02*
X132142857Y-138002438D01*
X132142857Y-138002438D02*
X132190476Y-138050057D01*
X132190476Y-138050057D02*
X132238095Y-138145295D01*
X132238095Y-138145295D02*
X132285714Y-138335771D01*
X132285714Y-138335771D02*
X132285714Y-138573866D01*
X132285714Y-138573866D02*
X132238095Y-138764342D01*
X132238095Y-138764342D02*
X132190476Y-138859580D01*
X132190476Y-138859580D02*
X132142857Y-138907200D01*
X132142857Y-138907200D02*
X132047619Y-138954819D01*
X132047619Y-138954819D02*
X131952381Y-138954819D01*
X131952381Y-138954819D02*
X131857143Y-138907200D01*
X131857143Y-138907200D02*
X131809524Y-138859580D01*
X131809524Y-138859580D02*
X131761905Y-138764342D01*
X131761905Y-138764342D02*
X131714286Y-138573866D01*
X131714286Y-138573866D02*
X131714286Y-138335771D01*
X131714286Y-138335771D02*
X131761905Y-138145295D01*
X131761905Y-138145295D02*
X131809524Y-138050057D01*
X131809524Y-138050057D02*
X131857143Y-138002438D01*
X131857143Y-138002438D02*
X131952381Y-137954819D01*
X132714286Y-138288152D02*
X132714286Y-139288152D01*
X132714286Y-138335771D02*
X132809524Y-138288152D01*
X132809524Y-138288152D02*
X133000000Y-138288152D01*
X133000000Y-138288152D02*
X133095238Y-138335771D01*
X133095238Y-138335771D02*
X133142857Y-138383390D01*
X133142857Y-138383390D02*
X133190476Y-138478628D01*
X133190476Y-138478628D02*
X133190476Y-138764342D01*
X133190476Y-138764342D02*
X133142857Y-138859580D01*
X133142857Y-138859580D02*
X133095238Y-138907200D01*
X133095238Y-138907200D02*
X133000000Y-138954819D01*
X133000000Y-138954819D02*
X132809524Y-138954819D01*
X132809524Y-138954819D02*
X132714286Y-138907200D01*
X129761905Y-132454819D02*
X130380952Y-132454819D01*
X130380952Y-132454819D02*
X130047619Y-132835771D01*
X130047619Y-132835771D02*
X130190476Y-132835771D01*
X130190476Y-132835771D02*
X130285714Y-132883390D01*
X130285714Y-132883390D02*
X130333333Y-132931009D01*
X130333333Y-132931009D02*
X130380952Y-133026247D01*
X130380952Y-133026247D02*
X130380952Y-133264342D01*
X130380952Y-133264342D02*
X130333333Y-133359580D01*
X130333333Y-133359580D02*
X130285714Y-133407200D01*
X130285714Y-133407200D02*
X130190476Y-133454819D01*
X130190476Y-133454819D02*
X129904762Y-133454819D01*
X129904762Y-133454819D02*
X129809524Y-133407200D01*
X129809524Y-133407200D02*
X129761905Y-133359580D01*
X130714286Y-132454819D02*
X131333333Y-132454819D01*
X131333333Y-132454819D02*
X131000000Y-132835771D01*
X131000000Y-132835771D02*
X131142857Y-132835771D01*
X131142857Y-132835771D02*
X131238095Y-132883390D01*
X131238095Y-132883390D02*
X131285714Y-132931009D01*
X131285714Y-132931009D02*
X131333333Y-133026247D01*
X131333333Y-133026247D02*
X131333333Y-133264342D01*
X131333333Y-133264342D02*
X131285714Y-133359580D01*
X131285714Y-133359580D02*
X131238095Y-133407200D01*
X131238095Y-133407200D02*
X131142857Y-133454819D01*
X131142857Y-133454819D02*
X130857143Y-133454819D01*
X130857143Y-133454819D02*
X130761905Y-133407200D01*
X130761905Y-133407200D02*
X130714286Y-133359580D01*
X131952381Y-132454819D02*
X132047619Y-132454819D01*
X132047619Y-132454819D02*
X132142857Y-132502438D01*
X132142857Y-132502438D02*
X132190476Y-132550057D01*
X132190476Y-132550057D02*
X132238095Y-132645295D01*
X132238095Y-132645295D02*
X132285714Y-132835771D01*
X132285714Y-132835771D02*
X132285714Y-133073866D01*
X132285714Y-133073866D02*
X132238095Y-133264342D01*
X132238095Y-133264342D02*
X132190476Y-133359580D01*
X132190476Y-133359580D02*
X132142857Y-133407200D01*
X132142857Y-133407200D02*
X132047619Y-133454819D01*
X132047619Y-133454819D02*
X131952381Y-133454819D01*
X131952381Y-133454819D02*
X131857143Y-133407200D01*
X131857143Y-133407200D02*
X131809524Y-133359580D01*
X131809524Y-133359580D02*
X131761905Y-133264342D01*
X131761905Y-133264342D02*
X131714286Y-133073866D01*
X131714286Y-133073866D02*
X131714286Y-132835771D01*
X131714286Y-132835771D02*
X131761905Y-132645295D01*
X131761905Y-132645295D02*
X131809524Y-132550057D01*
X131809524Y-132550057D02*
X131857143Y-132502438D01*
X131857143Y-132502438D02*
X131952381Y-132454819D01*
X132714286Y-132788152D02*
X132714286Y-133454819D01*
X132714286Y-132883390D02*
X132761905Y-132835771D01*
X132761905Y-132835771D02*
X132857143Y-132788152D01*
X132857143Y-132788152D02*
X133000000Y-132788152D01*
X133000000Y-132788152D02*
X133095238Y-132835771D01*
X133095238Y-132835771D02*
X133142857Y-132931009D01*
X133142857Y-132931009D02*
X133142857Y-133454819D01*
X143454819Y-137738094D02*
X143454819Y-137119047D01*
X143454819Y-137119047D02*
X143835771Y-137452380D01*
X143835771Y-137452380D02*
X143835771Y-137309523D01*
X143835771Y-137309523D02*
X143883390Y-137214285D01*
X143883390Y-137214285D02*
X143931009Y-137166666D01*
X143931009Y-137166666D02*
X144026247Y-137119047D01*
X144026247Y-137119047D02*
X144264342Y-137119047D01*
X144264342Y-137119047D02*
X144359580Y-137166666D01*
X144359580Y-137166666D02*
X144407200Y-137214285D01*
X144407200Y-137214285D02*
X144454819Y-137309523D01*
X144454819Y-137309523D02*
X144454819Y-137595237D01*
X144454819Y-137595237D02*
X144407200Y-137690475D01*
X144407200Y-137690475D02*
X144359580Y-137738094D01*
X143454819Y-136785713D02*
X143454819Y-136166666D01*
X143454819Y-136166666D02*
X143835771Y-136499999D01*
X143835771Y-136499999D02*
X143835771Y-136357142D01*
X143835771Y-136357142D02*
X143883390Y-136261904D01*
X143883390Y-136261904D02*
X143931009Y-136214285D01*
X143931009Y-136214285D02*
X144026247Y-136166666D01*
X144026247Y-136166666D02*
X144264342Y-136166666D01*
X144264342Y-136166666D02*
X144359580Y-136214285D01*
X144359580Y-136214285D02*
X144407200Y-136261904D01*
X144407200Y-136261904D02*
X144454819Y-136357142D01*
X144454819Y-136357142D02*
X144454819Y-136642856D01*
X144454819Y-136642856D02*
X144407200Y-136738094D01*
X144407200Y-136738094D02*
X144359580Y-136785713D01*
X143454819Y-135547618D02*
X143454819Y-135452380D01*
X143454819Y-135452380D02*
X143502438Y-135357142D01*
X143502438Y-135357142D02*
X143550057Y-135309523D01*
X143550057Y-135309523D02*
X143645295Y-135261904D01*
X143645295Y-135261904D02*
X143835771Y-135214285D01*
X143835771Y-135214285D02*
X144073866Y-135214285D01*
X144073866Y-135214285D02*
X144264342Y-135261904D01*
X144264342Y-135261904D02*
X144359580Y-135309523D01*
X144359580Y-135309523D02*
X144407200Y-135357142D01*
X144407200Y-135357142D02*
X144454819Y-135452380D01*
X144454819Y-135452380D02*
X144454819Y-135547618D01*
X144454819Y-135547618D02*
X144407200Y-135642856D01*
X144407200Y-135642856D02*
X144359580Y-135690475D01*
X144359580Y-135690475D02*
X144264342Y-135738094D01*
X144264342Y-135738094D02*
X144073866Y-135785713D01*
X144073866Y-135785713D02*
X143835771Y-135785713D01*
X143835771Y-135785713D02*
X143645295Y-135738094D01*
X143645295Y-135738094D02*
X143550057Y-135690475D01*
X143550057Y-135690475D02*
X143502438Y-135642856D01*
X143502438Y-135642856D02*
X143454819Y-135547618D01*
X143788152Y-134785713D02*
X144454819Y-134785713D01*
X143883390Y-134785713D02*
X143835771Y-134738094D01*
X143835771Y-134738094D02*
X143788152Y-134642856D01*
X143788152Y-134642856D02*
X143788152Y-134499999D01*
X143788152Y-134499999D02*
X143835771Y-134404761D01*
X143835771Y-134404761D02*
X143931009Y-134357142D01*
X143931009Y-134357142D02*
X144454819Y-134357142D01*
X143274819Y-142238094D02*
X143274819Y-141619047D01*
X143274819Y-141619047D02*
X143655771Y-141952380D01*
X143655771Y-141952380D02*
X143655771Y-141809523D01*
X143655771Y-141809523D02*
X143703390Y-141714285D01*
X143703390Y-141714285D02*
X143751009Y-141666666D01*
X143751009Y-141666666D02*
X143846247Y-141619047D01*
X143846247Y-141619047D02*
X144084342Y-141619047D01*
X144084342Y-141619047D02*
X144179580Y-141666666D01*
X144179580Y-141666666D02*
X144227200Y-141714285D01*
X144227200Y-141714285D02*
X144274819Y-141809523D01*
X144274819Y-141809523D02*
X144274819Y-142095237D01*
X144274819Y-142095237D02*
X144227200Y-142190475D01*
X144227200Y-142190475D02*
X144179580Y-142238094D01*
X143274819Y-141285713D02*
X143274819Y-140666666D01*
X143274819Y-140666666D02*
X143655771Y-140999999D01*
X143655771Y-140999999D02*
X143655771Y-140857142D01*
X143655771Y-140857142D02*
X143703390Y-140761904D01*
X143703390Y-140761904D02*
X143751009Y-140714285D01*
X143751009Y-140714285D02*
X143846247Y-140666666D01*
X143846247Y-140666666D02*
X144084342Y-140666666D01*
X144084342Y-140666666D02*
X144179580Y-140714285D01*
X144179580Y-140714285D02*
X144227200Y-140761904D01*
X144227200Y-140761904D02*
X144274819Y-140857142D01*
X144274819Y-140857142D02*
X144274819Y-141142856D01*
X144274819Y-141142856D02*
X144227200Y-141238094D01*
X144227200Y-141238094D02*
X144179580Y-141285713D01*
X143274819Y-140047618D02*
X143274819Y-139952380D01*
X143274819Y-139952380D02*
X143322438Y-139857142D01*
X143322438Y-139857142D02*
X143370057Y-139809523D01*
X143370057Y-139809523D02*
X143465295Y-139761904D01*
X143465295Y-139761904D02*
X143655771Y-139714285D01*
X143655771Y-139714285D02*
X143893866Y-139714285D01*
X143893866Y-139714285D02*
X144084342Y-139761904D01*
X144084342Y-139761904D02*
X144179580Y-139809523D01*
X144179580Y-139809523D02*
X144227200Y-139857142D01*
X144227200Y-139857142D02*
X144274819Y-139952380D01*
X144274819Y-139952380D02*
X144274819Y-140047618D01*
X144274819Y-140047618D02*
X144227200Y-140142856D01*
X144227200Y-140142856D02*
X144179580Y-140190475D01*
X144179580Y-140190475D02*
X144084342Y-140238094D01*
X144084342Y-140238094D02*
X143893866Y-140285713D01*
X143893866Y-140285713D02*
X143655771Y-140285713D01*
X143655771Y-140285713D02*
X143465295Y-140238094D01*
X143465295Y-140238094D02*
X143370057Y-140190475D01*
X143370057Y-140190475D02*
X143322438Y-140142856D01*
X143322438Y-140142856D02*
X143274819Y-140047618D01*
X143608152Y-139285713D02*
X144274819Y-139285713D01*
X143703390Y-139285713D02*
X143655771Y-139238094D01*
X143655771Y-139238094D02*
X143608152Y-139142856D01*
X143608152Y-139142856D02*
X143608152Y-138999999D01*
X143608152Y-138999999D02*
X143655771Y-138904761D01*
X143655771Y-138904761D02*
X143751009Y-138857142D01*
X143751009Y-138857142D02*
X144274819Y-138857142D01*
X140857142Y-103304819D02*
X140523809Y-102828628D01*
X140285714Y-103304819D02*
X140285714Y-102304819D01*
X140285714Y-102304819D02*
X140666666Y-102304819D01*
X140666666Y-102304819D02*
X140761904Y-102352438D01*
X140761904Y-102352438D02*
X140809523Y-102400057D01*
X140809523Y-102400057D02*
X140857142Y-102495295D01*
X140857142Y-102495295D02*
X140857142Y-102638152D01*
X140857142Y-102638152D02*
X140809523Y-102733390D01*
X140809523Y-102733390D02*
X140761904Y-102781009D01*
X140761904Y-102781009D02*
X140666666Y-102828628D01*
X140666666Y-102828628D02*
X140285714Y-102828628D01*
X141809523Y-103304819D02*
X141238095Y-103304819D01*
X141523809Y-103304819D02*
X141523809Y-102304819D01*
X141523809Y-102304819D02*
X141428571Y-102447676D01*
X141428571Y-102447676D02*
X141333333Y-102542914D01*
X141333333Y-102542914D02*
X141238095Y-102590533D01*
X142428571Y-102304819D02*
X142523809Y-102304819D01*
X142523809Y-102304819D02*
X142619047Y-102352438D01*
X142619047Y-102352438D02*
X142666666Y-102400057D01*
X142666666Y-102400057D02*
X142714285Y-102495295D01*
X142714285Y-102495295D02*
X142761904Y-102685771D01*
X142761904Y-102685771D02*
X142761904Y-102923866D01*
X142761904Y-102923866D02*
X142714285Y-103114342D01*
X142714285Y-103114342D02*
X142666666Y-103209580D01*
X142666666Y-103209580D02*
X142619047Y-103257200D01*
X142619047Y-103257200D02*
X142523809Y-103304819D01*
X142523809Y-103304819D02*
X142428571Y-103304819D01*
X142428571Y-103304819D02*
X142333333Y-103257200D01*
X142333333Y-103257200D02*
X142285714Y-103209580D01*
X142285714Y-103209580D02*
X142238095Y-103114342D01*
X142238095Y-103114342D02*
X142190476Y-102923866D01*
X142190476Y-102923866D02*
X142190476Y-102685771D01*
X142190476Y-102685771D02*
X142238095Y-102495295D01*
X142238095Y-102495295D02*
X142285714Y-102400057D01*
X142285714Y-102400057D02*
X142333333Y-102352438D01*
X142333333Y-102352438D02*
X142428571Y-102304819D01*
X151785714Y-144288152D02*
X151785714Y-144954819D01*
X151547619Y-143907200D02*
X151309524Y-144621485D01*
X151309524Y-144621485D02*
X151928571Y-144621485D01*
X152214286Y-143954819D02*
X152880952Y-143954819D01*
X152880952Y-143954819D02*
X152452381Y-144954819D01*
X153452381Y-143954819D02*
X153547619Y-143954819D01*
X153547619Y-143954819D02*
X153642857Y-144002438D01*
X153642857Y-144002438D02*
X153690476Y-144050057D01*
X153690476Y-144050057D02*
X153738095Y-144145295D01*
X153738095Y-144145295D02*
X153785714Y-144335771D01*
X153785714Y-144335771D02*
X153785714Y-144573866D01*
X153785714Y-144573866D02*
X153738095Y-144764342D01*
X153738095Y-144764342D02*
X153690476Y-144859580D01*
X153690476Y-144859580D02*
X153642857Y-144907200D01*
X153642857Y-144907200D02*
X153547619Y-144954819D01*
X153547619Y-144954819D02*
X153452381Y-144954819D01*
X153452381Y-144954819D02*
X153357143Y-144907200D01*
X153357143Y-144907200D02*
X153309524Y-144859580D01*
X153309524Y-144859580D02*
X153261905Y-144764342D01*
X153261905Y-144764342D02*
X153214286Y-144573866D01*
X153214286Y-144573866D02*
X153214286Y-144335771D01*
X153214286Y-144335771D02*
X153261905Y-144145295D01*
X153261905Y-144145295D02*
X153309524Y-144050057D01*
X153309524Y-144050057D02*
X153357143Y-144002438D01*
X153357143Y-144002438D02*
X153452381Y-143954819D01*
X154642857Y-144288152D02*
X154642857Y-144954819D01*
X154214286Y-144288152D02*
X154214286Y-144811961D01*
X154214286Y-144811961D02*
X154261905Y-144907200D01*
X154261905Y-144907200D02*
X154357143Y-144954819D01*
X154357143Y-144954819D02*
X154500000Y-144954819D01*
X154500000Y-144954819D02*
X154595238Y-144907200D01*
X154595238Y-144907200D02*
X154642857Y-144859580D01*
X147738095Y-88704819D02*
X147738095Y-89514342D01*
X147738095Y-89514342D02*
X147785714Y-89609580D01*
X147785714Y-89609580D02*
X147833333Y-89657200D01*
X147833333Y-89657200D02*
X147928571Y-89704819D01*
X147928571Y-89704819D02*
X148119047Y-89704819D01*
X148119047Y-89704819D02*
X148214285Y-89657200D01*
X148214285Y-89657200D02*
X148261904Y-89609580D01*
X148261904Y-89609580D02*
X148309523Y-89514342D01*
X148309523Y-89514342D02*
X148309523Y-88704819D01*
X149309523Y-89704819D02*
X148738095Y-89704819D01*
X149023809Y-89704819D02*
X149023809Y-88704819D01*
X149023809Y-88704819D02*
X148928571Y-88847676D01*
X148928571Y-88847676D02*
X148833333Y-88942914D01*
X148833333Y-88942914D02*
X148738095Y-88990533D01*
X140857142Y-117304819D02*
X140523809Y-116828628D01*
X140285714Y-117304819D02*
X140285714Y-116304819D01*
X140285714Y-116304819D02*
X140666666Y-116304819D01*
X140666666Y-116304819D02*
X140761904Y-116352438D01*
X140761904Y-116352438D02*
X140809523Y-116400057D01*
X140809523Y-116400057D02*
X140857142Y-116495295D01*
X140857142Y-116495295D02*
X140857142Y-116638152D01*
X140857142Y-116638152D02*
X140809523Y-116733390D01*
X140809523Y-116733390D02*
X140761904Y-116781009D01*
X140761904Y-116781009D02*
X140666666Y-116828628D01*
X140666666Y-116828628D02*
X140285714Y-116828628D01*
X141809523Y-117304819D02*
X141238095Y-117304819D01*
X141523809Y-117304819D02*
X141523809Y-116304819D01*
X141523809Y-116304819D02*
X141428571Y-116447676D01*
X141428571Y-116447676D02*
X141333333Y-116542914D01*
X141333333Y-116542914D02*
X141238095Y-116590533D01*
X142190476Y-116400057D02*
X142238095Y-116352438D01*
X142238095Y-116352438D02*
X142333333Y-116304819D01*
X142333333Y-116304819D02*
X142571428Y-116304819D01*
X142571428Y-116304819D02*
X142666666Y-116352438D01*
X142666666Y-116352438D02*
X142714285Y-116400057D01*
X142714285Y-116400057D02*
X142761904Y-116495295D01*
X142761904Y-116495295D02*
X142761904Y-116590533D01*
X142761904Y-116590533D02*
X142714285Y-116733390D01*
X142714285Y-116733390D02*
X142142857Y-117304819D01*
X142142857Y-117304819D02*
X142761904Y-117304819D01*
X147738095Y-116204819D02*
X147738095Y-117014342D01*
X147738095Y-117014342D02*
X147785714Y-117109580D01*
X147785714Y-117109580D02*
X147833333Y-117157200D01*
X147833333Y-117157200D02*
X147928571Y-117204819D01*
X147928571Y-117204819D02*
X148119047Y-117204819D01*
X148119047Y-117204819D02*
X148214285Y-117157200D01*
X148214285Y-117157200D02*
X148261904Y-117109580D01*
X148261904Y-117109580D02*
X148309523Y-117014342D01*
X148309523Y-117014342D02*
X148309523Y-116204819D01*
X148690476Y-116204819D02*
X149309523Y-116204819D01*
X149309523Y-116204819D02*
X148976190Y-116585771D01*
X148976190Y-116585771D02*
X149119047Y-116585771D01*
X149119047Y-116585771D02*
X149214285Y-116633390D01*
X149214285Y-116633390D02*
X149261904Y-116681009D01*
X149261904Y-116681009D02*
X149309523Y-116776247D01*
X149309523Y-116776247D02*
X149309523Y-117014342D01*
X149309523Y-117014342D02*
X149261904Y-117109580D01*
X149261904Y-117109580D02*
X149214285Y-117157200D01*
X149214285Y-117157200D02*
X149119047Y-117204819D01*
X149119047Y-117204819D02*
X148833333Y-117204819D01*
X148833333Y-117204819D02*
X148738095Y-117157200D01*
X148738095Y-117157200D02*
X148690476Y-117109580D01*
X172154819Y-102571904D02*
X171154819Y-102571904D01*
X172154819Y-102000476D02*
X171583390Y-102429047D01*
X171154819Y-102000476D02*
X171726247Y-102571904D01*
X142954819Y-109666666D02*
X142478628Y-109999999D01*
X142954819Y-110238094D02*
X141954819Y-110238094D01*
X141954819Y-110238094D02*
X141954819Y-109857142D01*
X141954819Y-109857142D02*
X142002438Y-109761904D01*
X142002438Y-109761904D02*
X142050057Y-109714285D01*
X142050057Y-109714285D02*
X142145295Y-109666666D01*
X142145295Y-109666666D02*
X142288152Y-109666666D01*
X142288152Y-109666666D02*
X142383390Y-109714285D01*
X142383390Y-109714285D02*
X142431009Y-109761904D01*
X142431009Y-109761904D02*
X142478628Y-109857142D01*
X142478628Y-109857142D02*
X142478628Y-110238094D01*
X142954819Y-109190475D02*
X142954819Y-108999999D01*
X142954819Y-108999999D02*
X142907200Y-108904761D01*
X142907200Y-108904761D02*
X142859580Y-108857142D01*
X142859580Y-108857142D02*
X142716723Y-108761904D01*
X142716723Y-108761904D02*
X142526247Y-108714285D01*
X142526247Y-108714285D02*
X142145295Y-108714285D01*
X142145295Y-108714285D02*
X142050057Y-108761904D01*
X142050057Y-108761904D02*
X142002438Y-108809523D01*
X142002438Y-108809523D02*
X141954819Y-108904761D01*
X141954819Y-108904761D02*
X141954819Y-109095237D01*
X141954819Y-109095237D02*
X142002438Y-109190475D01*
X142002438Y-109190475D02*
X142050057Y-109238094D01*
X142050057Y-109238094D02*
X142145295Y-109285713D01*
X142145295Y-109285713D02*
X142383390Y-109285713D01*
X142383390Y-109285713D02*
X142478628Y-109238094D01*
X142478628Y-109238094D02*
X142526247Y-109190475D01*
X142526247Y-109190475D02*
X142573866Y-109095237D01*
X142573866Y-109095237D02*
X142573866Y-108904761D01*
X142573866Y-108904761D02*
X142526247Y-108809523D01*
X142526247Y-108809523D02*
X142478628Y-108761904D01*
X142478628Y-108761904D02*
X142383390Y-108714285D01*
X176738095Y-107454819D02*
X176738095Y-106454819D01*
X177309523Y-107454819D02*
X176880952Y-106883390D01*
X177309523Y-106454819D02*
X176738095Y-107026247D01*
X172154819Y-130571904D02*
X171154819Y-130571904D01*
X172154819Y-130000476D02*
X171583390Y-130429047D01*
X171154819Y-130000476D02*
X171726247Y-130571904D01*
X150833333Y-98954819D02*
X150500000Y-98478628D01*
X150261905Y-98954819D02*
X150261905Y-97954819D01*
X150261905Y-97954819D02*
X150642857Y-97954819D01*
X150642857Y-97954819D02*
X150738095Y-98002438D01*
X150738095Y-98002438D02*
X150785714Y-98050057D01*
X150785714Y-98050057D02*
X150833333Y-98145295D01*
X150833333Y-98145295D02*
X150833333Y-98288152D01*
X150833333Y-98288152D02*
X150785714Y-98383390D01*
X150785714Y-98383390D02*
X150738095Y-98431009D01*
X150738095Y-98431009D02*
X150642857Y-98478628D01*
X150642857Y-98478628D02*
X150261905Y-98478628D01*
X151214286Y-98050057D02*
X151261905Y-98002438D01*
X151261905Y-98002438D02*
X151357143Y-97954819D01*
X151357143Y-97954819D02*
X151595238Y-97954819D01*
X151595238Y-97954819D02*
X151690476Y-98002438D01*
X151690476Y-98002438D02*
X151738095Y-98050057D01*
X151738095Y-98050057D02*
X151785714Y-98145295D01*
X151785714Y-98145295D02*
X151785714Y-98240533D01*
X151785714Y-98240533D02*
X151738095Y-98383390D01*
X151738095Y-98383390D02*
X151166667Y-98954819D01*
X151166667Y-98954819D02*
X151785714Y-98954819D01*
X148833333Y-121954819D02*
X148500000Y-121478628D01*
X148261905Y-121954819D02*
X148261905Y-120954819D01*
X148261905Y-120954819D02*
X148642857Y-120954819D01*
X148642857Y-120954819D02*
X148738095Y-121002438D01*
X148738095Y-121002438D02*
X148785714Y-121050057D01*
X148785714Y-121050057D02*
X148833333Y-121145295D01*
X148833333Y-121145295D02*
X148833333Y-121288152D01*
X148833333Y-121288152D02*
X148785714Y-121383390D01*
X148785714Y-121383390D02*
X148738095Y-121431009D01*
X148738095Y-121431009D02*
X148642857Y-121478628D01*
X148642857Y-121478628D02*
X148261905Y-121478628D01*
X149738095Y-120954819D02*
X149261905Y-120954819D01*
X149261905Y-120954819D02*
X149214286Y-121431009D01*
X149214286Y-121431009D02*
X149261905Y-121383390D01*
X149261905Y-121383390D02*
X149357143Y-121335771D01*
X149357143Y-121335771D02*
X149595238Y-121335771D01*
X149595238Y-121335771D02*
X149690476Y-121383390D01*
X149690476Y-121383390D02*
X149738095Y-121431009D01*
X149738095Y-121431009D02*
X149785714Y-121526247D01*
X149785714Y-121526247D02*
X149785714Y-121764342D01*
X149785714Y-121764342D02*
X149738095Y-121859580D01*
X149738095Y-121859580D02*
X149690476Y-121907200D01*
X149690476Y-121907200D02*
X149595238Y-121954819D01*
X149595238Y-121954819D02*
X149357143Y-121954819D01*
X149357143Y-121954819D02*
X149261905Y-121907200D01*
X149261905Y-121907200D02*
X149214286Y-121859580D01*
X141333333Y-90304819D02*
X141000000Y-89828628D01*
X140761905Y-90304819D02*
X140761905Y-89304819D01*
X140761905Y-89304819D02*
X141142857Y-89304819D01*
X141142857Y-89304819D02*
X141238095Y-89352438D01*
X141238095Y-89352438D02*
X141285714Y-89400057D01*
X141285714Y-89400057D02*
X141333333Y-89495295D01*
X141333333Y-89495295D02*
X141333333Y-89638152D01*
X141333333Y-89638152D02*
X141285714Y-89733390D01*
X141285714Y-89733390D02*
X141238095Y-89781009D01*
X141238095Y-89781009D02*
X141142857Y-89828628D01*
X141142857Y-89828628D02*
X140761905Y-89828628D01*
X141666667Y-89304819D02*
X142333333Y-89304819D01*
X142333333Y-89304819D02*
X141904762Y-90304819D01*
X151333333Y-112454819D02*
X151000000Y-111978628D01*
X150761905Y-112454819D02*
X150761905Y-111454819D01*
X150761905Y-111454819D02*
X151142857Y-111454819D01*
X151142857Y-111454819D02*
X151238095Y-111502438D01*
X151238095Y-111502438D02*
X151285714Y-111550057D01*
X151285714Y-111550057D02*
X151333333Y-111645295D01*
X151333333Y-111645295D02*
X151333333Y-111788152D01*
X151333333Y-111788152D02*
X151285714Y-111883390D01*
X151285714Y-111883390D02*
X151238095Y-111931009D01*
X151238095Y-111931009D02*
X151142857Y-111978628D01*
X151142857Y-111978628D02*
X150761905Y-111978628D01*
X152190476Y-111788152D02*
X152190476Y-112454819D01*
X151952381Y-111407200D02*
X151714286Y-112121485D01*
X151714286Y-112121485D02*
X152333333Y-112121485D01*
X176738095Y-93454819D02*
X176738095Y-92454819D01*
X177309523Y-93454819D02*
X176880952Y-92883390D01*
X177309523Y-92454819D02*
X176738095Y-93026247D01*
X147738095Y-102204819D02*
X147738095Y-103014342D01*
X147738095Y-103014342D02*
X147785714Y-103109580D01*
X147785714Y-103109580D02*
X147833333Y-103157200D01*
X147833333Y-103157200D02*
X147928571Y-103204819D01*
X147928571Y-103204819D02*
X148119047Y-103204819D01*
X148119047Y-103204819D02*
X148214285Y-103157200D01*
X148214285Y-103157200D02*
X148261904Y-103109580D01*
X148261904Y-103109580D02*
X148309523Y-103014342D01*
X148309523Y-103014342D02*
X148309523Y-102204819D01*
X148738095Y-102300057D02*
X148785714Y-102252438D01*
X148785714Y-102252438D02*
X148880952Y-102204819D01*
X148880952Y-102204819D02*
X149119047Y-102204819D01*
X149119047Y-102204819D02*
X149214285Y-102252438D01*
X149214285Y-102252438D02*
X149261904Y-102300057D01*
X149261904Y-102300057D02*
X149309523Y-102395295D01*
X149309523Y-102395295D02*
X149309523Y-102490533D01*
X149309523Y-102490533D02*
X149261904Y-102633390D01*
X149261904Y-102633390D02*
X148690476Y-103204819D01*
X148690476Y-103204819D02*
X149309523Y-103204819D01*
X148333333Y-93954819D02*
X148000000Y-93478628D01*
X147761905Y-93954819D02*
X147761905Y-92954819D01*
X147761905Y-92954819D02*
X148142857Y-92954819D01*
X148142857Y-92954819D02*
X148238095Y-93002438D01*
X148238095Y-93002438D02*
X148285714Y-93050057D01*
X148285714Y-93050057D02*
X148333333Y-93145295D01*
X148333333Y-93145295D02*
X148333333Y-93288152D01*
X148333333Y-93288152D02*
X148285714Y-93383390D01*
X148285714Y-93383390D02*
X148238095Y-93431009D01*
X148238095Y-93431009D02*
X148142857Y-93478628D01*
X148142857Y-93478628D02*
X147761905Y-93478628D01*
X149285714Y-93954819D02*
X148714286Y-93954819D01*
X149000000Y-93954819D02*
X149000000Y-92954819D01*
X149000000Y-92954819D02*
X148904762Y-93097676D01*
X148904762Y-93097676D02*
X148809524Y-93192914D01*
X148809524Y-93192914D02*
X148714286Y-93240533D01*
X151333333Y-126954819D02*
X151000000Y-126478628D01*
X150761905Y-126954819D02*
X150761905Y-125954819D01*
X150761905Y-125954819D02*
X151142857Y-125954819D01*
X151142857Y-125954819D02*
X151238095Y-126002438D01*
X151238095Y-126002438D02*
X151285714Y-126050057D01*
X151285714Y-126050057D02*
X151333333Y-126145295D01*
X151333333Y-126145295D02*
X151333333Y-126288152D01*
X151333333Y-126288152D02*
X151285714Y-126383390D01*
X151285714Y-126383390D02*
X151238095Y-126431009D01*
X151238095Y-126431009D02*
X151142857Y-126478628D01*
X151142857Y-126478628D02*
X150761905Y-126478628D01*
X152190476Y-125954819D02*
X152000000Y-125954819D01*
X152000000Y-125954819D02*
X151904762Y-126002438D01*
X151904762Y-126002438D02*
X151857143Y-126050057D01*
X151857143Y-126050057D02*
X151761905Y-126192914D01*
X151761905Y-126192914D02*
X151714286Y-126383390D01*
X151714286Y-126383390D02*
X151714286Y-126764342D01*
X151714286Y-126764342D02*
X151761905Y-126859580D01*
X151761905Y-126859580D02*
X151809524Y-126907200D01*
X151809524Y-126907200D02*
X151904762Y-126954819D01*
X151904762Y-126954819D02*
X152095238Y-126954819D01*
X152095238Y-126954819D02*
X152190476Y-126907200D01*
X152190476Y-126907200D02*
X152238095Y-126859580D01*
X152238095Y-126859580D02*
X152285714Y-126764342D01*
X152285714Y-126764342D02*
X152285714Y-126526247D01*
X152285714Y-126526247D02*
X152238095Y-126431009D01*
X152238095Y-126431009D02*
X152190476Y-126383390D01*
X152190476Y-126383390D02*
X152095238Y-126335771D01*
X152095238Y-126335771D02*
X151904762Y-126335771D01*
X151904762Y-126335771D02*
X151809524Y-126383390D01*
X151809524Y-126383390D02*
X151761905Y-126431009D01*
X151761905Y-126431009D02*
X151714286Y-126526247D01*
X163785714Y-144288152D02*
X163785714Y-144954819D01*
X163547619Y-143907200D02*
X163309524Y-144621485D01*
X163309524Y-144621485D02*
X163928571Y-144621485D01*
X164214286Y-143954819D02*
X164880952Y-143954819D01*
X164880952Y-143954819D02*
X164452381Y-144954819D01*
X165452381Y-143954819D02*
X165547619Y-143954819D01*
X165547619Y-143954819D02*
X165642857Y-144002438D01*
X165642857Y-144002438D02*
X165690476Y-144050057D01*
X165690476Y-144050057D02*
X165738095Y-144145295D01*
X165738095Y-144145295D02*
X165785714Y-144335771D01*
X165785714Y-144335771D02*
X165785714Y-144573866D01*
X165785714Y-144573866D02*
X165738095Y-144764342D01*
X165738095Y-144764342D02*
X165690476Y-144859580D01*
X165690476Y-144859580D02*
X165642857Y-144907200D01*
X165642857Y-144907200D02*
X165547619Y-144954819D01*
X165547619Y-144954819D02*
X165452381Y-144954819D01*
X165452381Y-144954819D02*
X165357143Y-144907200D01*
X165357143Y-144907200D02*
X165309524Y-144859580D01*
X165309524Y-144859580D02*
X165261905Y-144764342D01*
X165261905Y-144764342D02*
X165214286Y-144573866D01*
X165214286Y-144573866D02*
X165214286Y-144335771D01*
X165214286Y-144335771D02*
X165261905Y-144145295D01*
X165261905Y-144145295D02*
X165309524Y-144050057D01*
X165309524Y-144050057D02*
X165357143Y-144002438D01*
X165357143Y-144002438D02*
X165452381Y-143954819D01*
X166642857Y-144288152D02*
X166642857Y-144954819D01*
X166214286Y-144288152D02*
X166214286Y-144811961D01*
X166214286Y-144811961D02*
X166261905Y-144907200D01*
X166261905Y-144907200D02*
X166357143Y-144954819D01*
X166357143Y-144954819D02*
X166500000Y-144954819D01*
X166500000Y-144954819D02*
X166595238Y-144907200D01*
X166595238Y-144907200D02*
X166642857Y-144859580D01*
X172154819Y-116571904D02*
X171154819Y-116571904D01*
X172154819Y-116000476D02*
X171583390Y-116429047D01*
X171154819Y-116000476D02*
X171726247Y-116571904D01*
X142454819Y-96166666D02*
X141978628Y-96499999D01*
X142454819Y-96738094D02*
X141454819Y-96738094D01*
X141454819Y-96738094D02*
X141454819Y-96357142D01*
X141454819Y-96357142D02*
X141502438Y-96261904D01*
X141502438Y-96261904D02*
X141550057Y-96214285D01*
X141550057Y-96214285D02*
X141645295Y-96166666D01*
X141645295Y-96166666D02*
X141788152Y-96166666D01*
X141788152Y-96166666D02*
X141883390Y-96214285D01*
X141883390Y-96214285D02*
X141931009Y-96261904D01*
X141931009Y-96261904D02*
X141978628Y-96357142D01*
X141978628Y-96357142D02*
X141978628Y-96738094D01*
X141883390Y-95595237D02*
X141835771Y-95690475D01*
X141835771Y-95690475D02*
X141788152Y-95738094D01*
X141788152Y-95738094D02*
X141692914Y-95785713D01*
X141692914Y-95785713D02*
X141645295Y-95785713D01*
X141645295Y-95785713D02*
X141550057Y-95738094D01*
X141550057Y-95738094D02*
X141502438Y-95690475D01*
X141502438Y-95690475D02*
X141454819Y-95595237D01*
X141454819Y-95595237D02*
X141454819Y-95404761D01*
X141454819Y-95404761D02*
X141502438Y-95309523D01*
X141502438Y-95309523D02*
X141550057Y-95261904D01*
X141550057Y-95261904D02*
X141645295Y-95214285D01*
X141645295Y-95214285D02*
X141692914Y-95214285D01*
X141692914Y-95214285D02*
X141788152Y-95261904D01*
X141788152Y-95261904D02*
X141835771Y-95309523D01*
X141835771Y-95309523D02*
X141883390Y-95404761D01*
X141883390Y-95404761D02*
X141883390Y-95595237D01*
X141883390Y-95595237D02*
X141931009Y-95690475D01*
X141931009Y-95690475D02*
X141978628Y-95738094D01*
X141978628Y-95738094D02*
X142073866Y-95785713D01*
X142073866Y-95785713D02*
X142264342Y-95785713D01*
X142264342Y-95785713D02*
X142359580Y-95738094D01*
X142359580Y-95738094D02*
X142407200Y-95690475D01*
X142407200Y-95690475D02*
X142454819Y-95595237D01*
X142454819Y-95595237D02*
X142454819Y-95404761D01*
X142454819Y-95404761D02*
X142407200Y-95309523D01*
X142407200Y-95309523D02*
X142359580Y-95261904D01*
X142359580Y-95261904D02*
X142264342Y-95214285D01*
X142264342Y-95214285D02*
X142073866Y-95214285D01*
X142073866Y-95214285D02*
X141978628Y-95261904D01*
X141978628Y-95261904D02*
X141931009Y-95309523D01*
X141931009Y-95309523D02*
X141883390Y-95404761D01*
X148833333Y-107454819D02*
X148500000Y-106978628D01*
X148261905Y-107454819D02*
X148261905Y-106454819D01*
X148261905Y-106454819D02*
X148642857Y-106454819D01*
X148642857Y-106454819D02*
X148738095Y-106502438D01*
X148738095Y-106502438D02*
X148785714Y-106550057D01*
X148785714Y-106550057D02*
X148833333Y-106645295D01*
X148833333Y-106645295D02*
X148833333Y-106788152D01*
X148833333Y-106788152D02*
X148785714Y-106883390D01*
X148785714Y-106883390D02*
X148738095Y-106931009D01*
X148738095Y-106931009D02*
X148642857Y-106978628D01*
X148642857Y-106978628D02*
X148261905Y-106978628D01*
X149166667Y-106454819D02*
X149785714Y-106454819D01*
X149785714Y-106454819D02*
X149452381Y-106835771D01*
X149452381Y-106835771D02*
X149595238Y-106835771D01*
X149595238Y-106835771D02*
X149690476Y-106883390D01*
X149690476Y-106883390D02*
X149738095Y-106931009D01*
X149738095Y-106931009D02*
X149785714Y-107026247D01*
X149785714Y-107026247D02*
X149785714Y-107264342D01*
X149785714Y-107264342D02*
X149738095Y-107359580D01*
X149738095Y-107359580D02*
X149690476Y-107407200D01*
X149690476Y-107407200D02*
X149595238Y-107454819D01*
X149595238Y-107454819D02*
X149309524Y-107454819D01*
X149309524Y-107454819D02*
X149214286Y-107407200D01*
X149214286Y-107407200D02*
X149166667Y-107359580D01*
X176738095Y-121454819D02*
X176738095Y-120454819D01*
X177309523Y-121454819D02*
X176880952Y-120883390D01*
X177309523Y-120454819D02*
X176738095Y-121026247D01*
D14*
%TO.C,A1*%
X118470000Y-126820000D02*
X118470000Y-88720000D01*
D15*
X121140000Y-88720000D02*
X118470000Y-88720000D01*
X121140000Y-126820000D02*
X118470000Y-126820000D01*
X121140000Y-126820000D02*
X121140000Y-88720000D01*
X123610000Y-83510000D02*
X131430000Y-83510000D01*
X123610000Y-83550000D02*
X123610000Y-89050000D01*
X123610000Y-91861125D02*
X123610000Y-90806558D01*
X123610000Y-93455931D02*
X123610000Y-93930000D01*
X131430000Y-83510000D02*
X131430000Y-89072517D01*
X131430000Y-91861125D02*
X131430000Y-90806558D01*
X131430000Y-93930000D02*
X123610000Y-93930000D01*
X131430000Y-93930000D02*
X131430000Y-93455931D01*
X133840000Y-88720000D02*
X136510000Y-88720000D01*
X133840000Y-124280000D02*
X133840000Y-88720000D01*
X133840000Y-124280000D02*
X133840000Y-126820000D01*
X133840000Y-124280000D02*
X136510000Y-124280000D01*
X133840000Y-126820000D02*
X136510000Y-126820000D01*
D14*
X136510000Y-126820000D02*
X136510000Y-88720000D01*
D15*
%TO.C,R11*%
X144735000Y-123772936D02*
X144735000Y-124227064D01*
X143265000Y-123772936D02*
X143265000Y-124227064D01*
%TO.C,C17*%
X177738748Y-118765000D02*
X178261252Y-118765000D01*
X177738748Y-120235000D02*
X178261252Y-120235000D01*
%TO.C,C16*%
X177738748Y-104765000D02*
X178261252Y-104765000D01*
X177738748Y-106235000D02*
X178261252Y-106235000D01*
%TO.C,C15*%
X177238748Y-90765000D02*
X177761252Y-90765000D01*
X177238748Y-92235000D02*
X177761252Y-92235000D01*
%TO.C,C14*%
X173761252Y-120235000D02*
X173238748Y-120235000D01*
X173761252Y-118765000D02*
X173238748Y-118765000D01*
%TO.C,C13*%
X173761252Y-106235000D02*
X173238748Y-106235000D01*
X173761252Y-104765000D02*
X173238748Y-104765000D01*
%TO.C,C12*%
X173761252Y-92235000D02*
X173238748Y-92235000D01*
X173761252Y-90765000D02*
X173238748Y-90765000D01*
%TO.C,C5*%
X146735000Y-95738748D02*
X146735000Y-96261252D01*
X145265000Y-95738748D02*
X145265000Y-96261252D01*
%TO.C,C4*%
X147235000Y-123738748D02*
X147235000Y-124261252D01*
X145765000Y-123738748D02*
X145765000Y-124261252D01*
%TO.C,C3*%
X147235000Y-109238748D02*
X147235000Y-109761252D01*
X145765000Y-109238748D02*
X145765000Y-109761252D01*
%TO.C,J1*%
X104222500Y-119110000D02*
X104222500Y-98890000D01*
X105442500Y-119110000D02*
X105442500Y-117890000D01*
X112642500Y-119110000D02*
X104222500Y-119110000D01*
X105442500Y-117890000D02*
X110442500Y-117890000D01*
X109442500Y-117890000D02*
X109442500Y-100110000D01*
X110442500Y-117890000D02*
X110442500Y-119110000D01*
X110442500Y-117890000D02*
X112642500Y-117890000D01*
X112642500Y-117890000D02*
X112642500Y-119110000D01*
X106022500Y-116820000D02*
X105942500Y-116500000D01*
X109442500Y-116820000D02*
X106022500Y-116820000D01*
X113132500Y-116800000D02*
X113132500Y-116200000D01*
X105942500Y-116500000D02*
X106022500Y-116180000D01*
X109442500Y-116500000D02*
X109442500Y-116820000D01*
X112532500Y-116500000D02*
X113132500Y-116800000D01*
X113132500Y-116200000D02*
X112532500Y-116500000D01*
X106022500Y-116180000D02*
X109442500Y-116180000D01*
X109442500Y-116180000D02*
X109442500Y-116500000D01*
X110442500Y-115330000D02*
X110442500Y-115170000D01*
X106022500Y-114320000D02*
X105942500Y-114000000D01*
X109442500Y-114320000D02*
X106022500Y-114320000D01*
X105942500Y-114000000D02*
X106022500Y-113680000D01*
X109442500Y-114000000D02*
X109442500Y-114320000D01*
X106022500Y-113680000D02*
X109442500Y-113680000D01*
X109442500Y-113680000D02*
X109442500Y-114000000D01*
X110442500Y-112830000D02*
X110442500Y-112670000D01*
X106022500Y-111820000D02*
X105942500Y-111500000D01*
X109442500Y-111820000D02*
X106022500Y-111820000D01*
X105942500Y-111500000D02*
X106022500Y-111180000D01*
X109442500Y-111500000D02*
X109442500Y-111820000D01*
X106022500Y-111180000D02*
X109442500Y-111180000D01*
X109442500Y-111180000D02*
X109442500Y-111500000D01*
X110442500Y-110330000D02*
X110442500Y-110170000D01*
X106022500Y-109320000D02*
X105942500Y-109000000D01*
X109442500Y-109320000D02*
X106022500Y-109320000D01*
X105942500Y-109000000D02*
X106022500Y-108680000D01*
X109442500Y-109000000D02*
X109442500Y-109320000D01*
X106022500Y-108680000D02*
X109442500Y-108680000D01*
X109442500Y-108680000D02*
X109442500Y-109000000D01*
X110442500Y-107830000D02*
X110442500Y-107670000D01*
X106022500Y-106820000D02*
X105942500Y-106500000D01*
X109442500Y-106820000D02*
X106022500Y-106820000D01*
X105942500Y-106500000D02*
X106022500Y-106180000D01*
X109442500Y-106500000D02*
X109442500Y-106820000D01*
X106022500Y-106180000D02*
X109442500Y-106180000D01*
X109442500Y-106180000D02*
X109442500Y-106500000D01*
X110442500Y-105330000D02*
X110442500Y-105170000D01*
X106022500Y-104320000D02*
X105942500Y-104000000D01*
X109442500Y-104320000D02*
X106022500Y-104320000D01*
X105942500Y-104000000D02*
X106022500Y-103680000D01*
X109442500Y-104000000D02*
X109442500Y-104320000D01*
X106022500Y-103680000D02*
X109442500Y-103680000D01*
X109442500Y-103680000D02*
X109442500Y-104000000D01*
X110442500Y-102830000D02*
X110442500Y-102670000D01*
X106022500Y-101820000D02*
X105942500Y-101500000D01*
X109442500Y-101820000D02*
X106022500Y-101820000D01*
X105942500Y-101500000D02*
X106022500Y-101180000D01*
X109442500Y-101500000D02*
X109442500Y-101820000D01*
X106022500Y-101180000D02*
X109442500Y-101180000D01*
X109442500Y-101180000D02*
X109442500Y-101500000D01*
X105442500Y-100110000D02*
X110442500Y-100110000D01*
X110442500Y-100110000D02*
X110442500Y-98890000D01*
X112642500Y-100110000D02*
X110442500Y-100110000D01*
X104222500Y-98890000D02*
X112642500Y-98890000D01*
X105442500Y-98890000D02*
X105442500Y-100110000D01*
X112642500Y-98890000D02*
X112642500Y-100110000D01*
%TO.C,D7*%
X135950000Y-137760000D02*
X135950000Y-134100000D01*
X134050000Y-137760000D02*
X134050000Y-134100000D01*
X134050000Y-137760000D02*
X135950000Y-137760000D01*
%TO.C,PWR1*%
X104347500Y-131370000D02*
X104347500Y-120630000D01*
X107967500Y-131370000D02*
X107967500Y-130130000D01*
X108967500Y-131370000D02*
X108967500Y-130130000D01*
X110267500Y-131370000D02*
X110267500Y-130130000D01*
X112387500Y-131370000D02*
X104347500Y-131370000D01*
X112387500Y-128550000D02*
X112387500Y-131370000D01*
X107967500Y-126370000D02*
X107967500Y-125062000D01*
X108967500Y-126370000D02*
X108967500Y-125062000D01*
X110267500Y-126370000D02*
X110267500Y-123793000D01*
X110267500Y-122707000D02*
X110267500Y-120630000D01*
X107967500Y-121438000D02*
X107967500Y-120630000D01*
X108967500Y-121438000D02*
X108967500Y-120630000D01*
X104347500Y-120630000D02*
X112387500Y-120630000D01*
X112387500Y-120630000D02*
X112387500Y-127950000D01*
X112997500Y-128690000D02*
X112387500Y-128250000D01*
X112997500Y-127810000D01*
X112997500Y-128690000D01*
G36*
X112997500Y-128690000D02*
G01*
X112387500Y-128250000D01*
X112997500Y-127810000D01*
X112997500Y-128690000D01*
G37*
%TO.C,J3*%
X189652500Y-100630000D02*
X189652500Y-116370000D01*
X186032500Y-100630000D02*
X186032500Y-101870000D01*
X185032500Y-100630000D02*
X185032500Y-101870000D01*
X183732500Y-100630000D02*
X183732500Y-101870000D01*
X181612500Y-100630000D02*
X189652500Y-100630000D01*
X181612500Y-103450000D02*
X181612500Y-100630000D01*
X186032500Y-105630000D02*
X186032500Y-106938000D01*
X185032500Y-105630000D02*
X185032500Y-106938000D01*
X183732500Y-105630000D02*
X183732500Y-108207000D01*
X183732500Y-109293000D02*
X183732500Y-113207000D01*
X186032500Y-110562000D02*
X186032500Y-111938000D01*
X185032500Y-110562000D02*
X185032500Y-111938000D01*
X183732500Y-114293000D02*
X183732500Y-116370000D01*
X186032500Y-115562000D02*
X186032500Y-116370000D01*
X185032500Y-115562000D02*
X185032500Y-116370000D01*
X189652500Y-116370000D02*
X181612500Y-116370000D01*
X181612500Y-116370000D02*
X181612500Y-104050000D01*
X181612500Y-103750000D02*
X181002500Y-104190000D01*
X181002500Y-103310000D01*
X181612500Y-103750000D01*
G36*
X181612500Y-103750000D02*
G01*
X181002500Y-104190000D01*
X181002500Y-103310000D01*
X181612500Y-103750000D01*
G37*
%TO.C,U5*%
X121550000Y-139310000D02*
X121820000Y-139310000D01*
X128450000Y-139310000D02*
X128180000Y-139310000D01*
X121550000Y-132890000D02*
X121550000Y-139310000D01*
X128450000Y-132890000D02*
X128450000Y-139310000D01*
X121860000Y-141040000D02*
X121390000Y-141380000D01*
X121390000Y-140700000D01*
X121860000Y-141040000D01*
G36*
X121860000Y-141040000D02*
G01*
X121390000Y-141380000D01*
X121390000Y-140700000D01*
X121860000Y-141040000D01*
G37*
%TO.C,C11*%
X118761252Y-137735000D02*
X118238748Y-137735000D01*
X118761252Y-136265000D02*
X118238748Y-136265000D01*
%TO.C,C10*%
X118761252Y-135235000D02*
X118238748Y-135235000D01*
X118761252Y-133765000D02*
X118238748Y-133765000D01*
%TO.C,C9*%
X131238748Y-136265000D02*
X131761252Y-136265000D01*
X131238748Y-137735000D02*
X131761252Y-137735000D01*
%TO.C,C6*%
X131238748Y-133765000D02*
X131761252Y-133765000D01*
X131238748Y-135235000D02*
X131761252Y-135235000D01*
%TO.C,C2*%
X144765000Y-136261252D02*
X144765000Y-135738748D01*
X146235000Y-136261252D02*
X146235000Y-135738748D01*
%TO.C,C1*%
X146235000Y-140238748D02*
X146235000Y-140761252D01*
X144765000Y-140238748D02*
X144765000Y-140761252D01*
%TO.C,R10*%
X141272936Y-103765000D02*
X141727064Y-103765000D01*
X141272936Y-105235000D02*
X141727064Y-105235000D01*
%TO.C,C7*%
X152259000Y-139413323D02*
X148582000Y-139413323D01*
X152259000Y-139453323D02*
X148593000Y-139453323D01*
X152259000Y-139493323D02*
X148603000Y-139493323D01*
X152259000Y-139533323D02*
X148615000Y-139533323D01*
X152259000Y-139573323D02*
X148626000Y-139573323D01*
X152259000Y-139613323D02*
X148638000Y-139613323D01*
X152259000Y-139653323D02*
X148650000Y-139653323D01*
X152259000Y-139693323D02*
X148663000Y-139693323D01*
X152259000Y-139733323D02*
X148676000Y-139733323D01*
X152259000Y-139773323D02*
X148689000Y-139773323D01*
X152259000Y-139813323D02*
X148703000Y-139813323D01*
X152259000Y-139853323D02*
X148717000Y-139853323D01*
X152259000Y-139893323D02*
X148732000Y-139893323D01*
X152259000Y-139933323D02*
X148746000Y-139933323D01*
X152259000Y-139973323D02*
X148762000Y-139973323D01*
X152259000Y-140013323D02*
X148777000Y-140013323D01*
X152259000Y-140053323D02*
X148793000Y-140053323D01*
X152259000Y-140093323D02*
X148810000Y-140093323D01*
X152259000Y-140133323D02*
X148826000Y-140133323D01*
X152259000Y-140173323D02*
X148843000Y-140173323D01*
X152259000Y-140213323D02*
X148861000Y-140213323D01*
X152259000Y-140253323D02*
X148879000Y-140253323D01*
X152259000Y-140293323D02*
X148897000Y-140293323D01*
X152259000Y-140333323D02*
X148916000Y-140333323D01*
X152259000Y-140373323D02*
X148936000Y-140373323D01*
X152259000Y-140413323D02*
X148955000Y-140413323D01*
X152259000Y-140453323D02*
X148975000Y-140453323D01*
X152259000Y-140493323D02*
X148996000Y-140493323D01*
X152259000Y-140533323D02*
X149017000Y-140533323D01*
X152259000Y-140573323D02*
X149038000Y-140573323D01*
X152259000Y-140613323D02*
X149060000Y-140613323D01*
X152259000Y-140653323D02*
X149083000Y-140653323D01*
X152259000Y-140693323D02*
X149105000Y-140693323D01*
X152259000Y-140733323D02*
X149129000Y-140733323D01*
X152259000Y-140773323D02*
X149153000Y-140773323D01*
X152259000Y-140813323D02*
X149177000Y-140813323D01*
X152259000Y-140853323D02*
X149202000Y-140853323D01*
X152259000Y-140893323D02*
X149227000Y-140893323D01*
X152259000Y-140933323D02*
X149253000Y-140933323D01*
X152259000Y-140973323D02*
X149279000Y-140973323D01*
X152259000Y-141013323D02*
X149306000Y-141013323D01*
X152259000Y-141053323D02*
X149334000Y-141053323D01*
X152259000Y-141093323D02*
X149362000Y-141093323D01*
X152259000Y-141133323D02*
X149390000Y-141133323D01*
X152259000Y-141173323D02*
X149420000Y-141173323D01*
X152259000Y-141213323D02*
X149450000Y-141213323D01*
X152259000Y-141253323D02*
X149480000Y-141253323D01*
X152259000Y-141293323D02*
X149511000Y-141293323D01*
X152259000Y-141333323D02*
X149543000Y-141333323D01*
X152259000Y-141373323D02*
X149575000Y-141373323D01*
X152259000Y-141413323D02*
X149608000Y-141413323D01*
X152259000Y-141453323D02*
X149642000Y-141453323D01*
X152259000Y-141493323D02*
X149676000Y-141493323D01*
X152259000Y-141533323D02*
X149711000Y-141533323D01*
X152259000Y-141573323D02*
X149747000Y-141573323D01*
X152259000Y-141613323D02*
X149784000Y-141613323D01*
X152259000Y-141653323D02*
X149821000Y-141653323D01*
X152259000Y-141693323D02*
X149860000Y-141693323D01*
X152259000Y-141733323D02*
X149899000Y-141733323D01*
X152259000Y-141773323D02*
X149939000Y-141773323D01*
X152259000Y-141813323D02*
X149980000Y-141813323D01*
X152259000Y-141853323D02*
X150022000Y-141853323D01*
X154099000Y-143213323D02*
X152901000Y-143213323D01*
X154362000Y-143173323D02*
X152638000Y-143173323D01*
X154562000Y-143133323D02*
X152438000Y-143133323D01*
X154730000Y-143093323D02*
X152270000Y-143093323D01*
X154878000Y-143053323D02*
X152122000Y-143053323D01*
X155010000Y-143013323D02*
X151990000Y-143013323D01*
X155130000Y-142973323D02*
X151870000Y-142973323D01*
X155242000Y-142933323D02*
X151758000Y-142933323D01*
X155346000Y-142893323D02*
X151654000Y-142893323D01*
X155444000Y-142853323D02*
X151556000Y-142853323D01*
X155537000Y-142813323D02*
X151463000Y-142813323D01*
X155625000Y-142773323D02*
X151375000Y-142773323D01*
X155709000Y-142733323D02*
X151291000Y-142733323D01*
X155789000Y-142693323D02*
X151211000Y-142693323D01*
X155865000Y-142653323D02*
X151135000Y-142653323D01*
X155939000Y-142613323D02*
X151061000Y-142613323D01*
X156010000Y-142573323D02*
X150990000Y-142573323D01*
X156079000Y-142533323D02*
X150921000Y-142533323D01*
X156145000Y-142493323D02*
X150855000Y-142493323D01*
X156209000Y-142453323D02*
X150791000Y-142453323D01*
X156270000Y-142413323D02*
X150730000Y-142413323D01*
X156330000Y-142373323D02*
X150670000Y-142373323D01*
X156375000Y-132652677D02*
X156375000Y-133652677D01*
X156389000Y-142333323D02*
X150611000Y-142333323D01*
X156445000Y-142293323D02*
X150555000Y-142293323D01*
X156500000Y-142253323D02*
X150500000Y-142253323D01*
X156554000Y-142213323D02*
X150446000Y-142213323D01*
X156606000Y-142173323D02*
X150394000Y-142173323D01*
X156656000Y-142133323D02*
X150344000Y-142133323D01*
X156706000Y-142093323D02*
X150294000Y-142093323D01*
X156754000Y-142053323D02*
X150246000Y-142053323D01*
X156801000Y-142013323D02*
X150199000Y-142013323D01*
X156847000Y-141973323D02*
X150153000Y-141973323D01*
X156875000Y-133152677D02*
X155875000Y-133152677D01*
X156892000Y-141933323D02*
X150108000Y-141933323D01*
X156936000Y-141893323D02*
X150064000Y-141893323D01*
X156978000Y-141853323D02*
X154741000Y-141853323D01*
X157020000Y-141813323D02*
X154741000Y-141813323D01*
X157061000Y-141773323D02*
X154741000Y-141773323D01*
X157101000Y-141733323D02*
X154741000Y-141733323D01*
X157140000Y-141693323D02*
X154741000Y-141693323D01*
X157179000Y-141653323D02*
X154741000Y-141653323D01*
X157216000Y-141613323D02*
X154741000Y-141613323D01*
X157253000Y-141573323D02*
X154741000Y-141573323D01*
X157289000Y-141533323D02*
X154741000Y-141533323D01*
X157324000Y-141493323D02*
X154741000Y-141493323D01*
X157358000Y-141453323D02*
X154741000Y-141453323D01*
X157392000Y-141413323D02*
X154741000Y-141413323D01*
X157425000Y-141373323D02*
X154741000Y-141373323D01*
X157457000Y-141333323D02*
X154741000Y-141333323D01*
X157489000Y-141293323D02*
X154741000Y-141293323D01*
X157520000Y-141253323D02*
X154741000Y-141253323D01*
X157550000Y-141213323D02*
X154741000Y-141213323D01*
X157580000Y-141173323D02*
X154741000Y-141173323D01*
X157610000Y-141133323D02*
X154741000Y-141133323D01*
X157638000Y-141093323D02*
X154741000Y-141093323D01*
X157666000Y-141053323D02*
X154741000Y-141053323D01*
X157694000Y-141013323D02*
X154741000Y-141013323D01*
X157721000Y-140973323D02*
X154741000Y-140973323D01*
X157747000Y-140933323D02*
X154741000Y-140933323D01*
X157773000Y-140893323D02*
X154741000Y-140893323D01*
X157798000Y-140853323D02*
X154741000Y-140853323D01*
X157823000Y-140813323D02*
X154741000Y-140813323D01*
X157847000Y-140773323D02*
X154741000Y-140773323D01*
X157871000Y-140733323D02*
X154741000Y-140733323D01*
X157895000Y-140693323D02*
X154741000Y-140693323D01*
X157917000Y-140653323D02*
X154741000Y-140653323D01*
X157940000Y-140613323D02*
X154741000Y-140613323D01*
X157962000Y-140573323D02*
X154741000Y-140573323D01*
X157983000Y-140533323D02*
X154741000Y-140533323D01*
X158004000Y-140493323D02*
X154741000Y-140493323D01*
X158025000Y-140453323D02*
X154741000Y-140453323D01*
X158045000Y-140413323D02*
X154741000Y-140413323D01*
X158064000Y-140373323D02*
X154741000Y-140373323D01*
X158084000Y-140333323D02*
X154741000Y-140333323D01*
X158103000Y-140293323D02*
X154741000Y-140293323D01*
X158121000Y-140253323D02*
X154741000Y-140253323D01*
X158139000Y-140213323D02*
X154741000Y-140213323D01*
X158157000Y-140173323D02*
X154741000Y-140173323D01*
X158174000Y-140133323D02*
X154741000Y-140133323D01*
X158190000Y-140093323D02*
X154741000Y-140093323D01*
X158207000Y-140053323D02*
X154741000Y-140053323D01*
X158223000Y-140013323D02*
X154741000Y-140013323D01*
X158238000Y-139973323D02*
X154741000Y-139973323D01*
X158254000Y-139933323D02*
X154741000Y-139933323D01*
X158268000Y-139893323D02*
X154741000Y-139893323D01*
X158283000Y-139853323D02*
X154741000Y-139853323D01*
X158297000Y-139813323D02*
X154741000Y-139813323D01*
X158311000Y-139773323D02*
X154741000Y-139773323D01*
X158324000Y-139733323D02*
X154741000Y-139733323D01*
X158337000Y-139693323D02*
X154741000Y-139693323D01*
X158350000Y-139653323D02*
X154741000Y-139653323D01*
X158362000Y-139613323D02*
X154741000Y-139613323D01*
X158374000Y-139573323D02*
X154741000Y-139573323D01*
X158385000Y-139533323D02*
X154741000Y-139533323D01*
X158397000Y-139493323D02*
X154741000Y-139493323D01*
X158407000Y-139453323D02*
X154741000Y-139453323D01*
X158418000Y-139413323D02*
X154741000Y-139413323D01*
X158428000Y-139373323D02*
X148572000Y-139373323D01*
X158438000Y-139333323D02*
X148562000Y-139333323D01*
X158447000Y-139293323D02*
X148553000Y-139293323D01*
X158456000Y-139253323D02*
X148544000Y-139253323D01*
X158465000Y-139213323D02*
X148535000Y-139213323D01*
X158474000Y-139173323D02*
X148526000Y-139173323D01*
X158482000Y-139133323D02*
X148518000Y-139133323D01*
X158490000Y-139093323D02*
X148510000Y-139093323D01*
X158497000Y-139053323D02*
X148503000Y-139053323D01*
X158504000Y-139013323D02*
X148496000Y-139013323D01*
X158511000Y-138973323D02*
X148489000Y-138973323D01*
X158518000Y-138933323D02*
X148482000Y-138933323D01*
X158524000Y-138893323D02*
X148476000Y-138893323D01*
X158530000Y-138853323D02*
X148470000Y-138853323D01*
X158535000Y-138812323D02*
X148465000Y-138812323D01*
X158540000Y-138772323D02*
X148460000Y-138772323D01*
X158545000Y-138732323D02*
X148455000Y-138732323D01*
X158550000Y-138692323D02*
X148450000Y-138692323D01*
X158554000Y-138652323D02*
X148446000Y-138652323D01*
X158558000Y-138612323D02*
X148442000Y-138612323D01*
X158562000Y-138572323D02*
X148438000Y-138572323D01*
X158565000Y-138532323D02*
X148435000Y-138532323D01*
X158568000Y-138492323D02*
X148432000Y-138492323D01*
X158570000Y-138452323D02*
X148430000Y-138452323D01*
X158573000Y-138412323D02*
X148427000Y-138412323D01*
X158575000Y-138372323D02*
X148425000Y-138372323D01*
X158577000Y-138332323D02*
X148423000Y-138332323D01*
X158578000Y-138292323D02*
X148422000Y-138292323D01*
X158579000Y-138252323D02*
X148421000Y-138252323D01*
X158580000Y-138132323D02*
X148420000Y-138132323D01*
X158580000Y-138172323D02*
X148420000Y-138172323D01*
X158580000Y-138212323D02*
X148420000Y-138212323D01*
X158620000Y-138132323D02*
G75*
G02*
X148380000Y-138132323I-5120000J0D01*
G01*
X148380000Y-138132323D02*
G75*
G02*
X158620000Y-138132323I5120000J0D01*
G01*
D14*
%TO.C,U1*%
X146489047Y-90316510D02*
G75*
G02*
X146289047Y-90316510I-100000J0D01*
G01*
X146289047Y-90316510D02*
G75*
G02*
X146489047Y-90316510I100000J0D01*
G01*
X150700000Y-92800000D02*
X146300000Y-92800000D01*
X146300000Y-90850000D01*
X146950000Y-90200000D01*
X150700000Y-90200000D01*
X150700000Y-92800000D01*
D15*
%TO.C,R12*%
X141272936Y-117765000D02*
X141727064Y-117765000D01*
X141272936Y-119235000D02*
X141727064Y-119235000D01*
D16*
%TO.C,IC_A1*%
X159675000Y-89500000D02*
X159675000Y-99500000D01*
X159675000Y-89500000D02*
X160925000Y-89500000D01*
X160925000Y-99500000D02*
X159675000Y-99500000D01*
D14*
%TO.C,U3*%
X146489047Y-117816510D02*
G75*
G02*
X146289047Y-117816510I-100000J0D01*
G01*
X146289047Y-117816510D02*
G75*
G02*
X146489047Y-117816510I100000J0D01*
G01*
X150700000Y-120300000D02*
X146300000Y-120300000D01*
X146300000Y-118350000D01*
X146950000Y-117700000D01*
X150700000Y-117700000D01*
X150700000Y-120300000D01*
D15*
%TO.C,D1*%
X173500000Y-101270000D02*
X173500000Y-100620000D01*
X172380000Y-100020000D02*
X174620000Y-100020000D01*
X172380000Y-99900000D02*
X174620000Y-99900000D01*
X172380000Y-99780000D02*
X174620000Y-99780000D01*
X173500000Y-95730000D02*
X173500000Y-96380000D01*
X172380000Y-100620000D02*
X174620000Y-100620000D01*
X174620000Y-96380000D01*
X172380000Y-96380000D01*
X172380000Y-100620000D01*
%TO.C,R9*%
X143265000Y-109272936D02*
X143265000Y-109727064D01*
X144735000Y-109272936D02*
X144735000Y-109727064D01*
%TO.C,D5*%
X177000000Y-109730000D02*
X177000000Y-110380000D01*
X177000000Y-115270000D02*
X177000000Y-114620000D01*
X178120000Y-110980000D02*
X175880000Y-110980000D01*
X178120000Y-111100000D02*
X175880000Y-111100000D01*
X178120000Y-111220000D02*
X175880000Y-111220000D01*
X178120000Y-110380000D02*
X175880000Y-110380000D01*
X175880000Y-114620000D01*
X178120000Y-114620000D01*
X178120000Y-110380000D01*
%TO.C,D3*%
X172380000Y-127780000D02*
X174620000Y-127780000D01*
X172380000Y-127900000D02*
X174620000Y-127900000D01*
X172380000Y-128020000D02*
X174620000Y-128020000D01*
X173500000Y-123730000D02*
X173500000Y-124380000D01*
X173500000Y-129270000D02*
X173500000Y-128620000D01*
X172380000Y-128620000D02*
X174620000Y-128620000D01*
X174620000Y-124380000D01*
X172380000Y-124380000D01*
X172380000Y-128620000D01*
%TO.C,R2*%
X150265000Y-95772936D02*
X150265000Y-96227064D01*
X151735000Y-95772936D02*
X151735000Y-96227064D01*
%TO.C,R5*%
X148265000Y-123772936D02*
X148265000Y-124227064D01*
X149735000Y-123772936D02*
X149735000Y-124227064D01*
%TO.C,R7*%
X141272936Y-90765000D02*
X141727064Y-90765000D01*
X141272936Y-92235000D02*
X141727064Y-92235000D01*
%TO.C,R4*%
X150765000Y-109272936D02*
X150765000Y-109727064D01*
X152235000Y-109272936D02*
X152235000Y-109727064D01*
D16*
%TO.C,IC_C1*%
X159675000Y-117500000D02*
X159675000Y-127500000D01*
X159675000Y-117500000D02*
X160925000Y-117500000D01*
X160925000Y-127500000D02*
X159675000Y-127500000D01*
D15*
%TO.C,D4*%
X177000000Y-95730000D02*
X177000000Y-96380000D01*
X177000000Y-101270000D02*
X177000000Y-100620000D01*
X178120000Y-96980000D02*
X175880000Y-96980000D01*
X178120000Y-97100000D02*
X175880000Y-97100000D01*
X178120000Y-97220000D02*
X175880000Y-97220000D01*
X178120000Y-96380000D02*
X175880000Y-96380000D01*
X175880000Y-100620000D01*
X178120000Y-100620000D01*
X178120000Y-96380000D01*
%TO.C,J2*%
X182090000Y-119940000D02*
X182090000Y-120860000D01*
X182090000Y-120860000D02*
X183690000Y-120860000D01*
X182090000Y-131140000D02*
X182090000Y-132060000D01*
X182090000Y-132060000D02*
X189910000Y-132060000D01*
X183690000Y-119940000D02*
X183690000Y-120860000D01*
X183690000Y-120860000D02*
X183690000Y-121140000D01*
X183690000Y-130860000D02*
X182475000Y-130860000D01*
X183690000Y-130860000D02*
X183690000Y-131140000D01*
X183690000Y-131140000D02*
X182090000Y-131140000D01*
X183690000Y-132060000D02*
X183690000Y-131140000D01*
X185550000Y-122500000D02*
X189910000Y-122500000D01*
X185550000Y-129500000D02*
X185550000Y-122500000D01*
X186050000Y-120700000D02*
X187650000Y-120700000D01*
X186050000Y-121700000D02*
X186050000Y-120700000D01*
X186050000Y-130300000D02*
X186050000Y-131300000D01*
X186050000Y-131300000D02*
X187650000Y-131300000D01*
X187650000Y-120700000D02*
X187650000Y-121700000D01*
X187650000Y-121700000D02*
X186050000Y-121700000D01*
X187650000Y-130300000D02*
X186050000Y-130300000D01*
X187650000Y-130300000D02*
X189910000Y-130300000D01*
X187650000Y-130800000D02*
X189910000Y-130800000D01*
X187650000Y-131300000D02*
X187650000Y-130300000D01*
X189910000Y-119940000D02*
X182090000Y-119940000D01*
X189910000Y-129500000D02*
X185550000Y-129500000D01*
X189910000Y-132060000D02*
X189910000Y-119940000D01*
D14*
%TO.C,U2*%
X146489047Y-103816510D02*
G75*
G02*
X146289047Y-103816510I-100000J0D01*
G01*
X146289047Y-103816510D02*
G75*
G02*
X146489047Y-103816510I100000J0D01*
G01*
X150700000Y-106300000D02*
X146300000Y-106300000D01*
X146300000Y-104350000D01*
X146950000Y-103700000D01*
X150700000Y-103700000D01*
X150700000Y-106300000D01*
D15*
%TO.C,R1*%
X147765000Y-95772936D02*
X147765000Y-96227064D01*
X149235000Y-95772936D02*
X149235000Y-96227064D01*
%TO.C,R6*%
X150765000Y-123772936D02*
X150765000Y-124227064D01*
X152235000Y-123772936D02*
X152235000Y-124227064D01*
%TO.C,C8*%
X163759000Y-139413323D02*
X160082000Y-139413323D01*
X163759000Y-139453323D02*
X160093000Y-139453323D01*
X163759000Y-139493323D02*
X160103000Y-139493323D01*
X163759000Y-139533323D02*
X160115000Y-139533323D01*
X163759000Y-139573323D02*
X160126000Y-139573323D01*
X163759000Y-139613323D02*
X160138000Y-139613323D01*
X163759000Y-139653323D02*
X160150000Y-139653323D01*
X163759000Y-139693323D02*
X160163000Y-139693323D01*
X163759000Y-139733323D02*
X160176000Y-139733323D01*
X163759000Y-139773323D02*
X160189000Y-139773323D01*
X163759000Y-139813323D02*
X160203000Y-139813323D01*
X163759000Y-139853323D02*
X160217000Y-139853323D01*
X163759000Y-139893323D02*
X160232000Y-139893323D01*
X163759000Y-139933323D02*
X160246000Y-139933323D01*
X163759000Y-139973323D02*
X160262000Y-139973323D01*
X163759000Y-140013323D02*
X160277000Y-140013323D01*
X163759000Y-140053323D02*
X160293000Y-140053323D01*
X163759000Y-140093323D02*
X160310000Y-140093323D01*
X163759000Y-140133323D02*
X160326000Y-140133323D01*
X163759000Y-140173323D02*
X160343000Y-140173323D01*
X163759000Y-140213323D02*
X160361000Y-140213323D01*
X163759000Y-140253323D02*
X160379000Y-140253323D01*
X163759000Y-140293323D02*
X160397000Y-140293323D01*
X163759000Y-140333323D02*
X160416000Y-140333323D01*
X163759000Y-140373323D02*
X160436000Y-140373323D01*
X163759000Y-140413323D02*
X160455000Y-140413323D01*
X163759000Y-140453323D02*
X160475000Y-140453323D01*
X163759000Y-140493323D02*
X160496000Y-140493323D01*
X163759000Y-140533323D02*
X160517000Y-140533323D01*
X163759000Y-140573323D02*
X160538000Y-140573323D01*
X163759000Y-140613323D02*
X160560000Y-140613323D01*
X163759000Y-140653323D02*
X160583000Y-140653323D01*
X163759000Y-140693323D02*
X160605000Y-140693323D01*
X163759000Y-140733323D02*
X160629000Y-140733323D01*
X163759000Y-140773323D02*
X160653000Y-140773323D01*
X163759000Y-140813323D02*
X160677000Y-140813323D01*
X163759000Y-140853323D02*
X160702000Y-140853323D01*
X163759000Y-140893323D02*
X160727000Y-140893323D01*
X163759000Y-140933323D02*
X160753000Y-140933323D01*
X163759000Y-140973323D02*
X160779000Y-140973323D01*
X163759000Y-141013323D02*
X160806000Y-141013323D01*
X163759000Y-141053323D02*
X160834000Y-141053323D01*
X163759000Y-141093323D02*
X160862000Y-141093323D01*
X163759000Y-141133323D02*
X160890000Y-141133323D01*
X163759000Y-141173323D02*
X160920000Y-141173323D01*
X163759000Y-141213323D02*
X160950000Y-141213323D01*
X163759000Y-141253323D02*
X160980000Y-141253323D01*
X163759000Y-141293323D02*
X161011000Y-141293323D01*
X163759000Y-141333323D02*
X161043000Y-141333323D01*
X163759000Y-141373323D02*
X161075000Y-141373323D01*
X163759000Y-141413323D02*
X161108000Y-141413323D01*
X163759000Y-141453323D02*
X161142000Y-141453323D01*
X163759000Y-141493323D02*
X161176000Y-141493323D01*
X163759000Y-141533323D02*
X161211000Y-141533323D01*
X163759000Y-141573323D02*
X161247000Y-141573323D01*
X163759000Y-141613323D02*
X161284000Y-141613323D01*
X163759000Y-141653323D02*
X161321000Y-141653323D01*
X163759000Y-141693323D02*
X161360000Y-141693323D01*
X163759000Y-141733323D02*
X161399000Y-141733323D01*
X163759000Y-141773323D02*
X161439000Y-141773323D01*
X163759000Y-141813323D02*
X161480000Y-141813323D01*
X163759000Y-141853323D02*
X161522000Y-141853323D01*
X165599000Y-143213323D02*
X164401000Y-143213323D01*
X165862000Y-143173323D02*
X164138000Y-143173323D01*
X166062000Y-143133323D02*
X163938000Y-143133323D01*
X166230000Y-143093323D02*
X163770000Y-143093323D01*
X166378000Y-143053323D02*
X163622000Y-143053323D01*
X166510000Y-143013323D02*
X163490000Y-143013323D01*
X166630000Y-142973323D02*
X163370000Y-142973323D01*
X166742000Y-142933323D02*
X163258000Y-142933323D01*
X166846000Y-142893323D02*
X163154000Y-142893323D01*
X166944000Y-142853323D02*
X163056000Y-142853323D01*
X167037000Y-142813323D02*
X162963000Y-142813323D01*
X167125000Y-142773323D02*
X162875000Y-142773323D01*
X167209000Y-142733323D02*
X162791000Y-142733323D01*
X167289000Y-142693323D02*
X162711000Y-142693323D01*
X167365000Y-142653323D02*
X162635000Y-142653323D01*
X167439000Y-142613323D02*
X162561000Y-142613323D01*
X167510000Y-142573323D02*
X162490000Y-142573323D01*
X167579000Y-142533323D02*
X162421000Y-142533323D01*
X167645000Y-142493323D02*
X162355000Y-142493323D01*
X167709000Y-142453323D02*
X162291000Y-142453323D01*
X167770000Y-142413323D02*
X162230000Y-142413323D01*
X167830000Y-142373323D02*
X162170000Y-142373323D01*
X167875000Y-132652677D02*
X167875000Y-133652677D01*
X167889000Y-142333323D02*
X162111000Y-142333323D01*
X167945000Y-142293323D02*
X162055000Y-142293323D01*
X168000000Y-142253323D02*
X162000000Y-142253323D01*
X168054000Y-142213323D02*
X161946000Y-142213323D01*
X168106000Y-142173323D02*
X161894000Y-142173323D01*
X168156000Y-142133323D02*
X161844000Y-142133323D01*
X168206000Y-142093323D02*
X161794000Y-142093323D01*
X168254000Y-142053323D02*
X161746000Y-142053323D01*
X168301000Y-142013323D02*
X161699000Y-142013323D01*
X168347000Y-141973323D02*
X161653000Y-141973323D01*
X168375000Y-133152677D02*
X167375000Y-133152677D01*
X168392000Y-141933323D02*
X161608000Y-141933323D01*
X168436000Y-141893323D02*
X161564000Y-141893323D01*
X168478000Y-141853323D02*
X166241000Y-141853323D01*
X168520000Y-141813323D02*
X166241000Y-141813323D01*
X168561000Y-141773323D02*
X166241000Y-141773323D01*
X168601000Y-141733323D02*
X166241000Y-141733323D01*
X168640000Y-141693323D02*
X166241000Y-141693323D01*
X168679000Y-141653323D02*
X166241000Y-141653323D01*
X168716000Y-141613323D02*
X166241000Y-141613323D01*
X168753000Y-141573323D02*
X166241000Y-141573323D01*
X168789000Y-141533323D02*
X166241000Y-141533323D01*
X168824000Y-141493323D02*
X166241000Y-141493323D01*
X168858000Y-141453323D02*
X166241000Y-141453323D01*
X168892000Y-141413323D02*
X166241000Y-141413323D01*
X168925000Y-141373323D02*
X166241000Y-141373323D01*
X168957000Y-141333323D02*
X166241000Y-141333323D01*
X168989000Y-141293323D02*
X166241000Y-141293323D01*
X169020000Y-141253323D02*
X166241000Y-141253323D01*
X169050000Y-141213323D02*
X166241000Y-141213323D01*
X169080000Y-141173323D02*
X166241000Y-141173323D01*
X169110000Y-141133323D02*
X166241000Y-141133323D01*
X169138000Y-141093323D02*
X166241000Y-141093323D01*
X169166000Y-141053323D02*
X166241000Y-141053323D01*
X169194000Y-141013323D02*
X166241000Y-141013323D01*
X169221000Y-140973323D02*
X166241000Y-140973323D01*
X169247000Y-140933323D02*
X166241000Y-140933323D01*
X169273000Y-140893323D02*
X166241000Y-140893323D01*
X169298000Y-140853323D02*
X166241000Y-140853323D01*
X169323000Y-140813323D02*
X166241000Y-140813323D01*
X169347000Y-140773323D02*
X166241000Y-140773323D01*
X169371000Y-140733323D02*
X166241000Y-140733323D01*
X169395000Y-140693323D02*
X166241000Y-140693323D01*
X169417000Y-140653323D02*
X166241000Y-140653323D01*
X169440000Y-140613323D02*
X166241000Y-140613323D01*
X169462000Y-140573323D02*
X166241000Y-140573323D01*
X169483000Y-140533323D02*
X166241000Y-140533323D01*
X169504000Y-140493323D02*
X166241000Y-140493323D01*
X169525000Y-140453323D02*
X166241000Y-140453323D01*
X169545000Y-140413323D02*
X166241000Y-140413323D01*
X169564000Y-140373323D02*
X166241000Y-140373323D01*
X169584000Y-140333323D02*
X166241000Y-140333323D01*
X169603000Y-140293323D02*
X166241000Y-140293323D01*
X169621000Y-140253323D02*
X166241000Y-140253323D01*
X169639000Y-140213323D02*
X166241000Y-140213323D01*
X169657000Y-140173323D02*
X166241000Y-140173323D01*
X169674000Y-140133323D02*
X166241000Y-140133323D01*
X169690000Y-140093323D02*
X166241000Y-140093323D01*
X169707000Y-140053323D02*
X166241000Y-140053323D01*
X169723000Y-140013323D02*
X166241000Y-140013323D01*
X169738000Y-139973323D02*
X166241000Y-139973323D01*
X169754000Y-139933323D02*
X166241000Y-139933323D01*
X169768000Y-139893323D02*
X166241000Y-139893323D01*
X169783000Y-139853323D02*
X166241000Y-139853323D01*
X169797000Y-139813323D02*
X166241000Y-139813323D01*
X169811000Y-139773323D02*
X166241000Y-139773323D01*
X169824000Y-139733323D02*
X166241000Y-139733323D01*
X169837000Y-139693323D02*
X166241000Y-139693323D01*
X169850000Y-139653323D02*
X166241000Y-139653323D01*
X169862000Y-139613323D02*
X166241000Y-139613323D01*
X169874000Y-139573323D02*
X166241000Y-139573323D01*
X169885000Y-139533323D02*
X166241000Y-139533323D01*
X169897000Y-139493323D02*
X166241000Y-139493323D01*
X169907000Y-139453323D02*
X166241000Y-139453323D01*
X169918000Y-139413323D02*
X166241000Y-139413323D01*
X169928000Y-139373323D02*
X160072000Y-139373323D01*
X169938000Y-139333323D02*
X160062000Y-139333323D01*
X169947000Y-139293323D02*
X160053000Y-139293323D01*
X169956000Y-139253323D02*
X160044000Y-139253323D01*
X169965000Y-139213323D02*
X160035000Y-139213323D01*
X169974000Y-139173323D02*
X160026000Y-139173323D01*
X169982000Y-139133323D02*
X160018000Y-139133323D01*
X169990000Y-139093323D02*
X160010000Y-139093323D01*
X169997000Y-139053323D02*
X160003000Y-139053323D01*
X170004000Y-139013323D02*
X159996000Y-139013323D01*
X170011000Y-138973323D02*
X159989000Y-138973323D01*
X170018000Y-138933323D02*
X159982000Y-138933323D01*
X170024000Y-138893323D02*
X159976000Y-138893323D01*
X170030000Y-138853323D02*
X159970000Y-138853323D01*
X170035000Y-138812323D02*
X159965000Y-138812323D01*
X170040000Y-138772323D02*
X159960000Y-138772323D01*
X170045000Y-138732323D02*
X159955000Y-138732323D01*
X170050000Y-138692323D02*
X159950000Y-138692323D01*
X170054000Y-138652323D02*
X159946000Y-138652323D01*
X170058000Y-138612323D02*
X159942000Y-138612323D01*
X170062000Y-138572323D02*
X159938000Y-138572323D01*
X170065000Y-138532323D02*
X159935000Y-138532323D01*
X170068000Y-138492323D02*
X159932000Y-138492323D01*
X170070000Y-138452323D02*
X159930000Y-138452323D01*
X170073000Y-138412323D02*
X159927000Y-138412323D01*
X170075000Y-138372323D02*
X159925000Y-138372323D01*
X170077000Y-138332323D02*
X159923000Y-138332323D01*
X170078000Y-138292323D02*
X159922000Y-138292323D01*
X170079000Y-138252323D02*
X159921000Y-138252323D01*
X170080000Y-138132323D02*
X159920000Y-138132323D01*
X170080000Y-138172323D02*
X159920000Y-138172323D01*
X170080000Y-138212323D02*
X159920000Y-138212323D01*
X170120000Y-138132323D02*
G75*
G02*
X159880000Y-138132323I-5120000J0D01*
G01*
X159880000Y-138132323D02*
G75*
G02*
X170120000Y-138132323I5120000J0D01*
G01*
D16*
%TO.C,IC_B1*%
X159750000Y-103500000D02*
X159750000Y-113500000D01*
X159750000Y-103500000D02*
X161000000Y-103500000D01*
X161000000Y-113500000D02*
X159750000Y-113500000D01*
D15*
%TO.C,D2*%
X173500000Y-115270000D02*
X173500000Y-114620000D01*
X172380000Y-114020000D02*
X174620000Y-114020000D01*
X172380000Y-113900000D02*
X174620000Y-113900000D01*
X172380000Y-113780000D02*
X174620000Y-113780000D01*
X173500000Y-109730000D02*
X173500000Y-110380000D01*
X172380000Y-114620000D02*
X174620000Y-114620000D01*
X174620000Y-110380000D01*
X172380000Y-110380000D01*
X172380000Y-114620000D01*
%TO.C,R8*%
X142765000Y-95772936D02*
X142765000Y-96227064D01*
X144235000Y-95772936D02*
X144235000Y-96227064D01*
%TO.C,R3*%
X148265000Y-109272936D02*
X148265000Y-109727064D01*
X149735000Y-109272936D02*
X149735000Y-109727064D01*
%TO.C,D6*%
X177000000Y-123540000D02*
X177000000Y-124190000D01*
X177000000Y-129080000D02*
X177000000Y-128430000D01*
X178120000Y-124790000D02*
X175880000Y-124790000D01*
X178120000Y-124910000D02*
X175880000Y-124910000D01*
X178120000Y-125030000D02*
X175880000Y-125030000D01*
X178120000Y-124190000D02*
X175880000Y-124190000D01*
X175880000Y-128430000D01*
X178120000Y-128430000D01*
X178120000Y-124190000D01*
%TD*%
M02*
