%TF.GenerationSoftware,KiCad,Pcbnew,9.0.5*%
%TF.CreationDate,2026-07-15T23:27:38+02:00*%
%TF.ProjectId,brushless-driver-v2,62727573-686c-4657-9373-2d6472697665,rev?*%
%TF.SameCoordinates,Original*%
%TF.FileFunction,Soldermask,Top*%
%TF.FilePolarity,Negative*%
%FSLAX46Y46*%
G04 Gerber Fmt 4.6, Leading zero omitted, Abs format (unit mm)*
G04 Created by KiCad (PCBNEW 9.0.5) date 2026-07-15 23:27:38*
%MOMM*%
%LPD*%
G01*
G04 APERTURE LIST*
G04 Aperture macros list*
%AMRoundRect*
0 Rectangle with rounded corners*
0 $1 Rounding radius*
0 $2 $3 $4 $5 $6 $7 $8 $9 X,Y pos of 4 corners*
0 Add a 4 corners polygon primitive as box body*
4,1,4,$2,$3,$4,$5,$6,$7,$8,$9,$2,$3,0*
0 Add four circle primitives for the rounded corners*
1,1,$1+$1,$2,$3*
1,1,$1+$1,$4,$5*
1,1,$1+$1,$6,$7*
1,1,$1+$1,$8,$9*
0 Add four rect primitives between the rounded corners*
20,1,$1+$1,$2,$3,$4,$5,0*
20,1,$1+$1,$4,$5,$6,$7,0*
20,1,$1+$1,$6,$7,$8,$9,0*
20,1,$1+$1,$8,$9,$2,$3,0*%
G04 Aperture macros list end*
%ADD10R,1.600000X1.600000*%
%ADD11O,1.600000X1.600000*%
%ADD12RoundRect,0.250000X-0.450000X0.350000X-0.450000X-0.350000X0.450000X-0.350000X0.450000X0.350000X0*%
%ADD13RoundRect,0.250000X-0.337500X-0.475000X0.337500X-0.475000X0.337500X0.475000X-0.337500X0.475000X0*%
%ADD14RoundRect,0.250000X0.337500X0.475000X-0.337500X0.475000X-0.337500X-0.475000X0.337500X-0.475000X0*%
%ADD15RoundRect,0.250000X-0.475000X0.337500X-0.475000X-0.337500X0.475000X-0.337500X0.475000X0.337500X0*%
%ADD16RoundRect,0.250000X0.725000X-0.600000X0.725000X0.600000X-0.725000X0.600000X-0.725000X-0.600000X0*%
%ADD17O,1.950000X1.700000*%
%ADD18R,1.200000X1.200000*%
%ADD19RoundRect,0.250001X1.149999X-1.149999X1.149999X1.149999X-1.149999X1.149999X-1.149999X-1.149999X0*%
%ADD20C,2.800000*%
%ADD21RoundRect,0.250001X-1.149999X1.149999X-1.149999X-1.149999X1.149999X-1.149999X1.149999X1.149999X0*%
%ADD22RoundRect,0.250000X0.350000X-0.850000X0.350000X0.850000X-0.350000X0.850000X-0.350000X-0.850000X0*%
%ADD23RoundRect,0.249997X2.650003X-2.950003X2.650003X2.950003X-2.650003X2.950003X-2.650003X-2.950003X0*%
%ADD24RoundRect,0.250000X0.475000X-0.337500X0.475000X0.337500X-0.475000X0.337500X-0.475000X-0.337500X0*%
%ADD25RoundRect,0.250000X-0.350000X-0.450000X0.350000X-0.450000X0.350000X0.450000X-0.350000X0.450000X0*%
%ADD26R,2.000000X2.000000*%
%ADD27C,2.000000*%
%ADD28RoundRect,0.150000X-0.662500X-0.150000X0.662500X-0.150000X0.662500X0.150000X-0.662500X0.150000X0*%
%ADD29RoundRect,0.100000X-2.200000X0.300000X-2.200000X-0.300000X2.200000X-0.300000X2.200000X0.300000X0*%
%ADD30RoundRect,0.500000X-4.200000X-4.900000X4.200000X-4.900000X4.200000X4.900000X-4.200000X4.900000X0*%
%ADD31C,0.800000*%
%ADD32C,7.000000*%
%ADD33RoundRect,0.250000X0.550000X-0.550000X0.550000X0.550000X-0.550000X0.550000X-0.550000X-0.550000X0*%
%ADD34C,1.600000*%
%ADD35RoundRect,0.250000X-0.550000X0.550000X-0.550000X-0.550000X0.550000X-0.550000X0.550000X0.550000X0*%
%ADD36RoundRect,0.250000X0.625000X-0.350000X0.625000X0.350000X-0.625000X0.350000X-0.625000X-0.350000X0*%
%ADD37O,1.750000X1.200000*%
G04 APERTURE END LIST*
D10*
%TO.C,A1*%
X135110000Y-125550000D03*
D11*
X135110000Y-123010000D03*
X135110000Y-120470000D03*
X135110000Y-117930000D03*
X135110000Y-115390000D03*
X135110000Y-112850000D03*
X135110000Y-110310000D03*
X135110000Y-107770000D03*
X135110000Y-105230000D03*
X135110000Y-102690000D03*
X135110000Y-100150000D03*
X135110000Y-97610000D03*
X135110000Y-95070000D03*
X135110000Y-92530000D03*
X135110000Y-89990000D03*
X119870000Y-89990000D03*
X119870000Y-92530000D03*
X119870000Y-95070000D03*
X119870000Y-97610000D03*
X119870000Y-100150000D03*
X119870000Y-102690000D03*
X119870000Y-105230000D03*
X119870000Y-107770000D03*
X119870000Y-110310000D03*
X119870000Y-112850000D03*
X119870000Y-115390000D03*
X119870000Y-117930000D03*
X119870000Y-120470000D03*
X119870000Y-123010000D03*
X119870000Y-125550000D03*
%TD*%
D12*
%TO.C,R11*%
X144000000Y-125000000D03*
X144000000Y-123000000D03*
%TD*%
D13*
%TO.C,C17*%
X176962500Y-119500000D03*
X179037500Y-119500000D03*
%TD*%
%TO.C,C16*%
X176962500Y-105500000D03*
X179037500Y-105500000D03*
%TD*%
%TO.C,C15*%
X176462500Y-91500000D03*
X178537500Y-91500000D03*
%TD*%
D14*
%TO.C,C14*%
X174537500Y-119500000D03*
X172462500Y-119500000D03*
%TD*%
%TO.C,C13*%
X174537500Y-105500000D03*
X172462500Y-105500000D03*
%TD*%
%TO.C,C12*%
X174537500Y-91500000D03*
X172462500Y-91500000D03*
%TD*%
D15*
%TO.C,C5*%
X146000000Y-94962500D03*
X146000000Y-97037500D03*
%TD*%
%TO.C,C4*%
X146500000Y-122962500D03*
X146500000Y-125037500D03*
%TD*%
%TO.C,C3*%
X146500000Y-108462500D03*
X146500000Y-110537500D03*
%TD*%
D16*
%TO.C,J1*%
X111032500Y-116500000D03*
D17*
X111032500Y-114000000D03*
X111032500Y-111500000D03*
X111032500Y-109000000D03*
X111032500Y-106500000D03*
X111032500Y-104000000D03*
X111032500Y-101500000D03*
%TD*%
D18*
%TO.C,D7*%
X135000000Y-134100000D03*
X135000000Y-136900000D03*
%TD*%
D19*
%TO.C,PWR1*%
X108467500Y-128250000D03*
D20*
X108467500Y-123250000D03*
%TD*%
D21*
%TO.C,J3*%
X185532500Y-103750000D03*
D20*
X185532500Y-108750000D03*
X185532500Y-113750000D03*
%TD*%
D22*
%TO.C,U5*%
X122720000Y-141040000D03*
D23*
X125000000Y-134740000D03*
D22*
X127280000Y-141040000D03*
%TD*%
D14*
%TO.C,C11*%
X119537500Y-137000000D03*
X117462500Y-137000000D03*
%TD*%
%TO.C,C10*%
X119537500Y-134500000D03*
X117462500Y-134500000D03*
%TD*%
D13*
%TO.C,C9*%
X130462500Y-137000000D03*
X132537500Y-137000000D03*
%TD*%
%TO.C,C6*%
X130462500Y-134500000D03*
X132537500Y-134500000D03*
%TD*%
D24*
%TO.C,C2*%
X145500000Y-137037500D03*
X145500000Y-134962500D03*
%TD*%
D15*
%TO.C,C1*%
X145500000Y-139462500D03*
X145500000Y-141537500D03*
%TD*%
D25*
%TO.C,R10*%
X140500000Y-104500000D03*
X142500000Y-104500000D03*
%TD*%
D26*
%TO.C,C7*%
X153500000Y-135632323D03*
D27*
X153500000Y-140632323D03*
%TD*%
D28*
%TO.C,U1*%
X145312500Y-90865000D03*
X145312500Y-92135000D03*
X151687500Y-92135000D03*
X151687500Y-90865000D03*
%TD*%
D25*
%TO.C,R12*%
X140500000Y-118500000D03*
X142500000Y-118500000D03*
%TD*%
D29*
%TO.C,IC_A1*%
X156725000Y-90690000D03*
X156725000Y-91960000D03*
X156725000Y-93230000D03*
X156725000Y-94500000D03*
X156725000Y-95770000D03*
X156725000Y-97040000D03*
X156725000Y-98310000D03*
D30*
X165875000Y-94500000D03*
%TD*%
D28*
%TO.C,U3*%
X145312500Y-118365000D03*
X145312500Y-119635000D03*
X151687500Y-119635000D03*
X151687500Y-118365000D03*
%TD*%
D31*
%TO.C,H3*%
X107375000Y-140000000D03*
X108143845Y-138143845D03*
X108143845Y-141856155D03*
X110000000Y-137375000D03*
D32*
X110000000Y-140000000D03*
D31*
X110000000Y-142625000D03*
X111856155Y-138143845D03*
X111856155Y-141856155D03*
X112625000Y-140000000D03*
%TD*%
D33*
%TO.C,D1*%
X173500000Y-102310000D03*
D34*
X173500000Y-94690000D03*
%TD*%
D12*
%TO.C,R9*%
X144000000Y-108500000D03*
X144000000Y-110500000D03*
%TD*%
D35*
%TO.C,D5*%
X177000000Y-108690000D03*
D34*
X177000000Y-116310000D03*
%TD*%
D33*
%TO.C,D3*%
X173500000Y-130310000D03*
D34*
X173500000Y-122690000D03*
%TD*%
D31*
%TO.C,H2*%
X107375000Y-90000000D03*
X108143845Y-88143845D03*
X108143845Y-91856155D03*
X110000000Y-87375000D03*
D32*
X110000000Y-90000000D03*
D31*
X110000000Y-92625000D03*
X111856155Y-88143845D03*
X111856155Y-91856155D03*
X112625000Y-90000000D03*
%TD*%
D12*
%TO.C,R2*%
X151000000Y-95000000D03*
X151000000Y-97000000D03*
%TD*%
%TO.C,R5*%
X149000000Y-123000000D03*
X149000000Y-125000000D03*
%TD*%
D25*
%TO.C,R7*%
X140500000Y-91500000D03*
X142500000Y-91500000D03*
%TD*%
D12*
%TO.C,R4*%
X151500000Y-108500000D03*
X151500000Y-110500000D03*
%TD*%
D29*
%TO.C,IC_C1*%
X156725000Y-118690000D03*
X156725000Y-119960000D03*
X156725000Y-121230000D03*
X156725000Y-122500000D03*
X156725000Y-123770000D03*
X156725000Y-125040000D03*
X156725000Y-126310000D03*
D30*
X165875000Y-122500000D03*
%TD*%
D35*
%TO.C,D4*%
X177000000Y-94690000D03*
D34*
X177000000Y-102310000D03*
%TD*%
D36*
%TO.C,J2*%
X183550000Y-130000000D03*
D37*
X183550000Y-128000000D03*
X183550000Y-126000000D03*
X183550000Y-124000000D03*
X183550000Y-122000000D03*
%TD*%
D31*
%TO.C,H1*%
X180875000Y-90000000D03*
X181643845Y-88143845D03*
X181643845Y-91856155D03*
X183500000Y-87375000D03*
D32*
X183500000Y-90000000D03*
D31*
X183500000Y-92625000D03*
X185356155Y-88143845D03*
X185356155Y-91856155D03*
X186125000Y-90000000D03*
%TD*%
D28*
%TO.C,U2*%
X145312500Y-104365000D03*
X145312500Y-105635000D03*
X151687500Y-105635000D03*
X151687500Y-104365000D03*
%TD*%
D12*
%TO.C,R1*%
X148500000Y-95000000D03*
X148500000Y-97000000D03*
%TD*%
%TO.C,R6*%
X151500000Y-123000000D03*
X151500000Y-125000000D03*
%TD*%
D26*
%TO.C,C8*%
X165000000Y-135632323D03*
D27*
X165000000Y-140632323D03*
%TD*%
D29*
%TO.C,IC_B1*%
X156800000Y-104690000D03*
X156800000Y-105960000D03*
X156800000Y-107230000D03*
X156800000Y-108500000D03*
X156800000Y-109770000D03*
X156800000Y-111040000D03*
X156800000Y-112310000D03*
D30*
X165950000Y-108500000D03*
%TD*%
D31*
%TO.C,H4*%
X180875000Y-140000000D03*
X181643845Y-138143845D03*
X181643845Y-141856155D03*
X183500000Y-137375000D03*
D32*
X183500000Y-140000000D03*
D31*
X183500000Y-142625000D03*
X185356155Y-138143845D03*
X185356155Y-141856155D03*
X186125000Y-140000000D03*
%TD*%
D33*
%TO.C,D2*%
X173500000Y-116310000D03*
D34*
X173500000Y-108690000D03*
%TD*%
D12*
%TO.C,R8*%
X143500000Y-95000000D03*
X143500000Y-97000000D03*
%TD*%
%TO.C,R3*%
X149000000Y-108500000D03*
X149000000Y-110500000D03*
%TD*%
D35*
%TO.C,D6*%
X177000000Y-122500000D03*
D34*
X177000000Y-130120000D03*
%TD*%
M02*
